<svg xmlns="http://www.w3.org/2000/svg" width="90" height="40" fill="none" viewBox="0 0 90 40"><path fill="#FCFBFA" d="M19.4741 37.7974c-2.5312 0-4.9275-.3881-7.1887-1.1644-2.2613-.81-4.2694-1.9575-6.0244-3.4425-1.7212-1.485-3.0881-3.2569-4.1006-5.3156-.9788-2.0925-1.4681-4.4044-1.4681-6.9356 0-2.3625.4893-4.59 1.468-6.6825.9788-2.0925 2.3626-3.9488 4.1513-5.5688 1.7888-1.62 3.915-2.8856 6.3788-3.7969 2.4975-.945 5.2312-1.4175 8.2012-1.4175 1.1475 0 2.2275.0844 3.24.2532 1.0463.135 2.0588.3206 3.0375.5568a21.5517 21.5517 0 0 1 2.8857.81c.3712.135.6581.3207.8606.557.2362.2362.3712.5568.405.9618.135 1.0125.2362 2.025.3037 3.0375.0675.9787.1013 1.9575.1013 2.9362.0337.3375-.0844.5907-.3544.7594-.27.135-.5569.1519-.8606.0506-.3038-.135-.5231-.3881-.6581-.7593-.27-.945-.5907-1.8225-.9619-2.6325-.3375-.8438-.8606-1.5525-1.5694-2.1263-.7762-.6412-1.755-1.1475-2.9362-1.5187-1.1813-.405-2.565-.6075-4.1513-.6075-1.8225 0-3.4762.3712-4.9612 1.1137-1.485.7425-2.7675 1.7719-3.8475 3.0881-1.0463 1.3163-1.8563 2.8013-2.43 4.455-.5738 1.6538-.8607 3.3919-.8607 5.2144 0 2.16.2532 4.2019.7594 6.1256.54 1.9238 1.3331 3.6282 2.3794 5.1132 1.08 1.4512 2.3794 2.5987 3.8981 3.4425 1.5188.81 3.2569 1.215 5.2144 1.215 2.4975 0 4.5225-.54 6.075-1.62 1.5525-1.08 2.8687-2.6832 3.9487-4.8094.27-.54.6413-.7931 1.1138-.7594.4725 0 .7087.27.7087.81 0 .405-.0506.9113-.1518 1.5188-.1013.6075-.2532 1.2656-.4557 1.9743-.1687.675-.3712 1.35-.6075 2.025-.135.405-.3037.7088-.5062.9113-.2025.2025-.5063.3881-.9113.5569-1.2825.54-2.8012.945-4.5562 1.215-1.7213.3037-3.5775.4556-5.5688.4556ZM37.3946 37.2911c-.3038 0-.5738-.0675-.81-.2025-.2363-.1012-.3544-.2531-.3544-.4556 0-.5062.4219-.8437 1.2656-1.0125 1.2825-.27 2.2107-.6412 2.7844-1.1137.5738-.4725.8606-1.2488.8606-2.3288V9.1943c0-1.1138-.2362-1.907-.7087-2.3794-.4725-.4725-1.3669-.8438-2.6831-1.1138-.8438-.1687-1.2657-.523-1.2657-1.063 0-.2026.1182-.3545.3544-.4557.2363-.135.5063-.2025.81-.2025.81 0 1.6031.0169 2.3794.0506.7762.0338 1.5187.0675 2.2275.1013.7425.0337 1.485.0506 2.2275.0506.7087 0 1.4175-.0169 2.1262-.0506.7425-.0338 1.5019-.0675 2.2782-.1013a54.7828 54.7828 0 0 1 2.3793-.0506c.3375 0 .6075.0675.81.2025.2025.1012.3038.27.3038.5062 0 .27-.1181.4894-.3544.6582-.2025.135-.5062.253-.9112.3543-1.35.3375-2.2613.7425-2.7338 1.215-.4725.4725-.7087 1.2488-.7087 2.3288v22.8825c0 1.0462.27 1.8056.81 2.2781.5737.4725 1.5018.8775 2.7843 1.215.4388.1013.7594.2194.9619.3544.2363.135.3544.3375.3544.6075 0 .2362-.1013.405-.3038.5062-.2025.1013-.4725.1519-.81.1519-.81 0-1.62-.0169-2.43-.0506-.81-.0338-1.6031-.0675-2.3793-.1013a48.0304 48.0304 0 0 0-2.1769-.0506c-.7425 0-1.5019.0169-2.2781.0506-.7763.0338-1.5694.0675-2.3794.1013-.81.0675-1.62.1012-2.43.1012ZM83.4353 37.9999c-1.8563 0-3.375-.3544-4.5563-1.0631-1.1475-.7088-2.1769-1.9407-3.0881-3.6957l-4.6069-9.0618c-.4387-.8438-.9112-1.5357-1.4175-2.0757-.4725-.54-.945-.8775-1.4175-1.0125-.3037-.1012-.6075-.1518-.9112-.1518h-.81c-.1688 0-.2869.0843-.3544.2531-.0338.1687-.0506.3544-.0506.5569l.1012 10.125c0 .6412.0844 1.215.2531 1.7212.1688.4725.4725.8775.9113 1.215.4387.3038 1.0969.5738 1.9744.81.4387.1013.7931.2194 1.0631.3544.27.135.405.3375.405.6075 0 .2362-.1519.405-.4556.5062-.3038.135-.6413.2025-1.0125.2025-1.0125 0-1.8563-.0337-2.5313-.1012-.675-.0675-1.2994-.1181-1.8731-.1519-.54-.0675-1.1475-.1012-1.8225-.1012-.7088 0-1.3838.0337-2.025.1012-.6413.0675-1.3331.135-2.0756.2025-.7088.1013-1.5863.1519-2.6325.1519-.3713 0-.7088-.0844-1.0125-.2531-.3038-.135-.4557-.3038-.4557-.5063 0-.5062.4894-.8437 1.4682-1.0125 1.2825-.27 2.1262-.6412 2.5312-1.1137.4388-.4725.6581-1.2825.6581-2.43V9.1943c0-1.1138-.2362-1.907-.7087-2.3794-.4388-.4725-1.3163-.8438-2.6325-1.1138-.8775-.1687-1.3163-.523-1.3163-1.063 0-.2026.1182-.3545.3544-.4557.2363-.135.5063-.2025.81-.2025.81 0 1.6031.0169 2.3794.0506.7762.0338 1.5356.0675 2.2781.1013a47.9547 47.9547 0 0 0 2.1769.0506c.6412 0 1.2994-.0169 1.9744-.0506l2.1262-.1013a51.3508 51.3508 0 0 1 2.3288-.0506c.3375 0 .6075.0675.81.2025.2025.1012.3037.27.3037.5062 0 .27-.1181.4894-.3544.6582-.2025.135-.5231.253-.9618.3543-1.3163.3375-2.16.7594-2.5313 1.2657-.3375.5062-.5062 1.2656-.5062 2.278v8.8595c0 .3375.0337.5737.1012.7087.1013.1013.2194.1519.3544.1519h1.3669c1.3837 0 2.565-.4894 3.5437-1.4681.9788-1.0125 1.7719-2.2444 2.3794-3.6957l1.8225-4.5562c.4387-1.0463.9112-2.0081 1.4175-2.8856.54-.8775 1.2487-1.5694 2.1262-2.0757.8776-.54 1.9913-.81 3.3413-.81 1.3162 0 2.2275.3207 2.7337.962.54.6412.81 1.3837.81 2.2274 0 .7763-.2193 1.4681-.6581 2.0756-.405.6075-.9787.9113-1.7212.9113-.5738 0-1.1644-.1519-1.7719-.4556-.6075-.3375-1.1644-.5063-1.6706-.5063-.6075 0-1.1644.1856-1.6707.5569-.5062.3375-.9618 1.0125-1.3668 2.025l-1.5188 3.8475c-.27.7087-.6075 1.3331-1.0125 1.8731-.405.54-.8437.9788-1.3162 1.3163-.1688.1687-.2194.3375-.1519.5062.0675.135.1519.2531.2531.3544.8775.2362 1.5863.6412 2.1263 1.215.54.5737 1.1643 1.5019 1.8731 2.7844l4.1512 7.3912c.6075 1.08 1.1644 1.9406 1.6707 2.5819.5062.6412 1.0125 1.1137 1.5187 1.4175.54.27 1.0969.4556 1.6706.5569.5738.0675 1.215.1012 1.9238.1012.2362 0 .4219.0844.5569.2531.135.135.2025.3038.2025.5063 0 .135-.0675.27-.2025.405-.1013.135-.2025.2531-.3038.3544-.405.3037-1.1137.5906-2.1262.8606s-2.0925.405-3.24.405Z"/><path stroke="#FCFBFA" stroke-width=".4688" d="M19.4741 37.7974c-2.5312 0-4.9275-.3881-7.1887-1.1644-2.2613-.81-4.2694-1.9575-6.0244-3.4425-1.7212-1.485-3.0881-3.2569-4.1006-5.3156-.9788-2.0925-1.4681-4.4044-1.4681-6.9356 0-2.3625.4893-4.59 1.468-6.6825.9788-2.0925 2.3626-3.9488 4.1513-5.5688 1.7888-1.62 3.915-2.8856 6.3788-3.7969 2.4975-.945 5.2312-1.4175 8.2012-1.4175 1.1475 0 2.2275.0844 3.24.2532 1.0463.135 2.0588.3206 3.0375.5568a21.5517 21.5517 0 0 1 2.8857.81c.3712.135.6581.3207.8606.557.2362.2362.3712.5568.405.9618.135 1.0125.2362 2.025.3037 3.0375.0675.9787.1013 1.9575.1013 2.9362.0337.3375-.0844.5907-.3544.7594-.27.135-.5569.1519-.8606.0506-.3038-.135-.5231-.3881-.6581-.7593-.27-.945-.5907-1.8225-.9619-2.6325-.3375-.8438-.8606-1.5525-1.5694-2.1263-.7762-.6412-1.755-1.1475-2.9362-1.5187-1.1813-.405-2.565-.6075-4.1513-.6075-1.8225 0-3.4762.3712-4.9612 1.1137-1.485.7425-2.7675 1.7719-3.8475 3.0881-1.0463 1.3163-1.8563 2.8013-2.43 4.455-.5738 1.6538-.8607 3.3919-.8607 5.2144 0 2.16.2532 4.2019.7594 6.1256.54 1.9238 1.3331 3.6282 2.3794 5.1132 1.08 1.4512 2.3794 2.5987 3.8981 3.4425 1.5188.81 3.2569 1.215 5.2144 1.215 2.4975 0 4.5225-.54 6.075-1.62 1.5525-1.08 2.8687-2.6832 3.9487-4.8094.27-.54.6413-.7931 1.1138-.7594.4725 0 .7087.27.7087.81 0 .405-.0506.9113-.1518 1.5188-.1013.6075-.2532 1.2656-.4557 1.9743-.1687.675-.3712 1.35-.6075 2.025-.135.405-.3037.7088-.5062.9113-.2025.2025-.5063.3881-.9113.5569-1.2825.54-2.8012.945-4.5562 1.215-1.7213.3037-3.5775.4556-5.5688.4556ZM37.3946 37.2911c-.3038 0-.5738-.0675-.81-.2025-.2363-.1012-.3544-.2531-.3544-.4556 0-.5062.4219-.8437 1.2656-1.0125 1.2825-.27 2.2107-.6412 2.7844-1.1137.5738-.4725.8606-1.2488.8606-2.3288V9.1943c0-1.1138-.2362-1.907-.7087-2.3794-.4725-.4725-1.3669-.8438-2.6831-1.1138-.8438-.1687-1.2657-.523-1.2657-1.063 0-.2026.1182-.3545.3544-.4557.2363-.135.5063-.2025.81-.2025.81 0 1.6031.0169 2.3794.0506.7762.0338 1.5187.0675 2.2275.1013.7425.0337 1.485.0506 2.2275.0506.7087 0 1.4175-.0169 2.1262-.0506.7425-.0338 1.5019-.0675 2.2782-.1013a54.7828 54.7828 0 0 1 2.3793-.0506c.3375 0 .6075.0675.81.2025.2025.1012.3038.27.3038.5062 0 .27-.1181.4894-.3544.6582-.2025.135-.5062.253-.9112.3543-1.35.3375-2.2613.7425-2.7338 1.215-.4725.4725-.7087 1.2488-.7087 2.3288v22.8825c0 1.0462.27 1.8056.81 2.2781.5737.4725 1.5018.8775 2.7843 1.215.4388.1013.7594.2194.9619.3544.2363.135.3544.3375.3544.6075 0 .2362-.1013.405-.3038.5062-.2025.1013-.4725.1519-.81.1519-.81 0-1.62-.0169-2.43-.0506-.81-.0338-1.6031-.0675-2.3793-.1013a48.0304 48.0304 0 0 0-2.1769-.0506c-.7425 0-1.5019.0169-2.2781.0506-.7763.0338-1.5694.0675-2.3794.1013-.81.0675-1.62.1012-2.43.1012ZM83.4353 37.9999c-1.8563 0-3.375-.3544-4.5563-1.0631-1.1475-.7088-2.1769-1.9407-3.0881-3.6957l-4.6069-9.0618c-.4387-.8438-.9112-1.5357-1.4175-2.0757-.4725-.54-.945-.8775-1.4175-1.0125-.3037-.1012-.6075-.1518-.9112-.1518h-.81c-.1688 0-.2869.0843-.3544.2531-.0338.1687-.0506.3544-.0506.5569l.1012 10.125c0 .6412.0844 1.215.2531 1.7212.1688.4725.4725.8775.9113 1.215.4387.3038 1.0969.5738 1.9744.81.4387.1013.7931.2194 1.0631.3544.27.135.405.3375.405.6075 0 .2362-.1519.405-.4556.5062-.3038.135-.6413.2025-1.0125.2025-1.0125 0-1.8563-.0337-2.5313-.1012-.675-.0675-1.2994-.1181-1.8731-.1519-.54-.0675-1.1475-.1012-1.8225-.1012-.7088 0-1.3838.0337-2.025.1012-.6413.0675-1.3331.135-2.0756.2025-.7088.1013-1.5863.1519-2.6325.1519-.3713 0-.7088-.0844-1.0125-.2531-.3038-.135-.4557-.3038-.4557-.5063 0-.5062.4894-.8437 1.4682-1.0125 1.2825-.27 2.1262-.6412 2.5312-1.1137.4388-.4725.6581-1.2825.6581-2.43V9.1943c0-1.1138-.2362-1.907-.7087-2.3794-.4388-.4725-1.3163-.8438-2.6325-1.1138-.8775-.1687-1.3163-.523-1.3163-1.063 0-.2026.1182-.3545.3544-.4557.2363-.135.5063-.2025.81-.2025.81 0 1.6031.0169 2.3794.0506.7762.0338 1.5356.0675 2.2781.1013a47.9547 47.9547 0 0 0 2.1769.0506c.6412 0 1.2994-.0169 1.9744-.0506l2.1262-.1013a51.3508 51.3508 0 0 1 2.3288-.0506c.3375 0 .6075.0675.81.2025.2025.1012.3037.27.3037.5062 0 .27-.1181.4894-.3544.6582-.2025.135-.5231.253-.9618.3543-1.3163.3375-2.16.7594-2.5313 1.2657-.3375.5062-.5062 1.2656-.5062 2.278v8.8595c0 .3375.0337.5737.1012.7087.1013.1013.2194.1519.3544.1519h1.3669c1.3837 0 2.565-.4894 3.5437-1.4681.9788-1.0125 1.7719-2.2444 2.3794-3.6957l1.8225-4.5562c.4387-1.0463.9112-2.0081 1.4175-2.8856.54-.8775 1.2487-1.5694 2.1262-2.0757.8776-.54 1.9913-.81 3.3413-.81 1.3162 0 2.2275.3207 2.7337.962.54.6412.81 1.3837.81 2.2274 0 .7763-.2193 1.4681-.6581 2.0756-.405.6075-.9787.9113-1.7212.9113-.5738 0-1.1644-.1519-1.7719-.4556-.6075-.3375-1.1644-.5063-1.6706-.5063-.6075 0-1.1644.1856-1.6707.5569-.5062.3375-.9618 1.0125-1.3668 2.025l-1.5188 3.8475c-.27.7087-.6075 1.3331-1.0125 1.8731-.405.54-.8437.9788-1.3162 1.3163-.1688.1687-.2194.3375-.1519.5062.0675.135.1519.2531.2531.3544.8775.2362 1.5863.6412 2.1263 1.215.54.5737 1.1643 1.5019 1.8731 2.7844l4.1512 7.3912c.6075 1.08 1.1644 1.9406 1.6707 2.5819.5062.6412 1.0125 1.1137 1.5187 1.4175.54.27 1.0969.4556 1.6706.5569.5738.0675 1.215.1012 1.9238.1012.2362 0 .4219.0844.5569.2531.135.135.2025.3038.2025.5063 0 .135-.0675.27-.2025.405-.1013.135-.2025.2531-.3038.3544-.405.3037-1.1137.5906-2.1262.8606s-2.0925.405-3.24.405Z"/></svg>
