<svg xmlns="http://www.w3.org/2000/svg" width="186" height="120" fill="none" viewBox="0 0 186 120"><path fill="#FCFBFA" fill-rule="evenodd" d="M38.5392 49.4701c-1.4168 1.0895-6.2637 7.6413-7.5208 10.1658-1.8301 3.6758-3.743 9.165-3.417 9.8065a.4181.4181 0 0 1-.1809.559c-.4779.2457-1.1427 4.1432-.8541 5.0067.1221.3652.2582 1.4057.3025 2.312.044.9065.1712 1.7723.2826 1.924.1114.1518.4615 1.0216.7783 1.9333.4762 1.3703.8202 1.8801 1.986 2.9451.7754.7081 1.524 1.5276 1.6639 1.8212.1395.2935.4848.5816.7675.6401.2823.0583.8706.4705 1.3068.9153.4362.4448 1.8046 1.138 3.0414 1.5403 1.2364.4024 2.3326.891 2.4362 1.0861.1033.1952.2631.2303.3547.078.0917-.1523 1.0595-.0384 2.1506.2535 1.0911.2917 2.1037.4688 2.2502.3934.1468-.0754.5105-.0317.8088.0971.7449.3216 6.1159.1572 7.2899-.2232.6041-.1957 1.1008-.1459 1.3502.1356.2457.2772.6352.3204 1.0307.115 1.0807-.5614 2.9344-1.1333 3.7155-1.1459.4097-.0068 1.0956-.2918 1.5248-.6335.4287-.3418 1.3302-.7391 2.0029-.8828.8711-.1864 1.889-.7135 3.539-1.8332 2.0958-1.422 2.3694-1.7128 2.8764-3.0525.5052-1.3351 1.0395-1.9184 2.1112-2.3039.1995-.0715.3013-.2504.2267-.3973-.0746-.1468.0693-.4708.3199-.72.2505-.2492.366-.6293.2565-.8448-.1095-.2154-.0298-.4789.1774-.5854.5554-.2855.6301-1.8376.1648-3.4186-.5834-1.9822-2.0641-3.1764-3.9579-3.1916-.7733-.0063-1.5392.1375-1.7017.3197-.3979.4456-.3174 2.5921.1121 2.9804.1892.1707.4568.8505.5953 1.5104.2031.9699.0728 1.4673-.6781 2.5907-.7874 1.1777-1.1323 1.4564-2.2531 1.8222-.728.2373-2.0186.4287-2.8679.4253-.8491-.0031-1.8747.1761-2.279.3988-.4223.2323-.9493.268-1.2389.0834-.3662-.2335-.5174-.2027-.5532.113-.0772.6774-2.4162 1.3932-3.0672.9385-.2959-.2065-.6167-.2447-.7131-.0848-.0963.1599-.6471.1367-1.2241-.0508-.5771-.1878-1.116-.3071-1.1978-.265-.3975.2043-2.2237-.3784-2.62-.8358-.2589-.299-.7211-.4246-1.093-.2968-.4205.1441-.834-.003-1.1891-.4233-.2996-.3547-.9983-.877-1.553-1.1609-1.4668-.7506-2.89-1.9354-3.3042-2.7505-.1987-.3911-.4994-.6396-.6685-.5527-.2083.1071-.4133-.2048-.636-.9663-.1808-.6182-.6093-1.6398-.9525-2.2693-.3839-.7042-.5033-1.207-.3105-1.3061.1723-.0886.1575-.3021-.0333-.4744-.4691-.4241-.8736-2.5082-.5218-2.689.1549-.0797.1491-.2706-.013-.4244-.5164-.4892-.3453-2.2519.5037-5.1842.4536-1.5669 1.0463-3.6953 1.3175-4.7297.2711-1.0347.7275-2.0015 1.0143-2.149.2868-.1474.497-.4983.4674-.7793-.0298-.2813.0967-.4991.2813-.484.1846.0151.3486-.1372.365-.3384.0161-.2011.3302-.5201.6975-.7089.8971-.4613 2.5176-2.0797 2.3712-2.3679-.1656-.3259 2.2462-1.0489 3.1044-.9308.392.0541.9599-.1189 1.262-.3842.3018-.2656.6106-.3609.6865-.2116.0757.1491.4276.2072.7819.1285.4527-.1003.6732.0288.7423.4347.0543.3173.4086 1.6429.7876 2.9462.3789 1.3031.6576 2.4662.6194 2.5848-.038.1189.2337.3317.6045.4731.5458.2085.9521.0789 2.1394-.6829 1.7008-1.0913 2.2818-2.3705 1.6453-3.6232-.2173-.4276-.3356-.9628-.2628-1.1892.2588-.8045-.5645-2.3985-1.578-3.0552-.5401-.3496-1.072-.8135-1.1822-1.0304-.1103-.2171-.3976-.2932-.6384-.1694-.4051.2082-4.1665-.4622-4.6078-.8212-.1074-.0873-.3602-.0735-.5622.0304-.2023.1039-.7846.223-1.2941.2649-.5096.0416-1.0245.159-1.1438.261-.1195.1022-.3972.076-.6171-.0579-.2198-.1343-.6941-.1284-1.0533.0128-2.6913 1.057-4.2119 1.816-5.2746 2.6334Z" clip-rule="evenodd"/><path fill="#FCFBFA" d="M139.937 43.4675c-.037-.1404.365-1.0289.892-1.9743l.958-1.7188 1.874-.303c1.03-.1663 2.108-.3823 2.395-.4795.288-.0973.799-.0596 1.135.0836.337.1432 1.165.4981 1.84.789.674.2909 1.534.9132 1.909 1.383.376.4698.992.9427 1.37 1.0507.41.1174.779.5175.916.9926.125.4376.367.8346.536.8822.389.1094 1.698 5.4571 1.608 6.5672-.067.8236-.873 1.3975-1.058.7538-.091-.3165-.773-.0796-3.757 1.3041-.394.1824-1.305.1821-2.064-.0009-1.182-.2846-1.375-.4445-1.489-1.2285-.307-2.1204-.462-2.397-1.266-2.2623-.856.1435-2.719 2.3102-2.777 3.2294-.019.3061-.35 1.09-.735 1.7425-.978 1.6583-.894 2.8726.231 3.3495 2.586 1.0947 3.962 1.9317 4.767 2.9013.495.5946.988.9815 1.098.8599.203-.2253 2.059.8253 2.198 1.2437.042.1266.434.5156.871.8642.605.4823 1.032 1.3132 1.783 3.468.543 1.5585 1.195 3.048 1.448 3.3099.254.2618.562.8253.685 1.2518.36 1.2557 1.058 1.7679 2.025 1.4868.806-.234.946-.6066.561-1.4897-.139-.318.654-.768.922-.5237.348.3179.711.1758 1.042-.4082.153-.2702.791-.8206 1.417-1.223.626-.4023 1.102-.8588 1.058-1.0144-.045-.1556.177-.358.493-.4498.315-.0917.79-.5999 1.055-1.129l.482-.9626 1.19.6605c1.527.8473 1.832 1.8604 1.034 3.4341-.386.7606-.518 1.5082-.362 2.0513.24.8349-.288 2.1842-.847 2.1633-.259-.0097-1.74 1.7923-2.398 2.9173-.155.2643-.613.6575-1.019.8735-.406.2163-1.232.6617-1.836.9902-1.481.8051-3.916 1.1864-5.059.7919-.515-.1771-1.069-.2836-1.232-.2363-.375.1091-2.729-1.5644-2.864-2.0368-.056-.1943-.46-.6119-.897-.9279-.516-.3733-.754-.7526-.678-1.0816.105-.4496-1.198-3.2008-2.032-4.2911-.165-.2156-.569-1.102-.898-1.9697-.329-.8677-.876-1.8583-1.216-2.2012-.339-.343-.995-1.1886-1.456-1.8796-1.345-2.0114-2.827-3.5799-3.526-3.7297-.715-.1536-1.739.3942-1.606.859.047.1629-.161.3108-.461.3285-.3.0176-.868.3263-1.261.6862-1.022.9345-4.801 1.9665-5.925 1.6182-1.072-.332-1.952.135-2.879 1.5274-.424.6366-.603 1.3014-.473 1.755.116.4014.155.9886.088 1.3048-.074.3505.176 1.1547.64 2.0595.533 1.0386.686 1.5687.508 1.7662-.275.3067.256 2.5291.582 2.4343.11-.0319.47.3057.801.7505.33.4445.892.8007 1.249.7915.356-.009.704.1785.773.4167.177.6162 2.491 1.9252 3.094 1.75.278-.0808.924.0546 1.435.3013.877.4222.932.5264.946 1.8007.008.7438-.148 1.4001-.347 1.458-.199.0579-.464.4021-.588.7644-.162.4738-.782.8954-2.206 1.4996-2.709 1.149-8.898 2.9844-9.418 2.7931-.233-.0862-.715-.0236-1.071.1386s-.852.1453-1.101-.0376c-.25-.1825-.991-.3278-1.646-.3229-1.502.0116-2.122-.5039-2.054-1.7078.057-1.0129.616-1.6054 2.846-3.018 1.445-.9156 1.788-1.3247 1.76-2.0996-.125-3.4925-.281-4.9299-.825-7.5833-.357-1.7403-.742-3.2512-.855-3.3579-.114-.1063-.104-.4284.02-.7155.178-.4093.097-.5942-.377-.8572-.711-.3939-.807-.6194-.503-1.1732.309-.5637-2.128-9.6017-2.833-10.5088-.515-.6607-.633-.6649-2.465-.0821-1.651.5254-2.126.5482-3.354.1617-.787-.2475-1.588-.6866-1.78-.976-.517-.7792-.203-2.8904.422-2.8367.341.0293.525-.2397.574-.8396.039-.4854.314-1.0277.61-1.205.296-.1774.51-.423.475-.5456-.035-.1226.531-.4088 1.258-.6361.726-.2275 1.412-.5139 1.523-.6372.11-.1232.775-.4683 1.477-.7673 1.011-.431 1.341-.4554 1.596-.1171.176.2342.481.304.677.1546.196-.1492.517-.1823.714-.0733.492.273 2.236-.2197 3.066-.8661.661-.5159 1.787-.7263 2.517-.4712.194.0679 1.12.1674 2.058.221 1.646.0943 1.708.1308 1.773 1.0491.106 1.4978-.33 2.761-1.188 3.446-1.006.8026-1.427 1.5311-1.693 2.9285-.117.6139-.375 1.2397-.573 1.3906-.199.1509-.231.4474-.072.6585.159.2112.103.6249-.123.9197-.337.4378-.304.7794.176 1.8688.649 1.471 1.707 2.3281 1.922 1.556.068-.2467.282-.4037.476-.3497.193.0544 1.644-.1979 3.225-.5602 2.813-.6451 2.898-.6867 4.068-1.9811.658-.7269 1.343-1.3647 1.523-1.4172.573-.1664 1.214-1.9977 1.203-3.4316-.007-.7619.103-1.4183.243-1.4591.14-.0407.16-.4057.043-.8109-.116-.4052-.079-.7751.082-.8219.161-.0469.159-.5493-.004-1.1167-.183-.6386-.137-1.3209.121-1.7912.229-.4178.353-.9928.275-1.2774-.078-.2845.021-.9241.22-1.4209.198-.4969.331-1.0183.295-1.1587ZM85.56 25.0947c2.4174.8095 6.94 1.3948 9.3101 1.205 2.4416-.1957 6.2619.2716 7.9759.9756.661.2716 1.022.6915 1.197 1.3917.231.928.179 1.0476-.691 1.6003-.517.3285-1.135.4864-1.374.3512-.239-.1354-.474-.0938-.523.0925-.05.1864-.126.4636-.17.6161-.044.1527-.494.5155-1 .8063-.5058.2907-1.652 1.5002-2.5476 2.6872-1.4205 1.8838-1.628 2.3291-1.628 3.4947 0 .7345-.008 1.6924-.0178 2.1284-.0095.436.0473 1.053.1266 1.3709.0794.3178.0179.5593-.1362.5364-.4698-.07-1.4326 1.9942-1.1514 2.4681.1632.275.0509.9925-.3259 2.0835-.316.9152-.7228 2.5008-.9042 3.5236-.181 1.0228-.4717 2.1416-.6455 2.4863-.1738.3447-.2309 1.016-.1268 1.4922.1214.5566.0811.8493-.1129.8204-.5147-.0767-.4976 1.0724.0295 2 .2763.4859.469 1.1423.4281 1.4587-.1575 1.2217 2.0007 3.2781 3.1663 3.0169.2672-.06.5486.0373.625.216.0765.1787.5915.3923 1.1449.4747.8627.1286 2.5899 1.3022 1.7797 1.2095-.1611-.0183-.0609.1967.2232.4779.458.4552.455.6116-.031 1.4282-.5363.9003-.5781.9096-2.2511.5165-1.0466-.2461-1.8921-.2862-2.1902-.1041-.3048.1862-1.8872.0973-4.2502-.2383-2.1864-.3106-4.0514-.4257-4.4485-.2746-.3761.1427-1.6578.1483-2.8481.0123-1.1905-.1361-2.5695-.196-3.0646-.1326-1.921.2452-6.5998-1.9457-6.4116-3.0024.0356-.1989.3153-.6825.6216-1.0743.3063-.3917.6114-1.0486.6783-1.4596.0665-.4109.5627-1.1796 1.1023-1.7081l.9813-.9612 2.8853.6407c1.587.3523 3.0439.6964 3.2381.7648.2637.0924.5815-1.6093 1.2591-6.7397.4982-3.775.9647-7.2128 1.0364-7.6395.4046-2.4118 1.2251-8.2504 1.4376-10.2274.2644-2.4629.0747-2.8945-1.3702-3.1188-.4446-.0688-1.1213-.4582-1.5038-.8651-.3822-.4069-1.0325-.7902-1.4451-.8517-1.1347-.1691-1.5032-1.4745-.769-2.7232.794-1.3497 1.4412-1.6446 2.6914-1.226Z"/><path fill="#fff" fill-rule="evenodd" d="M91.8218.0458c-.6372.046-.8741.1808-1.5609.8885-1.2013 1.2379-1.5208 1.2985-5.553 1.052a2495.8838 2495.8838 0 0 0-4.7089-.2846c-1.4161-.0827-3.3977.21-3.8219.5649-.1466.1226-.6275.3823-1.0687.5773-.7137.3151-.9047.3321-1.7281.1532-1.7276-.3754-3.7177-.1634-5.156.549-2.0576 1.0193-6.0893 1.4226-9.3925.9395-.6023-.088-1.1148-.0116-2.1679.323-1.3124.417-3.1116 1.1374-3.7614 1.506-.1657.0939-.3792.1708-.4744.1708-.095 0-.6596.2353-1.2544.523-.5949.2877-1.357.599-1.6938.692-.3366.093-.8073.3252-1.0458.516-1.4915 1.1938-2.242 1.7321-2.4147 1.7321-.1084 0-.5919.3117-1.0746.6927-.4827.3809-.9724.6926-1.0883.6926-.1157 0-.4752.2727-.7988.606-.3236.3334-.6766.6061-.7843.6061-.1077 0-.3791.1948-.6032.4329-.2241.2381-.5064.4329-.6275.4329-.121 0-.322.1446-.4466.3212-.1247.1766-.6949.5823-1.2672.9013-.5724.3191-1.4699.8552-1.9945 1.1913-1.157.7413-2.1834 1.2225-2.6073 1.2225-.1729 0-.6724.2727-1.1098.606-.4374.3334-.8725.6061-.9672.6061-.0945 0-.1719.1073-.1719.2388 0 .2235-.4467.4614-1.333.7101-.2084.0585-.8328.529-1.3875 1.0453-.5546.5166-1.0985.9415-1.2086.9443-.1977.0051-1.2902.8316-2.1466 1.6242-.2416.2235-.6318.5075-.8672.631-.2355.1236-.4904.3302-.5667.4592-.0764.129-.2203.2344-.3202.2344-.0999 0-.5363.3117-.9697.6927-.4336.3809-.8862.6926-1.0059.6926-.1198 0-.441.2531-.7137.5627-.5664.6428-2.3238 1.9953-3.0935 2.381-.2851.1428-.9485.6817-1.4742 1.1977-.5257.5158-1.3954 1.334-1.9329 1.8181-1.1341 1.0217-3.272 3.4367-3.272 3.6961 0 .0975-.1205.2235-.268.28-.1474.0564-.3825.3764-.5227.7111-.1399.3347-.3262.6085-.414.6085-.0877 0-.2145.1752-.282.3896-.1566.4982-1.066 2.364-1.7515 3.593-.292.5238-.746 1.342-1.0092 1.8182-.263.4762-.5465.9397-.6302 1.0303-.0836.0904-.152.273-.152.4055 0 .1326-.156.4393-.3468.6814-.1908.2422-.347.588-.347.7688 0 .1806-.27.884-.5998 1.5631-.3299.6789-.5587 1.3013-.5082 1.3828.0505.0816-.0697.4094-.2672.7283-.1974.3191-.359.7281-.359.9091 0 .1809-.1952.6156-.4336.966-.2385.3503-.4336.7162-.4336.8128 0 .0967-.2914.7825-.6476 1.5243-.3563.7417-.6596 1.5044-.674 1.6949-.0145.1905-.1207.619-.2358.9524-.4397 1.2715-.5432 1.6661-.6135 2.3376-.2246 2.1477-.4402 3.5876-.581 3.8832-.288.6038.0345 3.9523.46 4.7747.6493 1.2553.9044 1.8673.9044 2.1698 0 .1641.117.3955.2602.5141.143.1186.2601.437.2601.7077 0 .3042.1244.5586.3257.6663.4319.2306.5665 1.019.2715 1.5889-.2125.41-.2016.4905.103.7659.2565.2316.3404.5331.3404 1.2228 0 .5034.0831.9666.1847 1.0292.1017.0627.1606.3432.1311.6234-.0293.28.0325.5645.1372.632.105.0677.245.417.311.7765.0663.3593.3422.9826.6133 1.3852.271.4024.6172 1.031.7693 1.3965.1523.3658.473.8977.7127 1.1822.2398.2845.436.5976.436.6956 0 .098.234.4734.5203.8341.2861.3606.5203.7407.5203.8445 0 .1035.1918.4041.4264.6676.7935.8915 1.2579 1.516 1.5481 2.0809.1589.3096.3651.5627.458.5627.093 0 .169.1559.169.3464 0 .1904.0586.348.13.3503.0715.0022.4314.2749.7996.606.3683.3311.739.6021.8238.6021.085 0 .1543.0871.1543.1936s.2147.4507.477.765c.2622.3141.7431.9328 1.0685 1.3747.3254.4419.8327.9274 1.1273 1.0789.2947.1517.6277.4055.7401.5643.1123.1588.522.3934.9105.5214.5454.1797.7062.3207.7062.6192 0 .2563.1315.4192.3902.4842.2146.0538.5391.374.721.7115.1821.3373.3883.6135.4587.6135.1565 0 .7378.5636 2.3745 2.3019.691.7339 1.3252 1.3344 1.4098 1.3344.0845 0 .2494.2308.3667.5138.1172.282.3425.555.5007.605.1582.05.7059.467 1.2172.926.5111.46 1.2894 1.025 1.7296 1.257.44.232 1.0351.689 1.3224 1.017.2872.327.7368.832.9992 1.121.2622.288.4769.585.4769.659 0 .074.1951.135.4336.135s.4336.078.4336.173c0 .095.1195.173.2655.173.1462 0 .3106.117.3654.26.055.143.2038.26.3308.26.1269 0 .4873.233.8006.519.3133.286.672.52.7972.52.3613 0 1.0826.535 1.0826.803 0 .134.2099.324.4664.421.2565.097.573.329.7034.515.1306.186.3268.338.436.338.1093 0 .4366.225.7272.499.3812.359.8844.576 1.8032.778 1.2068.265 1.7923.587 2.7205 1.495.1942.19.4405.345.5475.345.107 0 .7163.234 1.3542.52 1.2522.561 1.6443.626 1.9451.326.1423-.142.3506-.073.7882.26.3271.249.6993.453.8273.453s.3987.156.602.346c.2934.275.625.35 1.6153.365.918.014 1.2462.081 1.2462.252 0 .252 1.1046.626 1.4528.493.1172-.045.5109.042.875.194.4353.182 1.0852.264 1.8986.24.6802-.02 1.3148-.016 1.4101.01.0954.025.2515.027.3469.005.0954-.022.6807-.024 1.3008-.005.8678.027 1.2168.118 1.5158.395.3108.287.6748.373 1.821.43.7879.039 1.7057.172 2.0396.295.3599.133.7482.169.9539.086.5669-.226 1.3528-.179 1.9078.115.2861.152.8666.271 1.2898.265.4232-.007.8689.071.9903.171.1216.101.9459.249 1.832.33.8862.08 2.0494.231 2.5853.335.6737.131 1.1183.134 1.4421.011.6289-.239.7923-.224.7923.072 0 .275 1.2997.544 1.8472.382.1764-.052.75-.112 1.2746-.134.5246-.022 1.1304-.152 1.3462-.29.2314-.147.5926-.21.8809-.152.2688.053.7832-.004 1.1432-.128.7798-.267 2.072-.062 2.6132.416.4224.373 1.1673.516 2.8179.541.6901.011 1.2139.085 1.1639.166-.0499.081.2824.109.7387.063.4561-.046 1.7659-.126 2.9105-.178 1.1447-.052 2.8617-.132 3.8156-.178.9539-.046 1.9684-.073 2.2546-.061.8953.037 1.3585.026 2.3016-.054.5023-.043.9543-.014 1.0033.066.049.079.297.065.551-.031.374-.142 2.285-.121 3.862.043.714.074 1.059-.054 1.209-.447.226-.595.654-.79 1.265-.578.665.232 2.337.052 2.717-.291.165-.149.464-.27.666-.27.201 0 .417-.082.479-.182.067-.109.679-.164 1.527-.138 1.055.033 1.548-.029 1.936-.242 1.069-.588 1.394-.664 2.847-.668 2.158-.005 2.664-.111 3.3-.692.364-.332.676-.48.878-.416.268.085 1.25-.334 1.82-.778.095-.074.447-.191.78-.26.334-.068.851-.272 1.148-.452.334-.203.865-.329 1.388-.329.553-.001 1.027-.121 1.367-.345.286-.19.645-.345.797-.346.152 0 .514-.119.805-.264.291-.145 1.131-.302 1.868-.351 1.334-.087 2.487-.547 3.04-1.212.115-.138.324-.252.465-.252.269 0 .929-.341 1.939-1.002.438-.287.743-.366 1.104-.286.404.088.693-.027 1.512-.6.556-.39 1.13-.709 1.274-.709.446 0 .81-.2.81-.445 0-.327.696-.94 1.068-.94.169 0 .564-.215.878-.476.314-.262.726-.563.916-.668.19-.105.345-.339.346-.52.001-.383.985-.933 1.671-.933.25 0 .552-.117.671-.26.119-.143.4-.26.625-.26.292 0 .44-.124.518-.433.076-.303.227-.433.502-.433.217 0 .491-.117.61-.26.133-.16.514-.259 1-.259.681 0 .91-.107 1.756-.819.535-.45 1.035-.917 1.111-1.038.076-.121.483-.307.905-.413.586-.148.848-.3318 1.117-.786.256-.4339.658-.7309 1.496-1.1063.63-.2823 1.31-.5133 1.51-.5133.602 0 1.647-.8533 2.042-1.6673.203-.4196.509-.8372.68-.9285.17-.0911.359-.3613.419-.6005.08-.3189.211-.424.491-.3941.282.0302.473-.1271.733-.6036.276-.5055.501-.6795 1.047-.8076.382-.0899 1.168-.332 1.746-.5382.908-.3234 1.109-.4781 1.462-1.1245.359-.6559.459-.7309.801-.6012.29.1102.505.058.837-.2026.327-.2564.585-.3208.958-.2389.404.0885.575.0303.822-.2795.172-.2154.507-.5977.746-.8499.238-.2521.741-.802 1.117-1.2221.376-.4201.922-.8485 1.214-.952.441-.1564.546-.3034.623-.8658.123-.8954.236-1.0488.942-1.2817.356-.1171.645-.3496.717-.5754.066-.2083.304-.6204.529-.9158.311-.407.384-.666.303-1.0705-.093-.4601-.021-.6093.519-1.0828.406-.356.626-.7014.626-.9823 0-.2382.187-.6545.415-.9252.412-.4891.863-1.7544 1.055-2.9606.055-.3475.207-.7203.338-.8286.131-.1082.288-.467.35-.7973.071-.3742.3-.7384.608-.9657.4-.2958.517-.5453.613-1.3105.065-.5198.229-1.2097.364-1.5331.136-.3235.246-.8051.245-1.07-.001-.3285.168-.6207.531-.9187.507-.4161.535-.5067.589-1.9048.104-2.7201.687-5.8018 1.204-6.3732.441-.4866.468-1.3605.126-3.9835-.172-1.3163-.183-1.8405-.04-1.9826.106-.1062.193-.4077.193-.6698 0-.2622.084-.6606.186-.8854.22-.4803-.172-1.7999-.911-3.0707-.249-.4286-.505-.974-.569-1.2121-.063-.2381-.179-.5888-.257-.7792-.078-.1905-.227-.9922-.331-1.7818-.109-.835-.299-1.5463-.454-1.7006-.146-.146-.266-.3661-.266-.4894 0-.1231-.156-.4219-.346-.6642-.191-.2421-.347-.6706-.347-.9524 0-.2815-.146-.6978-.323-.925-.178-.2271-.494-.7478-.702-1.1573-.208-.4094-.487-.7858-.619-.8364-.269-.1032-.611-.9588-.611-1.5295 0-.2061-.234-.5986-.52-.8724-.286-.2737-.521-.6756-.521-.8931 0-.2997-.134-.4305-.555-.5392-.419-.1084-.588-.272-.69-.6684-.075-.2887-.294-.6668-.486-.8405-.192-.1737-.35-.3875-.35-.4752 0-.1754-1.084-1.3066-5.069-5.2922-2.906-2.9057-2.963-2.9641-3.632-3.7407-.407-.473-1.735-1.2609-2.615-1.5518-.167-.0552-.304-.2677-.304-.4722 0-.2845-.08-.351-.34-.2831-.188.049-.434-.0234-.548-.1609-.115-.1373-.315-.2085-.447-.1581-.131.0502-.283-.024-.338-.1653-.054-.1413-.192-.2568-.306-.2568-.114 0-.472-.1948-.796-.4329-.323-.2381-.722-.4329-.887-.4329-.165 0-.565-.31-.89-.6888-.471-.5495-.781-.7311-1.531-.8984-.518-.1151-1.127-.3506-1.355-.5233-.227-.1726-.505-.3137-.618-.3137-.113 0-.66-.2324-1.217-.5166-.556-.2839-1.292-.5677-1.636-.6306-.75-.137-1.206-.4287-1.469-.9392-.206-.3981-.947-.8826-2.537-1.6578-1.53-.7461-4.138-2.3065-5.637-3.3735-.763-.5432-1.716-1.0751-2.117-1.182-.401-.107-.777-.2702-.834-.3629-.057-.0926-.323-.1684-.591-.1684-.268 0-.685-.1559-.928-.3464-.242-.1904-.623-.3468-.847-.3473-.223-.0007-.601-.1053-.84-.2327-1.733-.926-2.506-1.3777-2.718-1.5898-.135-.1349-.574-.3314-.975-.4369-.401-.1054-.987-.3413-1.303-.5241-.315-.1827-.713-.3323-.885-.3323-.171 0-1.083-.1856-2.027-.4126-.945-.227-2.342-.5446-3.105-.7057-.763-.1612-1.777-.401-2.254-.5331-.477-.132-1.414-.2836-2.081-.337-2.538-.2024-4.863-.4975-5.021-.637-.091-.0798-.637-.1453-1.214-.1453-1.144-.0002-3.076-.3474-4.171-.7498-.653-.2393-1.351-.3601-3.209-.5548-2.101-.2199-3.763-.4874-4.076-.6557-.19-.1027-.737-.2435-1.214-.3126-.477-.0692-1.257-.2138-1.734-.3212-.799-.1799-8.1853-.335-9.9432-.209Zm1.7292 9.7353c-.2319.193-.6672.3406-1.0042.3406-.3271 0-.8984.1548-1.2697.3439-.8523.4341-1.8436.4604-3.3868.0902-1.5276-.3666-2.8615-.2651-3.9191.298-.6754.3595-1.1339.4424-2.9992.542-1.2109.0646-2.3351.193-2.498.2855-.5496.3119-3.7056.6206-4.7049.4603-.7405-.119-1.0642-.092-1.5234.1265-.3209.1528-.8417.2778-1.1577.2778-.316 0-.8136.1189-1.1056.2646-.4192.2086-.7836.2344-1.7288.1217-1.2692-.1513-2.2017-.0054-2.6757.4189-.1915.1714-.324.1951-.4005.0718-.1644-.2656-1.4917-.2156-2.0014.0753-.2385.1362-.6438.2503-.9007.2537-.2613.0033-.5716.155-.7043.3441-.2745.3913-1.5394.7224-2.2316.5842-.2611-.0521-1.4535.0367-2.6497.1976-1.1961.1609-2.2499.2461-2.3417.1894-.0915-.0564-.2155-.0235-.2756.0733-.0598.0968-.2799.1768-.4889.178-.8831.0048-5.132 1.6358-6.2347 2.3932-.423.2907-.9959.5823-1.2727.6483-.277.0658-.6328.2317-.7908.3683-.2456.2126-2.0655 1.1629-6.7803 3.5405-.5485.2767-.9972.5663-.9972.6435 0 .0774-.1909.2275-.4242.3337-.2335.1061-.7307.4692-1.1051.8069-.3743.3376-.7569.614-.85.614-.0932 0-.8641.4362-1.7132.9692-.8493.5329-1.7782 1.0882-2.0644 1.234-.2862.1458-.7154.4461-.9539.6676-.6476.601-1.877 1.602-3.2798 2.6702-2.6252 1.9993-3.404 2.6523-3.6041 3.022-.1138.21-.5265.5932-.9173.8514-.3909.2582-.851.7001-1.0227.9818-.3627.5955-1.1338 1.4346-2.5204 2.7428-.5994.5655-1.0265 1.1279-1.0874 1.432-.0551.2755-.1682.5429-.2513.5941-.0831.0513-.1511.2405-.1511.4204 0 .1801-.2731.5354-.607.7896-.3338.2542-.607.582-.607.7283 0 .1465-.1909.5162-.4244.8217-.2333.3054-.4761.7615-.5394 1.0136-.0634.252-.1847.501-.2695.5533-.0848.0524-.1542.2426-.1542.4226 0 .1803-.0974.3898-.2168.466-.3321.2123-.6758.9096-.549 1.1144.062.1005-.0523.4058-.2543.6787-.2021.2727-.3673.663-.3673.8673 0 .2043-.2026.7724-.4503 1.2625-.506 1.0015-.5204 1.0509-.8652 2.9688-.1369.7619-.3263 1.5411-.4208 1.7315-.0945.1905-.2093.658-.2551 1.039-.1015.8445-.2749 1.6824-.3878 1.8729-.046.0779-.1094.7792-.1408 1.5584-.1058 2.6141-.2024 3.6621-.4303 4.6631-.1984.872-.1927 1.0325.0465 1.2987.1502.1671.3288.6154.3971.9963.0684.381.2002.839.2928 1.0178.0928.1789.2281.7244.3009 1.2121.0727.4878.2359 1.2535.3628 1.7017.2062.729.1989.8495-.0685 1.1445-.232.256-.2614.4286-.1313.7702.0923.2421.2532.4932.358.5578.1047.0646.1823.4033.1722.7527-.0288 1.0152.5536 2.7405 1.413 4.185.085.1429.2332.4426.3295.6662.0964.2233.3295.4465.518.4957.1886.0494.5037.3495.7002.667.1967.3176.5097.6256.6958.6847.1859.0588.3382.2168.3382.3508s.2341.3645.5203.5122c.4241.2189.5203.378.5203.8601 0 .3252.0855.6441.1901.7085.1044.0646.4428.644.7516 1.2876.3091.6436.9258 1.6481 1.3709 2.2325.4452.5843.8092 1.1365.8092 1.2274 0 .0907.1755.2571.3902.3695.2147.1125.9756.7699 1.691 1.4606 1.755 1.6947 2.8376 2.6659 2.978 2.6715.0639.0026.1678.2384.2305.5241.0628.2857.2087.5195.3238.5195.2397 0 3.0582 2.7895 3.0582 3.0266 0 .2088 1.6481 1.8218 1.8615 1.8218.1259 0 .8316.4775 1.5683 1.0611.7368.5835 1.5738 1.1619 1.8599 1.2852.2862.1231.7893.5028 1.118.8436.3288.3409.7336.6199.8997.6199.1664 0 .5608.239.8766.531.316.293.8056.654 1.0883.803.2825.149.6583.454.8347.678.3342.424 2.3613 1.45 2.8693 1.452.1602.001.5255.13.8117.288.2861.159 1.0666.35 1.7343.427 1.9227.219 2.9284.436 2.9988.647.0359.107.2052.195.3764.195.1712 0 .4044.112.5186.25.1139.137.3132.209.4426.159.1293-.05.4944.027.8111.171.3167.143.927.315 1.3563.382.4292.066.9344.228 1.1226.359.188.13.4835.238.6564.238s.4872.11.6985.245c.2112.135.7813.281 1.2667.324.4855.043 1.0708.195 1.3008.336.6068.374 2.3267.927 3.6266 1.166.6258.115 1.2867.355 1.4853.54.197.183.5248.332.7288.332.4268 0 2.2049.444 2.4943.622.1072.066.3209.133.4749.148.154.016.475.112.7135.213 1.0081.429 2.4225.788 2.6939.684.161-.062 1.251.045 2.4224.238 1.1713.193 2.2458.306 2.3874.251.1419-.054.7163.019 1.2765.162.5604.143 1.448.254 1.9727.247.5246-.008 1.8123.115 2.8616.271 1.1629.174 3.2621.301 5.3765.326 2.9577.036 3.7751-.015 5.5498-.342 2.3084-.425 3.2497-.668 3.9146-1.009.2693-.139 1.4022-.271 2.8617-.335 3.8624-.169 4.3464-.204 4.5414-.324.102-.063 1.109-.156 2.238-.206 1.129-.051 2.248-.141 2.487-.2.238-.059.57-.091.737-.07.167.021.597-.118.954-.311.854-.458 3.22-.89 4.206-.766 1.327.166 2.437.089 3.185-.219.582-.24 1.387-.305 4.272-.34 1.956-.024 4.258-.129 5.117-.233.858-.104 2.029-.191 2.601-.192.572-.002 1.392-.109 1.821-.238.429-.129 1.236-.29 1.792-.359.638-.078 1.135-.248 1.347-.459.184-.183.665-.465 1.069-.625.404-.16 1.125-.6 1.602-.977.897-.709 2.807-1.671 3.32-1.671.16 0 .63-.198 1.044-.44.414-.242.752-.404.752-.36 0 .045.226-.128.502-.382.275-.255.607-.542.737-.639.129-.096.452-.343.716-.547.264-.204.865-.424 1.335-.488.471-.065.947-.228 1.059-.362.112-.135.308-.245.436-.245.129 0 .511-.278.851-.617.34-.3391.85-.6973 1.133-.796.284-.0987.516-.2352.516-.3036 0-.0682.682-.4697 1.515-.8921 1.601-.8109 2.924-2.007 5.638-5.0969 1.246-1.4186 5.626-5.738 6.556-6.4658.285-.223.615-.4199.732-.4378.417-.0632.647-.3078.647-.6877 0-.3065.159-.4316.779-.6146.429-.1262 1.112-.5328 1.518-.9035.406-.3707.833-.6739.949-.6739.116 0 .294-.1559.397-.3464.102-.1904.29-.3463.418-.3463.257 0 1.836-1.766 1.836-2.0531 0-.0989.515-.7098 1.145-1.3577.629-.6478 1.246-1.4116 1.372-1.6973.125-.2857.466-.8199.758-1.187.293-.3673.582-.9333.643-1.2578.061-.3247.204-.6476.318-.7177.114-.0702.378-.4977.588-.95.209-.4523.459-.8225.553-.8225.095 0 .173-.1437.173-.3191 0-.1756.157-.7751.349-1.3321.192-.5571.389-1.3276.437-1.7124.049-.3845.243-.9953.432-1.3572.209-.4014.343-.9975.343-1.5296 0-.4795.084-1.0295.188-1.2222.103-.1925.229-1.0251.279-1.85.05-.8249.175-1.6556.278-1.846.357-.6639.548-6.5411.393-12.121-.021-.7645-.366-1.7008-1.118-3.0303-.08-.1429-.357-.6883-.614-1.2121-.258-.5238-.678-1.2731-.935-1.6651-1.065-1.6297-1.486-2.2354-1.704-2.4528-.126-.1262-.522-.6734-.878-1.2159-.82-1.2451-2.301-3.1504-2.452-3.1523-.063-.0009-.465-.3619-.895-.8024-1.586-1.628-2.339-2.313-2.542-2.313-.114 0-.35-.1794-.523-.3988-.174-.2194-.453-.4508-.62-.5141-.167-.0634-.304-.1848-.304-.2696 0-.0851-.489-.4703-1.087-.8563-.597-.386-1.234-.8644-1.414-1.0632-.18-.1986-.405-.3612-.501-.3612-.095 0-.454-.2144-.796-.4762-.908-.6943-1.749-1.2548-1.889-1.2592-.068-.002-.318-.161-.556-.353-.239-.1921-1.019-.7318-1.735-1.1995-.715-.4679-1.399-1.0102-1.519-1.2055-.12-.1952-.322-.355-.45-.355-.127 0-.376-.1595-.553-.3544-.176-.1948-.598-.4724-.937-.6167-.339-.1442-.837-.3745-1.108-.5116-.27-.1372-.816-.2986-1.214-.3588-.397-.0601-.839-.203-.983-.3174-.143-.1146-.533-.3119-.867-.4385-.334-.1265-.724-.3206-.867-.4315-.431-.3336-3.768-2.1658-3.945-2.1658-.09 0-.394-.1145-.674-.2542-.565-.2814-.688-.288-3.518-.1844-1.763.0644-2.026.0355-2.408-.2641-.235-.1849-.575-.3363-.755-.3363-.426 0-3.196-1.3017-3.907-1.8359-.304-.2284-.6-.4151-.658-.4151-.058 0-.606-.2338-1.218-.5195-.612-.2857-1.192-.5194-1.288-.5194-.096 0-.782-.3806-1.525-.8457-1.734-1.0866-2.382-1.2147-3.084-.6096-.865.7462-1.423.9751-1.838.7535-.199-.1062-.705-.1767-1.126-.1568-1.817.0858-5.16-.2114-5.881-.5225-.191-.0823-.649-.1916-1.019-.2428-.369-.0511-.799-.2045-.954-.3408-.155-.1363-.633-.3302-1.062-.4308-1.04-.2438-3.44-1.0499-4.016-1.3484-.253-.1312-.622-.2388-.82-.2388-.198 0-.654-.1167-1.014-.2593-.904-.3587-3.429-.6324-5.562-.603-1.275.0177-1.8961-.0452-2.1682-.2189-.699-.4465-3.003-.8978-3.174-.6214-.1454.2346-1.1688.154-1.5328-.121-.4213-.3181-.4425-.316-.94.0978ZM172.092 82.8c-.535.0966-1.214.7028-1.214 1.085 0 .3669-1.151 1.3869-1.565 1.3869-.382 0-1.557 1.0655-1.557 1.4123 0 .316-1.49 1.7525-2.167 2.09-.888.4421-1.704.6999-2.48.7829-.563.0604-.736.1494-.71.3648.058.4786-.195.8585-.815 1.2235-.346.2037-.591.4865-.591.6802 0 .1823-.242.5676-.538.8559-.662.6471-.903 1.7678-.379 1.7678.411 0 .743-.323.743-.7228 0-.169.243-.4327.54-.5859.297-.1534.785-.5051 1.084-.7817 1.444-1.3347 2.909-2.4117 3.281-2.4117.366 0 2.205-1.3712 2.35-1.7529.032-.0834.319-.1518.638-.1518.538 0 1.126-.3571 1.126-.6831 0-.216 1.285-1.568 1.491-1.568.101 0 .519-.4639.931-1.0308.411-.5671.835-1.015.941-.9956.225.0412.152-.56-.106-.874-.182-.2211-.248-.2271-1.003-.091Z" clip-rule="evenodd"/></svg>
