<svg xmlns="http://www.w3.org/2000/svg" width="93" height="60" fill="none" viewBox="0 0 93 60"><path fill="#000" fill-rule="evenodd" d="M45.9109.023c-.3186.0229-.437.0903-.7804.4441-.6007.619-.7605.6493-2.7765.526-.9373-.0573-1.9968-.1214-2.3545-.1422-.708-.0414-1.6988.105-1.911.2824-.0732.0613-.3137.1911-.5343.2886-.3568.1576-.4523.1661-.8641.0767-.8637-.1877-1.8588-.0818-2.578.2744-1.0288.5097-3.0446.7114-4.6962.4698-.3012-.044-.5574-.0058-1.084.1615-.6561.2085-1.5557.5687-1.8807.753-.0828.047-.1895.0854-.2371.0854s-.3298.1176-.6273.2615c-.2974.1439-.6784.2995-.8468.346-.1684.0465-.4037.1626-.5229.258-.7458.5969-1.121.866-1.2074.866-.0542 0-.296.1559-.5373.3464-.2413.1905-.4862.3463-.5441.3463-.0579 0-.2376.1364-.3995.303-.1618.1667-.3382.303-.3921.303-.0538 0-.1896.0974-.3016.2165-.112.119-.2532.2164-.3137.2164-.0606 0-.1611.0723-.2233.1606-.0624.0884-.3475.2912-.6337.4507-.2861.1595-.7349.4276-.9972.5956-.5785.3707-1.0917.6113-1.3036.6113-.0865 0-.3362.1364-.5549.303-.2187.1667-.4363.303-.4836.303-.0473 0-.086.0537-.086.1194 0 .1118-.2234.2308-.6665.355-.1042.0293-.4164.2646-.6937.5228-.2773.2582-.5493.4707-.6044.4721-.0988.0026-.645.4158-1.0732.8121-.1208.1118-.316.2537-.4336.3155-.1178.0618-.2453.1651-.2834.2296-.0382.0645-.1102.1172-.1601.1172-.0499 0-.2681.1559-.4848.3463-.2168.1905-.4432.3463-.503.3463-.0599 0-.2205.1266-.3568.2814-.2832.3214-1.162.9977-1.5468 1.1905-.1426.0714-.4742.3408-.737.5988a37.579 37.579 0 0 1-.9665.9091c-.567.5108-1.636 1.7183-1.636 1.848 0 .0488-.0603.1118-.134.14-.0737.0283-.1913.1883-.2614.3556-.07.1674-.1631.3043-.207.3043-.0439 0-.1072.0876-.141.1948-.0783.249-.533 1.1819-.8757 1.7965-.146.2619-.3731.6709-.5046.909-.1315.2381-.2733.4699-.3152.5152-.0418.0452-.076.1365-.076.2027 0 .0664-.078.2197-.1734.3407-.0954.1212-.1734.2941-.1734.3844 0 .0903-.135.442-.3.7816-.1649.3395-.2793.6506-.254.6914.0252.0408-.0349.2047-.1337.3642-.0986.1595-.1795.364-.1795.4545 0 .0905-.0975.3078-.2168.483-.1192.1752-.2168.3581-.2168.4064 0 .0483-.1456.3913-.3238.7622-.178.3708-.3297.7522-.337.8474-.0072.0952-.0603.3095-.1179.4762-.2198.6357-.2716.833-.3067 1.1688-.1123 1.0738-.22 1.7938-.2905 1.9416-.144.3019.0173 1.9762.23 2.3873.3246.6277.4522.9337.4522 1.0849 0 .0821.0585.1978.13.2571.0716.0593.1302.2185.1302.3538 0 .1522.0621.2793.1628.3332.216.1153.2832.5095.1357.7944-.1062.2051-.1007.2453.0515.383.1283.1158.1703.2666.1703.6114 0 .2517.0415.4833.0923.5146.0508.0314.0803.1716.0656.3117-.0147.14.0162.2823.0686.316.0524.0339.1224.2085.1555.3882.033.1797.171.4914.3066.6927.1355.2012.3086.5155.3847.6982.076.1829.2364.4488.3563.5911.1199.1422.218.2988.218.3478 0 .049.117.2367.2601.417.1431.1804.2602.3704.2602.4223 0 .0517.0959.202.2132.3338.3967.4457.629.758.774 1.0404.0795.1548.1826.2814.229.2814.0465 0 .0845.0779.0845.1732 0 .0952.0293.174.065.1751.0358.0012.2157.1375.3998.3031.1842.1655.3695.301.412.301.0424 0 .0771.0435.0771.0968 0 .0532.1074.2253.2385.3825.1311.157.3716.4664.5343.6873.1626.221.4163.4637.5636.5395.1473.0758.3138.2028.37.2822.0562.0794.261.1967.4553.2607.2727.0898.3531.1603.3531.3096 0 .1281.0657.2096.1951.242.1073.027.2695.187.3605.3558.091.1686.1942.3067.2294.3067.0782 0 .3689.2818 1.1872 1.151.3455.3669.6626.6672.7049.6672.0423 0 .1247.1156.1833.2569.0587.1412.1713.2773.2504.3024.0791.025.3529.2335.6086.4633.2555.2297.6447.5125.8648.6283.22.1158.5175.3445.6612.5084.1436.1638.3684.416.4996.5604.1311.1444.2385.2928.2385.3298 0 .037.0975.0673.2168.0673.1192 0 .2167.039.2167.0866 0 .0476.0598.0866.1328.0866.0731 0 .1553.0584.1827.1298.0275.0715.1019.1299.1654.1299.0635 0 .2437.1169.4003.2597.1567.1429.336.2598.3986.2598.1806 0 .5413.2677.5413.4017 0 .0671.1049.1619.2332.2106.1282.0486.2865.1645.3517.2575.0653.093.1634.1691.218.1691.0546 0 .2183.1121.3636.2491.1906.1796.4422.2881.9016.3892.6034.1325.8961.2934 1.3602.7475.0972.095.2203.1726.2738.1726.0535 0 .3582.1169.6771.2598.6261.2805.8222.3133.9725.1632.0712-.0711.1754-.0367.3942.1298.1635.1245.3496.2264.4136.2264s.1994.078.301.1732c.1467.1377.3125.1751.8077.1827.459.007.623.0401.623.1258 0 .1258.5523.3131.7265.2464.0586-.0225.2554.0213.4374.0972.2177.0908.5426.1319.9493.1199.3401-.0099.6574-.0078.7051.0049.0477.0125.1258.0137.1735.0026.0477-.0111.3403-.0122.6503-.0025.434.0136.6084.059.7579.1974.1554.1438.3375.1867.9106.2149.3939.0195.8528.086 1.0198.1478.1799.0666.3741.0842.4769.0431.2835-.1133.6764-.0897.9539.0574.1431.0759.4333.1354.6449.1323.2116-.0033.4344.0354.4951.0857.0608.0503.473.1245.916.1648.4432.0403 1.0248.1157 1.2927.1676.3368.0653.5592.067.7211.0056.3144-.1194.3961-.1121.3961.0357 0 .1377.6499.2724.9236.1914.0882-.026.375-.0562.6373-.0672.2623-.0109.5652-.0761.6731-.145.1157-.0737.2963-.105.4404-.0762.1344.0268.3916-.0018.5717-.0636.3898-.1338 1.036-.0311 1.3065.2078.2113.1865.5837.258 1.409.2706.3451.0052.6069.0426.582.0828-.025.0404.1411.0546.3693.0316.2281-.023.8829-.0631 1.4553-.0892a909.8864 909.8864 0 0 0 1.9077-.0887c.477-.0229.9843-.0366 1.1274-.0306.4476.0187.6792.0132 1.1508-.0271.2513-.0215.4771-.0067.5016.033.0246.0397.1486.0327.2755-.0156.1872-.071 1.1424-.0604 1.931.0215.3571.0371.5294-.0266.6043-.2232.1133-.2976.3274-.3953.6328-.289.3323.1157 1.1686.026 1.3585-.1455.0823-.0744.232-.1353.3328-.1353.1007 0 .2085-.0408.2394-.0908.0337-.0545.3396-.0821.7639-.069.5272.0163.7739-.0145.9678-.1211.5345-.2938.6972-.3319 1.4236-.3338 1.0788-.0026 1.3317-.0557 1.65-.346.1821-.1661.3379-.2399.4387-.208.134.0424.625-.1673.9102-.3889.0477-.0371.2233-.0956.3902-.13.167-.0344.4252-.1363.5739-.2264.167-.1012.4324-.1641.6938-.1645.2765-.0003.5135-.0601.6835-.1725.143-.0946.3224-.1723.3985-.1726.0761-.0003.2573-.0598.4025-.1321.1454-.0724.5656-.1513.9341-.1755.6671-.0437 1.2437-.2736 1.52-.6059.0576-.0693.1622-.126.2324-.126.1345 0 .4644-.1706.9695-.501.2193-.1435.3714-.183.5522-.1433.2017.0442.3464-.0132.7557-.2998.2784-.195.5651-.3546.6371-.3546.2233 0 .4052-.0998.4052-.2223 0-.1637.348-.4703.5337-.4703.0847 0 .2823-.1072.4391-.2381.1569-.131.3629-.2812.4579-.3339.095-.0526.1729-.1695.1732-.2597.0005-.1917.4925-.4666.8353-.4668.1253-.0001.2764-.0586.3358-.1301.0594-.0714.1999-.1298.3124-.1298.1459 0 .2202-.0621.2589-.2165.0381-.1513.1137-.2164.2513-.2164.1082 0 .2453-.0585.3047-.1299.0668-.0803.2573-.1299.4999-.1299.3409 0 .4553-.0532.8782-.4092.2674-.225.5174-.4587.5555-.5192.0382-.0606.2417-.1534.4524-.2064.2932-.0738.4242-.1659.5584-.393.1282-.217.329-.3655.7481-.5532.315-.1411.6549-.2566.7551-.2566.3012 0 .8236-.4266 1.0209-.8337.1017-.2097.2547-.4186.34-.4642.0853-.0455.1796-.1807.2096-.3002.0402-.1595.1056-.2121.2454-.1971.141.0151.2364-.0635.3665-.3018.138-.2527.2508-.3397.5234-.4038.1911-.0449.5842-.166.8734-.2691.4536-.1617.5542-.239.731-.5622.1794-.328.2293-.3655.4003-.3006.145.055.2527.029.4186-.1013.1633-.1283.2923-.1605.4788-.1195.202.0442.2878.0151.4113-.1397.0858-.1078.2536-.2989.3728-.425.1192-.126.3705-.401.5585-.611.1879-.2101.4611-.4243.6071-.4761.2202-.0781.2731-.1516.3116-.4329.0613-.4476.1177-.5244.471-.6408.1776-.0585.3224-.1748.3581-.2877.0331-.1042.1521-.3102.2648-.4579.1552-.2035.1918-.333.1512-.5353-.0461-.23-.0102-.3046.2597-.5413.2031-.178.3132-.3508.3132-.4912 0-.1191.0933-.3273.2073-.4626.2061-.2446.4316-.8772.5275-1.4803.0277-.1738.1037-.3602.169-.4143.0653-.0541.1441-.2335.1751-.3987.0352-.1871.1497-.3691.3038-.4828.2003-.1479.2587-.2727.3066-.6553.0325-.2599.1144-.6048.1822-.7665.0676-.1617.1227-.4025.1222-.535-.0005-.1642.0839-.3104.2654-.4594.2536-.208.2675-.2533.2945-.9523.0524-1.3601.3436-2.9009.6024-3.1867.2202-.2432.234-.6802.0627-1.9917-.0859-.6582-.0913-.9202-.0201-.9913.0531-.0531.0967-.2038.0967-.3349 0-.1311.0419-.3303.0932-.4427.1096-.2402-.0862-.9-.4557-1.5354-.1246-.2143-.2525-.487-.2843-.606-.0319-.1191-.0898-.2944-.1289-.3896-.039-.0953-.1133-.4961-.1652-.8909-.0548-.4175-.1498-.7732-.227-.8503-.0731-.073-.1329-.183-.1329-.2447 0-.0615-.078-.211-.1734-.3321-.0954-.121-.1734-.3353-.1734-.4762 0-.1408-.0727-.3489-.1616-.4625-.0888-.1136-.2466-.3739-.3508-.5787-.104-.2046-.2433-.3929-.3093-.4181-.1347-.0516-.3057-.4794-.3057-.7648 0-.103-.117-.2993-.2601-.4362-.1431-.1369-.2602-.3378-.2602-.4466 0-.1498-.0673-.2152-.2775-.2696-.2095-.0542-.294-.136-.3454-.3342-.0375-.1443-.1469-.3334-.2429-.4202-.0961-.0868-.1748-.1938-.1748-.2376 0-.0877-.5419-.6533-2.5347-2.6461-1.4531-1.4529-1.4814-1.482-1.8159-1.8703-.2037-.2366-.8676-.6305-1.3076-.776-.0836-.0276-.1518-.1338-.1518-.2361 0-.1422-.0401-.1755-.1702-.1415-.0937.0245-.217-.0117-.2741-.0804-.0571-.0687-.1575-.1043-.2232-.0791-.0658.0251-.1417-.012-.1689-.0827-.0271-.0706-.0961-.1284-.1533-.1284-.0571 0-.2361-.0974-.3978-.2164-.1616-.1191-.3612-.2165-.4436-.2165-.0825 0-.2827-.1549-.4451-.3444-.2356-.2747-.3903-.3655-.7656-.4491-.2586-.0576-.5633-.1754-.6771-.2617-.1137-.0863-.2529-.1569-.3093-.1569-.0563 0-.33-.1162-.6082-.2582-.2782-.142-.6463-.284-.818-.3154-.3751-.0684-.6032-.2143-.7348-.4695-.1027-.199-.4733-.4413-1.2684-.829-.7652-.373-2.0688-1.1532-2.8183-1.6867-.3816-.2716-.858-.5375-1.0587-.591-.2006-.0535-.3883-.1351-.417-.1814-.0286-.0464-.1616-.0843-.2954-.0843-.1339 0-.3426-.0779-.4639-.1731-.1212-.0953-.3118-.1734-.4236-.1737-.1117-.0004-.3007-.0526-.4199-.1164-.8669-.463-1.253-.6888-1.3592-.7948-.0675-.0675-.2868-.1658-.4874-.2185s-.4937-.1706-.6514-.262c-.1578-.0914-.3569-.1662-.4425-.1662-.0856 0-.5419-.0928-1.0139-.2063-.4721-.1135-1.1705-.2723-1.5521-.3528-.3816-.0806-.8888-.2005-1.1273-.2666-.2385-.066-.7068-.1418-1.0406-.1685-1.2688-.1012-2.4312-.2487-2.5105-.3185-.0453-.04-.3185-.0727-.607-.0727-.572 0-1.5377-.1736-2.0855-.3748-.3261-.1197-.6754-.1801-1.6043-.2774-1.0505-.11-1.8814-.2438-2.0378-.3279-.0954-.0513-.3686-.1217-.6071-.1563-.2384-.0346-.6287-.1069-.8671-.1606-.3994-.09-4.0926-.1675-4.9716-.1045Zm.8646 4.8675c-.116.0966-.3336.1703-.5021.1703-.1636 0-.4492.0774-.6349.172-.4261.217-.9218.2302-1.6934.045-.7638-.1832-1.4307-.1325-1.9595.1491-.3377.1797-.567.2212-1.4996.271-.6055.0323-1.1676.0965-1.249.1428-.2748.1559-1.8528.3102-2.3524.23-.3703-.0594-.5321-.0459-.7618.0634-.1604.0763-.4208.1388-.5788.1388-.158 0-.4068.0595-.5528.1323-.2096.1044-.3918.1173-.8644.0609-.6346-.0757-1.1009-.0027-1.3379.2094-.0957.0857-.162.0976-.2002.036-.0822-.1329-.7459-.1078-1.0007.0376-.1192.068-.3219.1251-.4503.1269-.1307.0016-.2858.0774-.3522.172-.1373.1957-.7697.3612-1.1158.2921-.1306-.026-.7267.0184-1.3248.0988s-1.125.123-1.1709.0947c-.0458-.0282-.1078-.0118-.1378.0366-.0299.0484-.1399.0884-.2444.089-.4416.0025-2.5661.818-3.1174 1.1966-.2115.1454-.4979.2912-.6363.3242-.1385.0329-.3165.1158-.3955.1842-.1228.1063-1.0327.5814-3.3901 1.7702-.2743.1384-.4986.2831-.4986.3217 0 .0387-.0955.1138-.2121.1669-.1167.0531-.3653.2346-.5526.4034-.1871.1689-.3784.307-.425.307-.0465 0-.432.2181-.8566.4846-.4246.2665-.8891.5442-1.0321.6171-.1431.0729-.3577.223-.477.3337-.3238.3005-.9385.8011-1.6399 1.3352-1.3126.9996-1.702 1.3261-1.802 1.5109-.0569.1051-.2633.2967-.4587.4257-.1955.1291-.4255.3501-.5114.4909-.1813.2978-.5668.7173-1.2601 1.3714-.2997.2828-.5133.564-.5438.7161-.0275.1377-.084.2714-.1256.297-.0415.0256-.0755.1203-.0755.2102 0 .0901-.1366.2677-.3035.3948-.167.1271-.3035.291-.3035.3642 0 .0732-.0955.2581-.2122.4108s-.238.3808-.2697.5068c-.0318.126-.0924.2505-.1348.2766-.0424.0263-.077.1213-.077.2114s-.0488.1949-.1085.233c-.166.1061-.338.4547-.2745.5572.031.0502-.0261.2028-.1272.3393-.101.1363-.1836.3315-.1836.4337 0 .1021-.1013.3862-.2251.6312-.253.5008-.2603.5254-.4327 1.4844-.0684.3809-.163.7705-.2103.8658-.0473.0952-.1047.329-.1276.5194-.0507.4223-.1374.8412-.1939.9365-.023.0389-.0547.3896-.0704.7792-.053 1.3071-.1012 1.831-.2152 2.3315-.0992.4361-.0963.5163.0233.6494.075.0835.1644.3077.1986.4982.0341.1904.1.4194.1463.5089.0464.0894.114.3621.1505.606.0363.2439.118.6268.1814.8508.1031.3645.0995.4248-.0342.5723-.116.128-.1307.2143-.0657.3851.0461.1211.1266.2466.179.2789.0524.0323.0911.2016.0861.3763-.0144.5077.2768 1.3703.7065 2.0926.0425.0714.1166.2213.1647.333.0483.1117.1648.2233.259.2479.0943.0247.2519.1747.3502.3335.0983.1588.2548.3128.3479.3423.093.0295.169.1084.169.1754 0 .0671.1171.1823.2602.2561.212.1095.2602.189.2602.4301 0 .1626.0427.3221.095.3543.0522.0323.2214.3219.3758.6438.1546.3218.463.824.6854 1.1162.2226.2921.4047.5682.4047.6137 0 .0454.0877.1286.1951.1847.1073.0563.4878.385.8455.7303.8774.8474 1.4187 1.333 1.489 1.3358.0319.0013.0838.1192.1152.2621.0314.1428.1043.2597.1619.2597.1199 0 1.5291 1.3948 1.5291 1.5133 0 .1044.8241.9109.9307.9109.063 0 .4158.2388.7842.5305.3684.2918.7869.581.93.6426.143.0616.3946.2515.5589.4218.1645.1704.3668.3098.4499.3098.0832 0 .2804.1197.4383.2659.158.1463.4028.3269.5441.4014.1413.0745.3292.2271.4174.3391.1671.212 1.1807.7248 1.4346.7257.0802.0004.2628.0653.4059.1443.1431.0792.5333.175.8672.2131.9613.1097 1.4642.2183 1.4994.3237.0179.0537.1026.0976.1881.0976.0856 0 .2023.0561.2593.1248.057.0685.1566.1044.2213.0795.0647-.0247.2473.0137.4056.0855.1583.0717.4635.1576.6781.1909.2147.0332.4673.114.5613.1795.094.0654.2418.119.3283.119.0864 0 .2436.0552.3492.1227s.3906.1404.6334.1621c.2427.0215.5353.0972.6503.168.3035.1868 1.1634.4633 1.8134.5829.3128.0575.6433.1776.7426.2699.0985.0914.2624.1662.3644.1662.2134 0 1.1024.2217 1.2472.3109.0536.0332.1604.0665.2374.0742.077.0078.2375.0556.3567.1064.5041.2144 1.2113.3939 1.347.3419.0805-.0308.6255.0227 1.2112.119.5857.0963 1.1229.1528 1.1937.1256.071-.0271.3582.0092.6383.0807.2801.0715.724.127.9863.1235.2623-.0036.9062.0576 1.4308.1359.5814.0869 1.6311.1505 2.6882.163 1.4789.0176 1.8876-.0076 2.775-.171 1.1542-.2126 1.6248-.334 1.9573-.5047.1346-.0693.7011-.1355 1.4308-.1674 1.931-.0847 2.1732-.1019 2.2709-.1623.0508-.0313.5543-.0777 1.1189-.1028.5646-.0253 1.1241-.0703 1.2434-.1.1192-.0297.2851-.0454.3687-.0349.0835.0106.2981-.0593.4769-.1554.4269-.2293 1.6101-.4451 2.1027-.3834.6636.083 1.2186.0449 1.5926-.1095.291-.12.6935-.1521 2.1363-.17.9777-.012 2.1289-.0645 2.5581-.1164.4293-.052 1.0146-.0952 1.3008-.0961.2861-.0009.6959-.0544.9105-.1189.2146-.0644.6178-.1451.8959-.1793.319-.0392.5677-.1239.6733-.2294.0921-.0919.3327-.2326.5348-.3127.2021-.08.5625-.2998.801-.4884.4485-.3548 1.4036-.8356 1.6598-.8356.0803 0 .3153-.099.5222-.22.2069-.1211.3761-.202.3761-.1799 0 .0222.1128-.0639.2506-.1911.1377-.1273.3036-.271.3685-.3194.0649-.0483.2261-.1714.3582-.2734.132-.1021.4325-.2121.6677-.2444.2352-.0322.4733-.1137.5292-.181.0559-.0673.1542-.1223.2183-.1223.0641 0 .2555-.1388.4254-.3084s.4248-.3488.5666-.3981c.1417-.0494.2577-.1176.2577-.1518 0-.0341.341-.2349.7579-.446.8002-.4055 1.4617-1.0036 2.8187-2.5485.6231-.7093 2.813-2.869 3.2781-3.2329.1426-.1115.3073-.21.366-.2189.2085-.0316.3236-.1539.3236-.3439 0-.1532.0793-.2157.3895-.3072.2142-.0632.5556-.2664.7587-.4518.2031-.1854.4167-.337.4746-.337.0581 0 .1472-.0779.1983-.1731.051-.0953.1452-.1732.2093-.1732.1283 0 .918-.883.918-1.0265 0-.0495.2575-.3549.5722-.6789.3148-.3239.6234-.7058.686-.8487.0625-.1428.2331-.4099.3793-.5934.1463-.1837.2908-.4667.3212-.629.0306-.1623.1021-.3238.1591-.3588.0569-.0351.1892-.2489.294-.475.1048-.2261.2294-.4112.2768-.4112.0475 0 .0863-.0719.0863-.1596 0-.0878.0786-.3875.1745-.6661.096-.2785.1943-.6638.2185-.8561.0243-.1923.1213-.4977.2158-.6786.1047-.2007.1717-.4988.1717-.7649 0-.2397.0422-.5147.0939-.611.0516-.0963.1145-.5126.1395-.9251.0252-.4124.0877-.8277.139-.923.1788-.3319.2741-3.2705.1966-6.0605-.0106-.3822-.1832-.8503-.5589-1.5151-.0403-.0714-.1786-.3442-.3073-.606-.1288-.2619-.3389-.6366-.4671-.8326-.5327-.8149-.7432-1.1177-.8519-1.2264-.0633-.0631-.2611-.3367-.4395-.6079-.4096-.6226-1.1505-1.5752-1.2258-1.5762-.0314-.0004-.2327-.1809-.4473-.4012-.7932-.814-1.1696-1.1565-1.271-1.1565-.0571 0-.175-.0897-.2619-.1994-.087-.1097-.2264-.2254-.3099-.2571-.0835-.0317-.1517-.0923-.1517-.1348 0-.0425-.2446-.2351-.5435-.4281-.2989-.193-.6171-.4322-.7072-.5316-.09-.0993-.2027-.1806-.2505-.1806-.0477 0-.2268-.1072-.3981-.2381-.4541-.3472-.8745-.6274-.9445-.6296-.0337-.001-.1588-.0805-.278-.1765-.1193-.096-.5095-.3659-.8672-.5997-.3577-.234-.6995-.5051-.7595-.6028-.0601-.0976-.1613-.1775-.225-.1775-.0638 0-.1883-.0797-.2765-.1772-.0884-.0974-.2993-.2362-.4688-.3083-.1694-.0721-.4186-.1873-.5538-.2559-.1351-.0685-.4083-.1492-.607-.1794-.1987-.03-.4198-.1014-.4914-.1587-.0715-.0573-.2666-.1559-.4335-.2192-.167-.0633-.3621-.1603-.4336-.2157-.2157-.1669-1.8843-1.083-1.9725-1.083-.0452 0-.1969-.0572-.3372-.127-.2826-.1407-.3439-.144-1.7587-.0923-.8817.0322-1.0134.0178-1.2041-.132-.1178-.0925-.2876-.1681-.3776-.1681-.213 0-1.5981-.651-1.9535-.918-.1519-.1142-.2998-.2075-.3288-.2075-.0291 0-.3032-.117-.6092-.2598-.3061-.1428-.5958-.2597-.6439-.2597-.0481 0-.3912-.1903-.7624-.4229-.8671-.5433-1.1913-.6073-1.5421-.3047-.4325.373-.7117.4875-.9191.3767-.0993-.0531-.3525-.0883-.5629-.0784-.9084.0429-2.5802-.1057-2.9406-.2613-.0954-.0411-.3245-.0957-.5093-.1213-.1848-.0256-.3995-.1023-.477-.1704-.0775-.0682-.3166-.1652-.5312-.2155-.5198-.1218-1.7202-.5249-2.0078-.6741-.1267-.0657-.3113-.1194-.4102-.1194-.099 0-.3271-.0584-.507-.1297-.452-.1793-1.7143-.3162-2.7811-.3015-.6374.0088-.9479-.0226-1.084-.1094-.3495-.2233-1.5015-.449-1.587-.3108-.0727.1174-.5844.077-.7664-.0605-.2106-.159-.2212-.158-.47.049ZM86.0461 41.4c-.2677.0483-.607.3514-.607.5425 0 .1834-.5756.6935-.7826.6935-.1911 0-.7783.5327-.7783.7061 0 .158-.745.8763-1.0839 1.045-.4438.2211-.852.35-1.2397.3914-.2814.0303-.3682.0748-.3552.1825.0289.2393-.0976.4292-.4073.6117-.1729.1018-.2958.2432-.2958.3401 0 .0912-.1209.2838-.2687.428-.3313.3235-.4514.8838-.1894.8838.2055 0 .3713-.1614.3713-.3613 0-.0845.1215-.2164.27-.293.1485-.0767.3923-.2526.542-.3908.722-.6674 1.4546-1.2059 1.6404-1.2059.1832 0 1.1027-.6856 1.1753-.8764.0159-.0418.1594-.076.319-.076.2686 0 .5626-.1785.5626-.3415 0-.108.6429-.784.7457-.784.0503 0 .2597-.2319.4654-.5154s.4174-.5075.4704-.4978c.1127.0206.0764-.28-.0527-.437-.091-.1105-.1242-.1136-.5015-.0455Z" clip-rule="evenodd"/><path fill="#fff" fill-rule="evenodd" d="M41.2453 13.077c-.1523.1472-1.1164.2987-1.9468.3059-.9099.0079-1.318.1029-2.1912.5098-.4931.2298-.6151.3312-.7631.6345-.0969.1985-.2328.4079-.3019.4652-.2417.2002-.1479.4991.2428.7742.2027.1427.5442.4291.7588.6362.2146.2073.4975.4424.6287.5224.1312.08.2385.205.2385.2778s.1144.1722.2544.221c.14.0486.3142.1795.3872.2908.0729.1111.2721.2481.4425.3043.2672.088.35.1874.6015.722.302.6422.3145.728.4367 3.0142.017.3169.088.6675.158.7792.2078.3319.2311.6168.0764.9354-.1317.2712-.1988.3105-.7091.4161-.5838.1207-1.6024.0769-1.6951-.073-.0273-.0439-.1424-.0798-.256-.0798s-.2284-.0351-.2549-.0781c-.0627-.1011-1.0206-.2217-1.5246-.1918-.2858.0168-.4514-.0236-.6116-.1494-.1208-.0949-.3628-.1993-.5377-.2321-.3823-.0715-1.1036-.5108-1.1036-.6719 0-.0633-.2146-.3214-.4769-.5737-.2623-.2522-.477-.5084-.477-.5692 0-.0609-.1365-.2146-.3035-.3417-.1669-.1271-.3035-.2975-.3035-.3785 0-.1445-.3753-.7238-.8464-1.3064-.1306-.1616-.4479-.4343-.705-.6061-1.2526-.8367-1.4471-.9583-1.5353-.9599-.0522-.0009-.1656-.0796-.2519-.1749-.0862-.0952-.2462-.1731-.3552-.1731-.109 0-.2231-.0402-.2535-.0894-.0305-.0491-.3438-.2279-.6965-.3974-.5033-.2417-.7397-.3059-1.0988-.2984-1.4303.03-1.5535.0221-1.6979-.1085-.2731-.2467-.6624-.3305-1.7373-.3738-.9505-.0384-1.1117-.0235-1.4456.1331-.3798.1783-.7598.2591-1.3796.2932-.1868.0103-.3559.0674-.3758.1269-.0198.0596-.1307.1082-.2464.1082-.1155 0-.4147.1021-.6647.2269a65.3988 65.3988 0 0 1-.8411.4112c-.2125.1015-.5214.3162-.6864.4772-.1651.1612-.5764.4187-.9144.5725-.5133.2336-.6319.3277-.7216.5729-.0605.1657-.2209.3576-.3685.4408-.1911.108-.2613.2113-.2613.3851 0 .3083.4082.896.6223.896.0908 0 .327.0826.525.1833.5181.264 1.3627.3467 1.5927.1561.0586-.0486.2759-.0848.4827-.0805.2069.0043.5557-.0176.7753-.0487.227-.0322.4716-.0179.5671.033.177.0947.2024.1381.6412 1.0988.1523.3333.3177.6932.3675.7997.05.1064.2309.2652.402.3527.1711.0876.3474.2387.3918.3358.0443.0972.2893.328.5446.513.4955.3592 1.2517.5544 1.9094.493.5791-.0541.6647-.0539 1.2376.0032.8728.0869 1.4206.1991 1.4534.2977.0165.0494.1835.3087.3712.576.4645.6622.4864.8096.1709 1.1527-.1423.1548-.2941.2813-.3374.2813-.0433 0-.0995.0542-.1249.1204-.0852.2217-.6132.4161-1.203.4429-.3192.0145-.6314.059-.6937.0989-.2807.1796-.9079.2718-1.3545.1992-.2537-.0412-1.0929-.0506-1.8647-.021-.772.0296-1.5987.0388-1.8371.0205-.2385-.0184-1.136-.0346-1.9945-.0359-1.2554-.0019-1.6392.0262-1.9612.144-.3903.143-.8595.5301-1.0317.8513-.1104.2062-.111.6905-.0006.6905.0467 0 .1597.1462.2509.3247.0913.1786.2482.3989.3487.4896.1004.0907.1826.2336.1826.3175s.0292.1654.065.1814c.2272.1007.7518 1.7588.6653 2.1027-.0286.1139.0117.3222.0926.4783.216.4171.201 1.4297-.0355 2.3828a93.699 93.699 0 0 0-.1433.5849c-.0851.3531.0767.4771.7111.545.5242.056.5805.0449.7968-.1563.44-.4094.9358-.5278 1.3295-.3175.14.0749.2383.0528.4929-.1105.5289-.3393.6966-.4158.9118-.4158.1131 0 .4355-.1233.7165-.2741s.6084-.3259.7276-.3891c.2944-.156.4649-.1452.699.044l.1979.16-.3163.5646c-.2177.3888-.3336.7232-.3719 1.0738-.0306.28-.1144.6027-.1861.7171-.1047.1667-.1205.3979-.0798 1.1688.0279.5285.0943 1.1167.1475 1.3072.0532.1904.1504.7943.2158 1.3419.1436 1.2024.1739 1.3139.5023 1.8487.3169.516.8367 1.6905.8382 1.8936.0006.0822.1278.2134.2829.2918.155.0784.3478.2002.4284.2707.1306.1142.1969.1049.607-.0844.2533-.1169.6926-.3059.9762-.42.525-.211 1.2145-.7622 2.3978-1.9168.4508-.4397.5989-.6426.6004-.8225.001-.1312.0793-.409.174-.6174.1541-.339.1619-.4379.0743-.94-.113-.6485-.0499-1.2855.1494-1.5053.0761-.0841.1222-.2014.1025-.2607-.0198-.0593.0383-.182.1292-.2727.102-.1019.1472-.2334.1183-.3441-.0259-.0985-.0098-.2484.0355-.333.0533-.0993.0517-.173-.0044-.2076-.0479-.0295-.087-.1245-.087-.2111 0-.0866-.0611-.2081-.1358-.27-.0746-.0619-.1942-.2254-.2658-.3634-.1161-.2242-.1156-.273.0048-.4564.0781-.119.1002-.2266.0526-.256-.0451-.0278-.0739-.2733-.064-.5456l.018-.495.4769-.2459c.3714-.1915.6688-.264 1.3441-.328.477-.0451 1.0962-.165 1.3761-.2663.5048-.1827.5131-.183.9973-.0225 1.275.4223 1.6481.8152 1.1859 1.2486-.1214.1139-.2207.2465-.2207.2946 0 .0482-.0715.168-.1589.2663-.1622.1823-.4481.8707-.4481 1.0787 0 .0633-.1329.4711-.2953.9062-.2682.7184-.2882.835-.218 1.2674.0425.2619.0737.736.0692 1.0536-.0046.3176.0232.6283.0616.6904.0611.0987.2168.9155.2205 1.1564.0033.2207-.1259.8044-.2301 1.0389-.0635.1429-.2032.5268-.3105.8533-.1506.4585-.2575.6345-.4698.7734-.1636.1071-.3677.3751-.5041.6618-.3994.8402-.6869 1.3456-.8052 1.4156-.1561.0923-.3104.6994-.2445.9616.0413.1644.1266.225.371.2634.6372.1004.8469.0783 1.3146-.1391.6328-.294.8607-.3429 1.7413-.3734.5593-.0194.8372-.0734 1.1198-.2173.2579-.1313.4654-.1769.6607-.1453.3245.0526.6422-.1453 1.3827-.8611.5585-.5399.8612-.7369 1.0317-.6716.0744.0284.2237-.006.3319-.0767.108-.0708.3907-.1553.628-.1878.3603-.0495.4615-.0313.6134.1102.1001.0931.2562.184.3469.2018.1304.0256.1673.1135.1765.4201.0064.2132.0165.5045.0224.6474.007.1668.1164.3708.3054.57l.2945.3101.5936-.0805c.3265-.0442.7129-.0844.8588-.0893.2729-.0093 1.0216.2958 1.1213.457.1107.1788.734.4324 1.1962.4867.4139.0485.4865.0334.5972-.1243.239-.3407.9494-.4818 1.0973-.218.057.1018.1392.1253.2862.0821.1133-.0333.3816-.0802.5962-.1042.2147-.024.5854-.1316.8238-.2392.5808-.262 1.0094-.4037 1.0832-.3583.0332.0205.2478-.0337.4766-.1204.3145-.1191.4717-.1368.6436-.072.1898.0715.3315.0334.8562-.2304.7256-.3649 1.0065-.5871 1.1467-.9071.0549-.1254.3092-.4033.5651-.6176.2782-.233.5585-.5724.6973-.8441.1276-.2501.2827-.4546.3447-.4546.0619 0 .2-.146.3069-.3246s.2582-.3831.3363-.4546c.2076-.1899.5038-1.0152.5459-1.521.0406-.4886.2384-.8154.8237-1.3609.2027-.1889.3686-.3954.3686-.4589 0-.0634.1561-.2595.3468-.4357.1908-.1763.3469-.3681.3469-.4262 0-.2639 1.2749-.9036 1.8071-.9068.127-.0008.621.0655 1.0979.1472.8293.1421.8831.1649 1.2325.5208.201.2048.4219.3723.491.3723.0692 0 .3536.1895.632.4211.2784.2315.5948.4487.703.4826.1083.0338.3668.1909.5745.3493.5265.4012.6923.4786 1.0248.4786.1594 0 .3864.0681.5042.1513.1185.0836.4669.1771.7781.2089.31.0317.7393.1072.9539.1679.2146.0607.7805.112 1.2574.1139.8243.0032.901-.0126 1.5514-.3193.3764-.1775.7525-.3227.8359-.3227.1923 0 .4934-.2427.6295-.5074.0577-.1124.2503-.2536.428-.3138.4464-.151 1.1644-.7151 1.2872-1.0112.0816-.1967.1565-.2455.3774-.2455.2989 0 .483-.1297.4853-.342.0009-.0737.0984-.2259.2168-.3381.1185-.1121.2153-.2777.2153-.3679s.0569-.1641.1264-.1641c.1134 0 .3721-.2337 1.0776-.9739.1248-.1309.2688-.238.3201-.2381.1411-.0002.4378-.3523.5836-.6927.0713-.1667.2246-.4013.3404-.5215.1882-.1951.2065-.276.1717-.7563-.0318-.4396-.0132-.5477.1015-.5917.095-.0364.1404-.1592.1404-.38 0-.5467.0941-.8673.2547-.8673.0804 0 .2328-.1169.3386-.2598.1058-.1428.247-.2597.314-.2597.1597 0 .264-.3371.1419-.459-.0524-.0523-.0953-.3748-.0953-.7166 0-.4467-.0366-.6517-.1301-.7291-.0716-.0594-.1301-.1574-.1301-.2178 0-.0605-.0626-.134-.1391-.1633-.0795-.0305-.1177-.1086-.0893-.1827.0274-.0712-.0467-.3105-.1644-.5316-.1179-.2212-.2142-.4951-.2142-.6085 0-.1135-.06-.2293-.1333-.2574-.0733-.0281-.1864-.1537-.2514-.2791-.1284-.2479-.2151-1.4321-.1123-1.5347.0884-.0882.0793-.4158-.0142-.5149-.1266-.1342.0446-1.052.2433-1.3042.0997-.1265.1812-.3528.1812-.503s.0792-.4274.1761-.6161c.1425-.2772.1653-.4341.1194-.8191-.0312-.2619-.0987-.5285-.15-.5923-.0513-.0639-.0844-.246-.0737-.4047.0106-.1587-.0206-.3134-.0696-.3436-.0489-.0302-.0902-.1792-.0919-.3311-.0041-.3812-.3041-1.6132-.4214-1.7302-.0528-.0528-.0959-.1665-.0959-.2529 0-.0863-.0339-.2247-.0752-.3074-.154-.3085-.2963-.7665-.3359-1.0809-.0312-.2486-.1199-.3872-.3785-.5917-.2674-.2115-.3378-.3253-.3378-.5463 0-.3229-.0867-.4443-.5636-.7899-.1908-.1382-.3859-.2948-.4336-.348-.0477-.0532-.2623-.2291-.477-.3908-.2146-.1617-.421-.343-.4586-.403-.0978-.1556-.7862-.5451-.9635-.5451-.1553 0-1.1033-.4179-1.1794-.5199-.114-.1529-1.805-.4309-2.9917-.492-1.8625-.0957-1.8887-.0929-2.43.2659-.2598.1723-.5296.3131-.5997.3131-.2176 0-.6051.2067-.7705.411-.0869.1072-.1902.1951-.2297.1951-.0808 0-1.9969 1.8746-1.9969 1.9536 0 .1283-.8438 1.1053-1.5558 1.8014-.4321.4224-.7856.809-.7856.859 0 .0502-.0683.2367-.1517.4148-.1533.3269-.3533.4257-.8615.4257-.1186 0-.1875.0379-.1574.0865.0295.0477.1488.0866.2652.0866.2582 0 .2716.1604.0383.4565-.0954.1211-.1735.2688-.1735.3282 0 .1025-.3414.5979-.5822.8448-.0613.063-.1115.1866-.1115.2748 0 .0881-.0975.2761-.2168.4176-.1192.1414-.2168.2973-.2168.3463 0 .049-.1005.2083-.2234.3542-.1229.1458-.2624.406-.3101.5784-.0476.1724-.2416.4812-.431.6863-.2872.3112-.4152.3828-.7719.4317-.36.0494-.4645.0296-.6622-.1256-.3136-.2462-.6365-.7315-.6365-.9566 0-.2165-.1374-.494-.5415-1.0932-.2239-.3321-.3123-.5714-.3516-.9523-.0377-.365-.1027-.5495-.23-.6526-.0978-.079-.1776-.2138-.1776-.2995s-.1767-.3177-.3925-.5156c-.3209-.2941-.3888-.4083-.3722-.6261.0122-.1589-.0426-.3357-.1356-.4384-.0948-.1045-.1351-.2376-.1029-.3391.0326-.1022-.0015-.2125-.0876-.2838-.0775-.0643-.273-.323-.4345-.5751-.1614-.252-.3428-.4591-.4031-.4601-.0602-.0012-.246-.1951-.413-.431-.1669-.236-.341-.4299-.3869-.431-.046-.0011-.1825-.1009-.3035-.2219-.4815-.4811-.7166-.6254-1.2589-.772-.4389-.1186-.5895-.2023-.6737-.3743-.0843-.172-.2834-.2828-.889-.4945-.4292-.1501-1.0731-.4289-1.4308-.6195-.3577-.1907-.865-.4199-1.1273-.5095-.2624-.0895-.516-.1894-.5637-.2219-.0477-.0324-.3116-.1086-.5864-.1692-.2748-.0607-.5429-.1625-.5959-.2262-.053-.0637-.1842-.1158-.2916-.1158-.1074 0-.3612-.0585-.564-.1299-.4114-.1449-1.0487-.1722-1.175-.0503Zm3.7125 4.1372c-.1068.0206-.3259.2003-.4869.3994-.3321.4107-.6209 1.5064-.5976 2.2669.0073.238.0162.5448.0199.6817.0037.1369.1021.4115.2188.6103.1345.2291.2077.48.1999.6855-.008.212.051.4052.1703.5585.1003.129.2901.4417.4216.6949.1985.3824.2215.4886.1352.6266-.1477.2362-.1317.2652.1129.2039.1824-.0457.2168-.0239.2168.1374 0 .2387.3935.7202.6399.7831.4555.1161 1.1087 2.2637.8086 2.6586-.0452.0596-.1567.1082-.2478.1082-.091 0-.188.0585-.2154.1299-.0714.1855-.4898.1605-.7251-.0433-.1401-.1212-.3244-.1731-.6152-.1731-.2283 0-.4393-.039-.4688-.0866-.0295-.0476-.366-.0866-.7479-.0866-.3818 0-.763-.0367-.8469-.0816-.0839-.0447-.6179-.1423-1.1866-.2167-.5688-.0744-1.2097-.1931-1.4244-.2638-.2146-.0706-.6829-.1666-1.0406-.2133-.3577-.0467-.904-.1282-1.214-.1811-.31-.053-1.0319-.107-1.6043-.1201-.886-.0202-1.0807.0001-1.3109.1368-.2103.1249-.3624.1479-.6865.1035-.3871-.053-.4305-.0394-.6179.1948l-.2016.2519h-2.183l-.2316.2774a20.1477 20.1477 0 0 0-.4357.5439l-.2039.2665-.9717-.0478c-.9546-.0469-.9752-.0439-1.1769.1704-.1128.12-.2487.2181-.3018.2181-.1183 0-.8586.7536-.9865 1.0043-.0881.1724-.7447.4394-1.2393.504-.1131.0148-.3085.0684-.4343.1193-.1257.0508-.7412.1334-1.3677.1835-.6264.0502-1.2454.1448-1.3755.2104-.5081.2558-2.3384.2116-2.6984-.0653-.1365-.1049-.4694-.0857-.79.0456-.48.1967-.9733 1.2566-1.0295 2.2119-.0067.1128-.1284.2601-.3049.369-.3253.2007-.4125.4827-.2923.9458.0913.3518.2439.4124.596.237.1523-.0758.3924-.1378.5337-.1378.1582 0 .478-.1459.8322-.3797.3164-.2087.7119-.4082.8788-.4433.1669-.035.4089-.1175.5376-.1831.1289-.0657.3069-.1195.3957-.1195.0888 0 .3292-.0809.5342-.1798.3741-.1804 1.2723-.4525 2.0012-.6061.2146-.0453.6933-.1467 1.0636-.2255l.6735-.143.3671.2648c.4878.3517.5196.6589.1489 1.442-.1489.3148-.2558.6602-.2373.7675.0257.1503.0498.1181.1044-.14.0917-.433.6728-1.0447 1.1043-1.1623.1757-.0479.4526-.2199.6153-.3823.2419-.2416.4045-.3146.8945-.4017 1.2887-.2292 2.0373-.2974 2.2311-.2032.1038.0503.5987.1158 1.0998.1454.7199.0425.9786.0256 1.2327-.0803.2998-.1251.3539-.1222.7981.0438.3559.1329.5186.1554.6431.0889.1443-.0771 1.1976-.2102 1.4446-.1825.0477.0053.4663.0199.9304.0323.7393.0198.8694.0468 1.0525.2186.132.1238.1929.2576.1652.3631-.0241.0919-.0002.1672.053.1672.1141 0 .1313.3148.021.3829-.0417.0257-.0759.1514-.0759.2791 0 .1686-.116.3361-.4227.6103-.2325.2079-.5145.4163-.6267.4632-.1224.051-.1853.1335-.1574.2061.0256.0666-.0246.3556-.1115.6422-.1184.3902-.2419.5934-.4917.8085-.5851.5037-.7372.676-.6793.7696.0312.0502-.0006.1571-.0705.2374-.0719.0826-.1516.4235-.1836.7848-.0446.5045-.1023.6932-.2743.8973-.1199.1422-.1991.3223-.1761.4002.0228.0779.0656.4339.0948.791.0292.3571.1057.8052.1701.9956.2652.7861.2535.9555-.09 1.2985-.2921.2916-.3048.3254-.1763.4671.1026.1132.1385.3327.1385.8469 0 .584-.0275.7188-.1735.8507-.2394.2163-.2169.5307.056.7833.2909.2691.4424.2684.566-.0025.054-.1181.1633-.2354.2431-.2606.0798-.0253.2008-.1705.2687-.3226.0871-.1949.2069-.2978.4054-.3478.1551-.0392.2819-.1021.2819-.1398 0-.1509.7889-.8788.9524-.8788.0961 0 .2627-.0811.37-.1801.698-.6441.9483-.94 1.0334-1.2216.0532-.1757.2276-.4463.3879-.6014.1602-.1551.2924-.362.2938-.4597.0013-.0979.1183-.2915.26-.4302.2314-.2268.4295-.6806.4308-.987.0002-.0626.1176-.2122.2606-.3323.1431-.1203.2602-.2683.2602-.3291 0-.0608.0768-.2081.1708-.3274.2265-.2875.38-1.6931.204-1.8689-.0631-.0629-.1155-.1993-.1166-.303-.001-.1038-.0853-.364-.1872-.5782-.1019-.2143-.1781-.4354-.1692-.4914.0089-.0559-.0717-.163-.179-.2381-.1072-.0749-.1445-.1363-.0828-.1363.0816 0 .075-.0372-.0241-.136-.0749-.0749-.1362-.1713-.1362-.2143 0-.043-.11-.135-.2446-.2044-.3017-.1559-.8652-.7257-.9352-.9457-.0362-.1141.0468-.2635.2781-.5.1814-.1855.2964-.3373.2555-.3373-.041 0-.0063-.075.0768-.1668.0832-.0918.3137-.1919.5121-.2225.1985-.0306.4872-.0948.6417-.1426.1545-.0478.7203-.1027 1.2574-.122.5371-.0193 1.1911-.0544 1.4534-.0778l1.0748-.0964c.432-.0387.7205-.0151 1.0406.0848.3386.1058.7792.1355 1.8736.1264 1.7944-.0148 3.0331.0769 3.2166.2381.0898.0789.3176.1167.6504.1079.466-.0122.9981.0746 1.336.2178.0716.0303.2422.269.3792.5304.137.2613.2799.4751.3175.4751.1323 0 .5174-.535.5188-.7209.0025-.3217.4637-1.132.7121-1.2512.178-.0853.3619-.0897.8047-.0191.3157.0504.745.0711.9539.0461.2089-.0251.4858-.0054.6151.0438.1295.049.5299.1081.8898.1312.3663.0235.7416.0989.8523.1713.1186.0776.571.1604 1.1312.2071 1.3768.1147 1.7966.2732 1.8571.7013.0209.1484.0876.2171.2173.2237.1028.0052.3857.2078.6287.4503.4335.433.4416.4506.4416.9643 0 .3053.0751.7398.1803 1.0433.1129.3259.1599.6128.1257.7682-.047.2133.0066.3132.3826.714.2981.3175.4375.5394.438.6968.0006.1729.066.2597.2609.3457.1431.0633.2601.14.2601.1707 0 .0306.2635.1043.5854.1638s.7339.1828.9154.2739c.1816.091.4041.1421.4943.1135.0903-.0286.2813.0084.4243.0823.1432.0739.3537.1344.4679.1344.1142 0 .2748.074.3568.1645.2103.232.6845.304.984.1494.1341-.0693.3986-.1549.5877-.1902.3723-.0696.8208-.3533.8208-.5191 0-.0566.0586-.1514.1301-.2107.0715-.0593.1301-.1795.1301-.2673 0-.0877.0698-.1968.1552-.2424.0853-.0456.209-.1833.2748-.3061.0657-.1227.1548-.2231.1978-.2231.0431 0 .1341-.0558.2023-.1238.0956-.0954.1034-.1782.034-.3605-.0623-.1633-.0623-.2644-.0002-.3264.0495-.0493.0901-.1891.0903-.3105.0004-.273.2773-.7405.5134-.8667.0969-.0517.2665-.1843.377-.2946.1108-.1106.3614-.2261.5592-.2577.2163-.0345.4212-.1345.5166-.252.2088-.2574.767-.6703.911-.6737.2267-.0055.3991-.2261.5499-.7039.1874-.5934.1412-.7386-.2588-.8136-.1978-.037-.3719-.1458-.4833-.3019-.1867-.2618-.5174-1.2099-.5174-1.4833 0-.0913-.1028-.2543-.2283-.3621l-.2285-.1961.2718-.309c.1494-.17.2717-.3468.2717-.3928 0-.0461.1122-.2385.2493-.4275.1372-.189.2801-.4383.3177-.5541.0719-.2211.1397-1.5787.1229-2.4615-.0054-.2857.0598-.8629.1447-1.2827l.1547-.7632-.2473-.9683c-.2692-1.0537-.9426-2.4626-1.3416-2.807-.1233-.1064-.5275-.3736-.8981-.5937-.5772-.3426-.7175-.3919-.9777-.3432-.2271.0425-.3637.0149-.5402-.1092-.13-.0914-.3338-.1954-.4531-.231-.1192-.0357-.2753-.1129-.3468-.1716-.0716-.0587-.3252-.1685-.5637-.244-.48-.1519-1.2023-.0983-1.9758.1467-.6787.2149-1.733.7709-1.7764.9368-.0221.0844-.0776.1534-.1232.1534s-.2264.1599-.4017.3553c-.1754.1954-.4668.4307-.6475.523-.1808.0923-.3631.2539-.4053.359-.042.1052-.1677.2887-.2792.4077-.1114.1191-.336.3918-.4989.6061-.3616.4757-.9638 1.0387-1.1112 1.0389-.0595 0-.1084.0947-.1084.2103 0 .1208-.1273.3451-.2992.527-.1646.1743-.365.4888-.4454.6989-.0803.21-.1752.382-.2107.382-.0355 0-.1758.2195-.3118.4877-.1627.3211-.3588.5581-.574.6937-.221.1393-.3268.2695-.3268.4021 0 .2757-.2365.581-.45.581-.0989 0-.3087.1363-.4661.303-.1574.1666-.3383.303-.4021.303-.0636 0-.2669.1026-.4518.228-.3118.2116-.3848.2246-1.0154.1814l-.6795-.0465-.703.7018-.886-.0622c-.4875-.0343-.9252-.058-.9729-.0528-.0477.0053-.7096.0457-1.471.0899-1.1594.0671-1.4257.0596-1.6393-.0468-.1402-.0699-.3535-.127-.474-.127-.2515 0-.7076-.136-1.1306-.3372-.4599-.2187-.8845-1.0136-.6264-1.1728.0431-.0267.0581-.1998.0333-.3847-.0404-.3004-.0163-.3576.225-.5357.1486-.1097.2702-.2343.2702-.2769 0-.0425.1349-.3071.2996-.5878.3982-.6784.4668-.9783.4974-2.1746.0238-.9303.0111-1.0268-.1588-1.2121-.1016-.1106-.214-.2986-.2497-.4177-.0898-.2988-.481-1.0389-.5493-1.039-.0308-.0001-.2316-.1583-.4462-.3516-.2146-.1932-.5954-.4894-.8462-.6581-.2508-.1686-.5343-.4098-.6302-.5359-.4-.5265-.4799-.611-.5809-.6148-.0584-.0022-.1667-.1208-.2407-.2637-.1089-.2102-.1899-.2597-.4253-.2597-.1598 0-.4307-.0585-.6019-.1299-.1712-.0714-.3224-.1246-.3358-.1181-.0135.0065-.1118.0287-.2186.0492Zm-17.6912 3.8856c-.1551.1219-.2818.2946-.2818.3835 0 .089-.0398.1863-.0883.2163-.0546.0336-.0214.1484.0867.2999.0963.1349.175.2787.175.3194 0 .1531.5721.7044.7804.7521.2258.0518.6027.3826.9251.8118.1573.2094.237.2445.4891.2151.2024-.0236.3293-.0962.3869-.2216.0885-.1926.0746-.2368-.3031-.9679-.099-.1917-.2269-.5229-.2843-.7359-.0734-.273-.2384-.5214-.559-.8419-.5393-.539-.8635-.5954-1.3267-.2308Zm-1.3164 13.8267c-.0033.1327-.0646.3303-.136.4392-.0715.109-.1448.3122-.1629.4515-.018.1394-.0603.3563-.0938.4821-.0362.1355-.0229.2521.0324.2863.0644.0397.0532.1354-.036.3076-.0902.1742-.1059.312-.0516.4544.043.1127.0467.375.0083.5845-.0385.2101-.0347.4718.0086.5853.1129.2966.0963.5721-.0515.855-.161.3082-.1659.6363-.0139.9288.0825.1589.0968.3451.0486.6376-.2404 1.461-.1756 1.633.2129.5647.1342-.3691.465-1.1775.735-1.7965l.4911-1.1256v-.909c0-.9038-.0022-.9134-.3772-1.6352-.2074-.3995-.4291-.867-.4925-1.039-.1105-.2997-.1156-.3027-.1215-.0717Zm27.0214.4195c-.1705.3415-.3368.5279-.626.7021-.2307.1388-.4401.3466-.5053.5015-.1277.3031-.822.8035-1.2964.9343-.1761.0486-.4663.2033-.6448.3439-.1785.1406-.4417.2818-.5848.3139-.3434.077-.5066.2078-.6818.5465-.0797.1539-.2711.3443-.4253.423-.1542.0786-.409.2741-.5663.4344-.1985.2021-.3654.2912-.5456.2912-.2426 0-.5784.1852-.9809.5411-.0943.0833-.2005.1516-.2362.1516-.0357 0-.1516.1542-.2577.3427-.1062.1886-.2234.3241-.2606.3011-.0974-.06-.4248.3147-.4248.4864 0 .0798-.0713.238-.1587.3516-.0872.1135-.1822.2709-.2109.3498-.0287.0788-.1746.1701-.3241.203-.1495.0328-.2943.1241-.3216.2029-.0274.0789-.2018.3022-.3876.4962l-.3376.3527-.0147.8258c-.0118.6634.0156.872.1398 1.0611.0849.1294.1334.29.1077.357-.1117.2906.4879.3764 1.1243.1607.2565-.087.7542-.1421 1.3688-.1516l.9658-.0149.6128-.3683c.3371-.2027.6989-.4485.8041-.5464.1147-.1067.2543-.158.3485-.1281.101.032.3002-.0591.5565-.2545.2196-.1674.4534-.3044.5194-.3044.0661 0 .2118-.0974.3238-.2164.1121-.119.2469-.2165.2997-.2165.1241 0 1.0474-.9488 1.1165-1.1474.0541-.1556.7199-1.0783.8901-1.2335.2045-.1865.4687-.6416.4687-.8076 0-.0961.0975-.2905.2168-.432.1192-.1415.2167-.2955.2167-.3423 0-.0469.0586-.1336.1301-.1929.0716-.0593.1301-.2419.1301-.4059 0-.164.038-.3689.0844-.4555.0464-.0866.1263-.4444.1777-.7952.0513-.3508.1362-.724.1887-.8294.0933-.1875.0567-1.1126-.0688-1.7347-.046-.2279-.0983-.2814-.2749-.2814-.1199 0-.2642-.0631-.3208-.1403-.0882-.1204-.1354-.0746-.3348.3247Zm-8.6106.0111c-.4768.4901-.6183.8911-.4785 1.3568.0773.2578.0802.3985.0106.5282-.0521.0972-.0933.3214-.0915.4983.0051.5185.0046.6526-.0038.9384-.0046.1635.0677.3571.1828.4894.1635.1877.2286.208.4564.1428.1461-.0419.349-.1542.4507-.2496.1017-.0954.3199-.2197.4848-.2762.1648-.0565.4204-.1936.568-.3047.1476-.1112.3477-.2021.4445-.2021.5158 0 .7723-.1364 1.423-.7571.6174-.589.9989-1.1833.9344-1.4558-.0106-.0448.0121-.1534.0504-.2413.1159-.2663-.3324-.5532-.9743-.6235-.2982-.0326-.6203-.0389-.716-.0139-.0956.025-.3786-.0089-.6287-.0754-.2501-.0665-.7474-.1211-1.1051-.1213l-.6504-.0004-.3573.3674Z" clip-rule="evenodd"/></svg>
