<svg xmlns="http://www.w3.org/2000/svg" width="95" height="62" fill="none" viewBox="0 0 95 62"><path fill="#1A1A1F" d="M42.349 24.4159c-.2463-.1299-.0204-.2694.4936-.2963 1.6446-.0862 3.3849 1.2753 4.1166 1.583.2535.1066 1.2317.2557.8568.3076-1.6223.2245-.5271-.7748-.9366-.8348-2.4504-.3588-3.0679-1.9319-3.5447-2.4557-1.9205-2.1099-3.0511-5.5045-5.6099-6.8814-1.009-.5428.1391-1.5117 2.8642-1.3997 9.865.4054 10.6125 7.926 10.399 9.2632-.1391.8717-2.9606 3.0802 1.5056 2.5196 1.1067-.1389 1.1187.1788.445.432-.6707.2521-2.0213.4403-3.6476.05-.4707-.1129-.7337-.2896-.8627-.4976-.2108-.3399-.064-.7635.1191-1.13.1389-.2778.2986-.5228.3391-.6735.0956-.3553.1744-.7139.2287-1.075.0913-.6081.1128-1.2233.0267-1.8422-.2043-1.4684-1.0144-2.9571-2.9346-4.4188-.5055-.3847-2.8496-2.1542-5.7263-2.1718-2.4645-.015.6045 1.821 1.1507 2.6254.533.7849.8694 1.5682 1.363 2.3528.3565.5667.7619 1.1336 1.2137 1.7003.974 1.2218 3.5193 2.7965 4.3278 3.4929l.0112.0099c.3541.3159.3475.838-.1191 1.13-.4595.2876-1.3652.3518-2.8116-.2241-1.2243-.4875-2.2138-1.0096-3.1843-1.5217a.1673.1673 0 0 0-.0059-.0031l-.0775-.041ZM53.6041 26.64c-.2102.0285-.4449.0302-.6655.0134-.5461-.0416-1.0051-.1964-.7879-.3364.5033-.3244 2.1578-.3376 2.5399-.7583.7124-.7845.6878-1.6538.8881-2.4733.5715-2.3382 1.0189-5.2032 5.5144-7.1742 1.2573-.5513 4.5546-1.9591 8.5056-1.0742 5.8864 1.3185 6.5751 3.7993 7.6488 5.4099 2.6173 3.9264-.2537 6.8768-.1377 10.585.0676 2.1601.6707 4.4251-.5135 6.5202-.198.3503-1.4236.3151-1.6061.4558-1.6952 1.3068-1.4582 6.5918-9.3515 6.4964-4.3091-.0521-8.0226-5.8174-8.6048-6.3757-.3837-.368-2.0764-1.7838-2.11-1.7778-8.6069 1.5354-.5328 11.0053-15.0615 11.5721-.5541.0216-1.1618-.0947-1.241-.2397-.0646-.1183.2268-.1916.6405-.2449.6452-.083 1.5879-.1171 1.9425-.1963 2.0026-.4475 3.1137-1.1442 4.0193-1.7795 1.1654-.8177 1.8396-1.6684 2.3265-2.5328.5514-.9789.8626-1.9753 1.3749-2.9609.1764-.3395.3768-.6777.619-1.0134.1334-.185.4555-.8164 1.0697-1.4586.4159-.435.9658-.8748 1.6817-1.1844.7573-.3274 1.7004-.509 2.8673-.3847 2.9484.3142 6.9812 5.628 7.4225 6.0828.2459.2534 1.2746 2.2694 3.698 2.0042 6.2199-.6807 5.3334-4.01 6.3544-5.5919a2.012 2.012 0 0 1 .0555-.0815c.1426-.1987.219-.5038.7052-.6912.1176-.0453.2591-.0837.4313-.1121.2311-.038.9072.0196 1.3074.0667.271.0319.4155.0589.2097.0481-.0795-.0042-.1491-.0207-.2097-.0481-.4059-.1836-.4101-.8553-.2959-1.5712.1333-.8363.4281-1.733.4325-1.9826.0396-2.2548-.4378-4.5497.0021-6.7866.2704-1.3749 1.5141-2.3259 1.3572-3.7952-.0218-.2044-.0707-.4188-.1531-.6458-.4771-1.314-2.9315-7.2624-8.9246-7.57-4.3758-.2246-6.4569 2.1856-7.1104 2.8134-.2361.2267-.4261.7152-.6322 1.352-.5003 1.5454-1.0953 3.9641-2.6732 5.6327-.8484.8971-1.9808 1.5774-3.5354 1.7886ZM39.5602 47.2638c1.6352.048-.4495.9736-2.2646-.1017-.4146-.2456-.5391-.5088-.6155-.7575-.4981-1.6218 1.8443-3.5295 2.9072-5.0577.7862-1.1304 1.6448-2.2891 3.925-3.2452 1.7308-.7256 8.8293-.9273 6.4252-2.3936-.6006-.3663-4.0646-.7865-5.2952-1.2779-1.3188-.5267-2.5814-1.6601-5.1271-1.8752-2.4309-.2053-2.0519 2.6516-1.9595 3.0205.8148 3.255 1.5212 6.1846-3.4814 9.0266-.3.1704-3.3799 2.2395-4.9599 2.1309-1.6022-.1101-.6197-3.0388-.5833-3.5635.2415-3.4787.0214-6.999 4.9763-10.1117.3542-.2225 1.8594-.1054 1.8395.1546a.3227.3227 0 0 1-.0042.0335c-.091.5143-1.355 1.0698-1.8718 1.5445-.5033.4622-.9772.9278-1.4175 1.3964-.8447.899-1.2331 1.8255-1.4128 2.765a7.6336 7.6336 0 0 0-.0977.6876c-.0421.4284-.0538.8588-.058 1.2898-.0054.5508.0013 1.1026-.0281 1.6525a77.6052 77.6052 0 0 1-.0143.2637c-.0425.7633-.0963 1.5265-.2272 2.2854-.026.1504-.0627.3002-.101.4499-.0483.189-.0991.3778-.1337.5675-.0176.0965.2537.3759-.0117.2915-.436-.1386-.7223-.1645-1.3304-.1345-.4156.0206.4111-.1741.5933-.2649.3044-.1516.5957-.3052.8825-.4596.2459-.1323.4884-.265.7329-.3974 1.3978-.7566 2.724-1.526 3.7282-2.3341 1.3949-1.1226 1.9925-2.3092 1.9975-3.5383.0026-.647-.1279-1.2995-.3108-1.9529-.0267-.0956-.0984-.2691-.1868-.4966-.079-.2034-.1713-.4499-.2566-.7226-.5251-1.6768-.7888-4.3413 3.9114-4.0298 3.1322.2076 4.792 1.4063 6.1563 1.9981.9548.414 2.1665.6284 3.2717.8273.4041.0727.7939.1434 1.1517.221.4532.0983.8551.2078 1.1697.3467.4829.2132.7392.4164.816.6103.1733.438-.5684.8292-1.6817 1.1844-2.2604.721-6.0528 1.2936-6.8289 1.8073-1.6336 1.0814-2.3318 2.2784-2.9338 3.4569-.0528.1034-.1009.2071-.1514.3107-.4436.9107-.9081 1.8231-1.5815 2.7159-.1808.2397-1.141 1.454.1437 1.6507.0885.0136.1876.0223.2983.0255ZM44.0277 24.28c.5901.3441-1.2879.3674-1.7294.1096-.5805-.339 1.276-.3741 1.7294-.1096Zm0 0c.5869.3426-1.2845.3693-1.7294.1096-.5868-.3425 1.2844-.3694 1.7294-.1096Zm-.0517-.0269c.3936.2042-.4144.3812-1.2113.263a6.567 6.567 0 0 1-.3382-.0592c-2.0909-.4239-3.309-1.7474-5.4024-2.2785-5.7422-1.457-7.1431-.239-10.179-2.9435-.6257-.5574-3.4335-3.2991-4.3491-2.9756-.186.0658-.3569.0991-.5085.108-1.1861.0694-1.1878-1.3587 2.0183-.4762 4.8467 1.3341 3.066 3.4788 7.0576 4.9233 1.407.5091 4.4622.485 6.2928.8675 3.169.6622 4.9313 1.6954 6.6198 2.5712Zm-23.1233-8.2898c.6441-.2221 2.2911.0726 1.644.2958-.6441.2221-2.2911-.0726-1.644-.2958Zm-.0035.0014c.8124-.2967 1.0734.007 1.1383.4026.0688.4191-.0825.9415-.031.9621.335.134-.2671.1619-.9456.0723-1.1119-.1468-2.4289-.6091-.1617-1.437Zm-.4477 1.5565c-.5867-.2553-.113-.2728.6094-.1195.7696.1633 1.8213.5206 2.1739.9912.7819 1.0433.2794 2.3837 2.2824 3.3464.0318.0153 6.9041.0966 6.3798 1.4205-.026.0657-.0702.1344-.1343.2063a1.2973 1.2973 0 0 1-.0819.0834c-.3028.2832-1.7802.3676-2.5439.0285-.1878-.0834.2931.1974.123.2677-.87.3597-1.3263.7776-1.9325 1.1739-1.8886 1.2346-5.4687 1.3114-6.2961 1.7003-1.009.4743-.1152 1.4987-.0485 2.054.1416 1.1776-2.3783 6.0337-1.0798 6.7518 1.7411.9628 5.4565-1.017 6.6593-.6505 1.3571.4135-2.0114 4.2645-2.1796 4.6016a4.2275 4.2275 0 0 0-.3136.8338c-.1408.5466-.1597 1.0956-.0813 1.6484.1058.7471.3891 1.5011.7886 2.2654.0128.0245.0258.049.0388.0736.4461.8386-2.2842-.6085-2.4989-1.2243-.1991-.5712-.351-1.1423-.3221-1.7061.104-2.032 1.5052-4.3335 3.0156-6.315.1173-.1539 1.1197.3212.9356.4684-.8193.6553-7.0009 1.0686-7.8925.0208-1.1112-1.3059.8463-2.8863 1.0829-4.1311.2179-1.1466-2.6684-4.2509.6439-5.1272.8428-.223 2.1289-.0415 2.9841-.2095 3.0725-.6035 2.339-2.3905 6.0581-2.8511.654-.081 1.4039-.0078 1.8715.1625.2009.0732-.7883-.1002-.7941-.1813-.0199-.279-.5889-.61-1.4927-.8239-1.488-.3522-2.8522.304-4.4893-.3681-3.2475-1.3331-.3758-3.0465-3.4658-4.3909Zm2.5033 26.6707c-.5838-1.1859 2.6922 1.178 2.8641 1.5272.5867 1.1919-2.6949-1.1835-2.8641-1.5272Zm2.8669 1.5976c-.094.1186-.5447.1888-1.0683.1476-1.4422-.1133-.5345-1.2129.023-1.8127.1475-.1586.2704-.2822.319-.3435.034-.0429.1099-.0803.2256-.1081.0812-.0195.1819-.0344.3015-.043 2.3125-.168.3854 1.9249.1992 2.1597Zm1.1406-1.8634c-.078.1287-.6177.196-1.1538.1415-.2728-.0277-.4225-.1742-.4875-.3948-.1186-.4031.0455-1.0537.258-1.6797.1353-.3989.2903-.7879.4042-1.0965.0859-.2327.1485-.4198.1618-.531.199-1.6679-.2747-8.3395 8.2305-8.7651l.0886-.0041c.0136-.0007.0269-.0012.0401-.0017.3123-.0125.521-.0026.6458.0247.9444.2065-2.9163 1.4091-3.0308 1.466-1.9666.9788-3.1277 2.0976-3.6216 3.2359-1.0859 2.5029-.0291 5.1211-1.5353 7.6048Zm8.1794-11.8726c-1.1171.0374-1.771-.389-.7662-.453a3.81 3.81 0 0 1 .1117-.0053l.017-.0005c1.1458-.0337 1.7936.4201.6375.4588Zm-.0195.0009c-1.6452.0494-.9262-.3857.0278-.435.5058-.0261 1.0777.0562 1.3983.3766.3188.3185.0772.6908-.6094.9278-.1021.0352-.2397.0576-.393.0686-.5295.038-1.2475-.0593-1.3488-.2276-.1595-.2652 1.1349-.7167.9251-.7104Zm-.7946.5615c1.1519-.363 1.3187.0526 1.2183.3765-.0308.0992-.0866.1898-.1469.2468a.3022.3022 0 0 1-.043.0342c-.6878.4466-2.1198-.3137-1.0284-.6575Zm-.7645.4379c.4175-.249 2.0455-.0549 1.8359.1854a.3651.3651 0 0 1-.0063.0067.217.217 0 0 1-.0415.0309c-.4433.265-2.2123.03-1.7881-.223Zm0 0c.4203-.251 2.0398-.0527 1.8359.1854a.3651.3651 0 0 1-.0063.0067.217.217 0 0 1-.0415.0309c-.4424.2643-2.213.0308-1.7881-.223Zm10.5676-15.0933c.316.9824-2.2855-.6808-2.4318-1.0276l-.0053-.0129c-.0161-.0409-.0247-.0762-.0262-.1061-.0288-.5537 2.3216.7064 2.4633 1.1466Zm-.0016-.0029c.2377.6557-.8976.1283-1.6988-.3998-.3821-.2519-.6882-.504-.7332-.6279l-.0035-.0099a.5208.5208 0 0 1-.0262-.1061c-.029-.2366.2211-.2285.5721-.0991.6999.2581 1.8012.9988 1.8896 1.2428Zm-1.869-.0205c-.1283-.3248-.0386-.4208.1702-.3793.6301.1254 2.3451 1.5037 2.4329 1.6348.7794 1.1639 1.6388 2.3536 3.1326 3.5088.1361.1053.2816.2096.4636.3123.5988.3381-1.0864.3646-1.6893.1235a.694.694 0 0 1-.0932-.0446c-2.7525-1.6058-3.7758-3.5332-4.4168-5.1555Zm5.1987 5.3657c-1.2778-.1269.4098-.6772 1.5736-.1645.0568.0251-1.4704.1747-1.5736.1645Zm1.7356-.0179a.0913.0913 0 0 1-.0292.0424c-.1275.1132-.6238.1722-1.1397.1187-.2982-.0309-.4723-.0768-.5724-.1302-.1626-.0868-.1295-.1934-.1152-.288.2221-1.4722-.2866-3.0669-2.3836-4.5603-.6954-.4952-1.5875-.9719-2.9829-1.3936-.4924-.1488-.2346-.3165.2681-.3591.26-.022.5856-.0106.9068.0543 1.8159.367 3.0403 1.2201 3.6659 1.6805 1.331.9797 2.0968 2.0186 2.3797 3.0355.1708.6139.1656 1.2198.0025 1.7998Zm-1.4643 4.5163c.2572-.0975.5083-.1131.7182-.0806l.0022.0003c.2767.0434.4816.1706.5346.3046.1121.2835-.4562.5975-2.4649.213-6.6724-1.2775-5.2957-3.7904-13.9941-4.7205-.5242-.0561-.0212-.233 1.0736-.2668 1.1746-.0362 3.0303.0923 5.029.7116 2.3554.7298 8.0783 4.2259 9.1014 3.8384ZM31.7327 23.258c.0075-.0394.0488-.072.1143-.0982.3546-.1418 1.4201-.0956 1.7027.0914.0339.0225.0565.0469.0653.0733.116.3482-1.1386 3.2251-4.8478 2.0615-.1262-.0396-.2174-.0819-.2524-.129-.0335-.045.3593-.0592.8301-.09.5238-.0342 1.1441-.089 1.3805-.2296.7993-.4755.8897-1.0345.9873-1.5713.0066-.0361.0132-.0722.02-.1081Zm-3.0195 1.8199c.3477-.0783.5547-.0358.6317.0891.3893.6318-2.544 3.372-7.3958 3.2525-.1361-.0033-.1702-.0403-.1231-.1039.0507-.0683.1955-.1674.4086-.2884 1.224-.6946 4.7005-2.1106 5.5597-2.5738.2384-.1285.4926-.2794.9189-.3755Zm18.8991 2.8906c-.163-.1711.2883-.2524.786-.2479l.0022.0003c.427.0041.8875.0709 1.0236.1984a.2617.2617 0 0 1 .0075.0073c.0589.0619.0376.112-.0371.1506-.313.1616-1.5642.1204-1.7822-.1087Zm0 0c-.164-.172.2879-.2529.786-.2479l.0022.0003c.4274.0045.8884.0719 1.0236.1984a.2617.2617 0 0 1 .0075.0073c.0585.0615.0363.1117-.0395.1503-.3153.1609-1.558.1244-1.7798-.1084Zm-26.7174.1847a.0993.0993 0 0 1 .0029-.018l.0009-.0034c.0301-.1039.2191-.1555.4668-.1695.2635-.0149.5935.0127.8691.0649.3152.0598.5594.1518.5519.2496-.0273.3588-1.7759.1598-1.8864-.0942a.0608.0608 0 0 1-.0052-.0294Zm0 0a.0993.0993 0 0 1 .0029-.018l.0009-.0034c.0301-.1039.2191-.1555.4668-.1695.2635-.0149.5935.0127.8691.0649.3152.0598.5594.1518.5519.2496-.0274.3576-1.7766.161-1.8864-.0942a.0608.0608 0 0 1-.0052-.0294Zm.0069.0559a.9006.9006 0 0 1-.0031-.0773c.0006-.3246.1967-.3281.4668-.1695.1393.0819.2985.207.4605.3533.5293.4782 1.0906 1.1839 1.1019 1.3562.0952 1.4484-.1513 2.8847-.7779 4.2943-.0398.0898-.2959.1576-.6599.1692a4.506 4.506 0 0 1-.1954.0022 3.1972 3.1972 0 0 1-.2785-.0146c-.3375-.0338-.5417-.1228-.6544-.2428-.3953-.421.3327-1.2248.3763-1.3758.4099-1.4184.2756-2.8528.1637-4.2952Zm.3189 5.9248a27.4957 27.4957 0 0 1-.2045-.011c-1.1312-.0658-1.1165-.1548-.6544-.2428.7467-.1424 2.6618-.2826 2.7975-.3197.3833-.1047 1.1028.1799.7942.3932-.2174.1503-.9448.2652-2.6588.1839a94.1335 94.1335 0 0 0-.074-.0036Zm3.6159-.305c-.1316.0937-.5018.1372-.8831.1247-.2694-.0088-.5443-.0457-.7447-.1125-1.2144-.4055 2.1771-1.6653 4.171-.7805.316.1403.5307.2937.6801.4433.0852.0853-.0049.1682-.2584.2159-.1972.0372-.3665.056-.513.061-1.4026.0472-.7206-1.1839-2.4519.0481Zm3.2343-.2128c-.3555.3226-.6149.3191-.7824.1647-.305-.2811-.3051-1.0624-.0251-1.2856.6543-.5217 8.6837-4.6867 10.6956-1.7161.029.0428.0423.0771.0417.1039-.0016.0644-.0835.0856-.223.0769-.1897-.0118-.4859-.0789-.8305-.1677-.935-.241-2.2266-.642-2.7178-.5326-3.6038.8027-4.8755 2.1921-6.1585 3.3565Zm9.798-2.6849a.933.933 0 0 1-.0912.0287c-.3192.0826-.6521-.0127-.8305-.1677-.4415-.3837.0635-1.133 4.0652-.4566.9993.1689 11.9476 3.6915 12.3405 4.2508.0239.034.0374.0632.0411.0877.0112.0754-.0703.1075-.2292.1034-.2018-.0053-.5284-.0691-.9483-.1771-2.5654-.6595-8.6108-2.9664-10.9217-3.6317-.3353-.0965-.7071-.1912-1.1364-.2614-1.0141-.1658-1.6717.0032-2.1577.1757a8.1211 8.1211 0 0 0-.1318.0482Zm15.4192 3.7916a2.7239 2.7239 0 0 1-.1233.0547c-.6108.2519-.9418.0933-.9483-.1771-.0134-.5574 1.3525-1.5899 4.4897-.4806 6.5254 2.3074 3.5361 5.482 8.9426 7.8333.0287.0125-.0887-.0202-.1411-.026-.6143-.0683 1.1645-.1055 1.5064-.2216.7117-.2417 1.1552-.5375 1.5359-.8283 1.0195-.7785 1.5087-1.6122 1.8793-2.4484.1621-.3656 1.5586-.1106 1.7718.2065.0289.0431.036.0873.0152.1313-.3083.6496-1.6455 4.2904-7.2906 3.5711-2.3476-.2992-6.4347-5.6631-7.0014-6.1816-.7236-.6619-2.0826-2.5706-4.5303-1.482a4.4665 4.4665 0 0 0-.1059.0487Zm19.0179 3.8318c-.0139.0315-.0508.0583-.1049.0807-.3738.1539-1.5724.0917-1.7575-.137-.5088-.6287.4755-2.7468 3.2222-3.0707.6808-.0803.8855.114.824.4397-.078.4136-.5853 1.039-1.0914 1.5828-.2776.2983-.5549.572-.7607.7727-.1929.1881-.323.312-.3317.3318Zm2.8506-2.8683c-.0116.0649-.1342.1157-.3154.1472-.1017.0176-.2219.0292-.3514.0338-.237.0083-.505-.007-.7472-.0515-1.6454-.3025-.3496-2.5396-.3531-2.9518-.0163-1.9108-2.5818-6.8752 1.7612-8.5307 2.5621-.9767.0797 2.9614.054 3.4949-.1257 2.612.4149 5.2616-.0481 7.8581Zm1.7667-11.1787c.0352.233-1.2578.2749-1.7514.0524-2.2135-.998-1.4712-3.6198-2.2595-4.6015a8.4934 8.4934 0 0 0-1.3999-1.38c-.4784-.3735-1.9168-1.599-4.2645-1.6194-3.8692-.0335-5.3237 2.0818-5.902 2.7182-1.9849 2.1838-1.7089 4.4695-2.946 6.6926-.5686 1.0219-8.4404 3.9293-10.7774 1.6076-.1765-.1754.3613-.067 1.3125.048.1433.0173.296.0348.457.0514l.0024.0003c1.0321.1068 2.4067.1806 3.8531-.0275 2.6872-.3868 3.0385-1.3058 3.4056-2.052.1876-.3814.3449-.7637.4863-1.1463.6999-1.8941 1.0095-3.7964 2.6732-5.6327a9.0527 9.0527 0 0 1 .3791-.3937c.8983-.879 2.479-2.1695 6.6382-2.3286 3.4805-.1332 5.8488 1.471 6.4818 2.0233 1.7754 1.549 2.8169 3.1687 3.3212 4.7494a8.021 8.021 0 0 1 .2903 1.2385Zm-44.534 16.4246c-.0591.5758-.655.1806-1.1557-.336-.3414-.3523-.6385-.7611-.6907-.9568a.1939.1939 0 0 1-.0079-.0601 3.0824 3.0824 0 0 1 .1056-.6275c.3494-1.2746 1.4998-2.5099 3.1082-3.6696a.3426.3426 0 0 1 .0642-.0353c.1557-.0673.4416-.095.7397-.0903.4986.0079 1.0316.1064 1.0472.2614.0098.0975-.0007.2027-.0285.3147-.325 1.3091-3.012 3.5418-3.1821 5.1995Zm1.326-5.5818c-.0005-.0381.0335-.0734.0977-.1035.1049-.0492.2905-.0842.5375-.0942a1.6634 1.6634 0 0 1 .2022.0039c.4552.0376.7819.2686 1.0187.5761.0965.1253.178.2633.2473.4061.1162.2399.1977.4933.2566.7226.0928.3608.1299.662.1593.7573.6824 2.2059-.3763 3.9962-4.0038 5.8363a.4641.4641 0 0 1-.0432.0192c-.0898.0349-.2197.0603-.3709.0747a3.0644 3.0644 0 0 1-.214.0126 3.5938 3.5938 0 0 1-.074.0012c-.1993.001-.4127-.0143-.6105-.0482-.2798-.048-.3416-.1589-.264-.3056.2694-.5097 2.2185-1.4529 2.5488-1.7043 2.5504-1.9411.5384-4.0648.5123-6.1542Zm-3.2115 5.4998a.0892.0892 0 0 1 .0035-.0135c.0113-.0326.0421-.0627.108-.0897.2356-.0968.4404-.1439.6183-.1508 1.4722-.0565 1.1008 2.6458 1.0668 2.7792-.0094.0365-.046.0702-.1128.0988-.058.0248-.1387.0458-.244.0615l-.0268.0038-.0129.0016a1.3619 1.3619 0 0 1-.0872.0078c-1.4381.0819-1.3822-2.3279-1.3129-2.6987Zm0-.0019a.0701.0701 0 0 1 .0035-.0116c.0277-.0709.1667-.13.4224-.1596 1.5645-.1815 1.4723 2.2751 1.3708 2.6965-.0175.0726-.1528.1338-.3837.1659l-.0129.0016a2.7498 2.7498 0 0 1-.3752.0216c-.4117-.0076-.6902-.1447-.8745-.3538-.0928-.1053-.1617-.2289-.2117-.3635-.2472-.6649-.0329-1.5978.0424-1.9162l.0047-.0198c.006-.0254.0109-.0459.0142-.0611Zm0 0a.0701.0701 0 0 1 .0035-.0116c.0359-.0862.2387-.1543.5861-.1734 1.8342-.1006 1.2915 2.3598 1.2071 2.7103-.0175.0725-.1495.1336-.3837.1659l-.0129.0016a2.6188 2.6188 0 0 1-.1931.0175 1.903 1.903 0 0 1-.1081.0029c-1.5941-.0017-1.2349-2.098-1.1178-2.6323l.0047-.0198a3.7834 3.7834 0 0 1 .0142-.0611Zm17.7797-17.8747c.8364.246-.1294.4019-.8804.3422-.2251-.0179-.431-.0552-.5631-.1152-.0012-.0006-.0015-.0019-.0015-.0019.0081-.0325 1.3724-.2465 1.445-.2251Zm-1.3653.2553a1.5931 1.5931 0 0 1-.0797-.0302c-.0517-.0215-.0907-.042-.1184-.0615-.367-.2587 1.2603-.3429 1.7308-.1057.0502.0253-1.466.2207-1.5327.1974Zm.0392 16.3356c.076-.1323.5547-.1827 1.011-.1587.3513.0185.6893.0812.8201.1847a.1973.1973 0 0 1 .0313.0304 1.4322 1.4322 0 0 1 .1053.1479c.558.9017-.2419 1.9914-1.3749 2.9609-.6433.5505-1.394 1.0623-2.0645 1.479-.8386.5212-2.0317 1.2358-4.1948 1.4989a13.0838 13.0838 0 0 1-.3515.0378 6.3549 6.3549 0 0 1-.2781.0206c-.6423.0315-.5789-.1132-.209-.3232.6879-.3905 2.4359-1.0066 2.6781-1.1341 1.8069-.9508 2.7522-2.037 3.2727-3.1222.2563-.5343.2491-1.0909.5543-1.622Zm-5.58 6.0368a1.3776 1.3776 0 0 1-.0865.1063c-.2463.2713-.4586.2372-.6296.0584-.0787-.0823-.1486-.1953-.209-.3232-.2174-.4603-.3121-1.1145-.2505-1.2324.614-1.1757 1.039-2.3782 2.4837-3.4807.9556-.7293 2.0211-1.0503 4.6949-1.3173.1906-.0191.3946-.0196.588-.0066.3662.0246.6941.0977.8201.1847.0256.0177.0429.0359.0504.0545.0147.036-.0072.073-.0756.1091-.838.4416-3.1756.3873-4.1492 1.094-2.0669 1.5004-2.0705 3.1744-3.2367 4.7532Zm7.0711-10.5359c.3573-.2694 2.1799-.0735 1.8266.193-.3575.2696-2.1795.0731-1.8266-.193Zm1.8351.1844c-.3076.2726-2.0979.1047-1.8436-.176.0898-.0992.3863-.14.7181-.1394.493.0009 1.064.0932 1.1517.221.0218.0317.0138.0655-.0322.1007-.1007.0768-.3382.131-.6845.1372a3.8026 3.8026 0 0 1-.2753-.0052c-.3441-.0189-.659-.0836-.8068-.1657-.1146-.0637.3979.1143.6587.1398.4213.0413 1.1327-.1291 1.1139-.1124Zm-26.0397 4.6795c.0057-.0203.0199-.0398.0432-.0579.0546-.0426.1589-.0781.3187-.1016a2.211 2.211 0 0 1 .1842-.0194c.7644-.0464 1.0492.3918 1.1227.8855.0127.086.0191.1736.0205.2607.0069.4286-.1072.8432-.1732.9735-.0248.049-.1031.0919-.231.123-.087.0211-.197.0368-.3287.0452a2.0343 2.0343 0 0 1-.2179.0028c-1.4413-.0618-.821-1.8166-.7385-2.1118Zm1.5177 1.9124c.0017.1235-.3635.1955-.7792.1994-.3516.0034-.7393-.0421-.9714-.1464a1.2483 1.2483 0 0 1-.0732-.0357c-.7331-.3883-.2822-1.1533.0813-1.6484.0892-.1215.1732-.2268.2331-.3062a.1614.1614 0 0 1 .0349-.033c.0821-.0592.2572-.1038.5029-.121a3.1815 3.1815 0 0 1 .1555-.0069c1.2376-.0259 1.1383.4991.9672.8924-.0667.1533-.1443.2866-.158.3595-.0526.2808.0029.5634.0069.8463Zm-.9471-21.8801c-.3944-.4412 1.4487-.1972 1.9506.0939.0401.0233.0716.0468.0927.0703.2267.2521-.2727.2811-.838.2059-.5089-.0678-1.0712-.22-1.2053-.3701Zm.9665-.0464c.51.0057.7954.0446.9192.097.0322.0137.0534.0282.0649.0433.076.1003-.2798.2259-.7453.2762-.4619.0499-1.0319.0258-1.3952-.1706a1.063 1.063 0 0 1-.0363-.0205c-.0382-.0229 1.0978-.2265 1.1927-.2254Zm.4925.0927c.4934.2912-1.1894.4251-1.6841.1332-.4934-.2911 1.1893-.4251 1.6841-.1332Zm-.002-.001c.382.224-.5703.4047-1.3806.2319a1.746 1.746 0 0 1-.2663-.0777c-.5647-.2189-.5148-.6295-.5995-.8127-.0239-.0517-.0549-.104-.0706-.1556a.4962.4962 0 0 1-.0218-.1277c-.0056-.3177.4821-.1448 1.0144.1355.5927.312 1.2406.7572 1.3244.8063Zm-2.2844-.779a.498.498 0 0 1-.0326-.0351c-.0516-.0614-.0554-.1029-.0218-.1277.0995-.0732.5262-.0005 1.0144.1355.6844.1906 1.4897.5056 1.6845.7174.0334.0363.056.0676.0686.0942.2129.4469-2.3601-.4335-2.7131-.7843Z"/><path fill="#1A1A1F" fill-rule="evenodd" d="M52.9386 26.6534c-.6707.2521-2.0213.4403-3.6476.05-.4707-.1129-.7337-.2896-.8627-.4976-.4595.2876-1.3652.3518-2.8116-.2241-1.2243-.4875-2.2138-1.0096-3.1843-1.5217l-.0059-.0031c-2.0909-.4239-3.309-1.7474-5.4024-2.2785-5.7422-1.457-7.1431-.239-10.179-2.9435-.6257-.5574-3.4335-3.2991-4.3491-2.9756-.186.0658-.3569.0991-.5085.108.0688.4191-.0825.9415-.031.9621.335.134-.2671.1619-.9456.0723.7696.1633 1.8213.5206 2.1739.9912.7819 1.0433.2794 2.3837 2.2824 3.3464.0318.0153 6.9041.0966 6.3798 1.4205.3546-.1418 1.4201-.0956 1.7027.0914 1.1746-.0362 3.0303.0923 5.029.7116 2.3554.7298 8.0783 4.2259 9.1014 3.8384.2572-.0975.5083-.1131.7182-.0806l.0022.0003c.427.0041.8875.0709 1.0236.1984a.2617.2617 0 0 1 .0075.0073c.0585.0615.0363.1117-.0395.1503l.0024.0003c.0747-.0386.096-.0887.0371-.1506a.2617.2617 0 0 0-.0075-.0073c-.1352-.1265-.5962-.1939-1.0236-.1984.2767.0434.4816.1706.5346.3046.1433.0173.296.0348.457.0514.0758-.0386.098-.0888.0395-.1503.0589.0619.0376.112-.0371.1506 1.0321.1068 2.4067.1806 3.8531-.0275 2.6872-.3868 3.0385-1.3058 3.4056-2.052.1876-.3814.3449-.7637.4863-1.1463-.8484.8971-1.9808 1.5774-3.5354 1.7886-.2102.0285-.4449.0302-.6655.0134Zm-26.1735-6.5979c.0401.0233.0716.0468.0927.0703.2267.2521-.2727.2811-.838.2059-.4619.0499-1.0319.0258-1.3952-.1706-.5647-.2189-.5148-.6295-.5995-.8127-.0239-.0517-.0549-.104-.0706-.1556-.0516-.0614-.0554-.1029-.0218-.1277-.0056-.3177.4821-.1448 1.0144.1355.6844.1906 1.4897.5056 1.6845.7174.0334.0363.056.0676.0686.0942.0322.0137.0534.0282.0649.0433Z" clip-rule="evenodd"/><path fill="#1A1A1F" d="M76.633 23.2691c-.0218-.2044-.0707-.4188-.1531-.6458-.4771-1.314-2.9315-7.2624-8.9246-7.57-4.3758-.2246-6.4569 2.1856-7.1104 2.8134-.2361.2267-.4261.7152-.6322 1.352a9.0527 9.0527 0 0 1 .3791-.3937c.8983-.879 2.479-2.1695 6.6382-2.3286 3.4805-.1332 5.8488 1.471 6.4818 2.0233 1.7754 1.549 2.8169 3.1687 3.3212 4.7494ZM52.2955 36.1124c.7573-.3274 1.7004-.509 2.8673-.3847 2.9484.3142 6.9812 5.628 7.4225 6.0828.2459.2534 1.2746 2.2694 3.698 2.0042 6.2199-.6807 5.3334-4.01 6.3544-5.5919-.1929.1881-.323.312-.3317.3318-.0139.0315-.0508.0583-.1049.0807.0289.0431.036.0873.0152.1313-.3083.6496-1.6455 4.2904-7.2906 3.5711-2.3476-.2992-6.4347-5.6631-7.0014-6.1816-.7236-.6619-2.0826-2.5706-4.5303-1.482.0112.0754-.0703.1075-.2292.1034-.6108.2519-.9418.0933-.9483-.1771-2.5654-.6595-8.6108-2.9664-10.9217-3.6317-.3353-.0965-.7071-.1912-1.1364-.2614-1.0141-.1658-1.6717.0032-2.1577.1757-.0016.0644-.0835.0856-.223.0769-.3192.0826-.6521-.0127-.8305-.1677-.935-.241-2.2266-.642-2.7178-.5326-3.6038.8027-4.8755 2.1921-6.1585 3.3565-.3555.3226-.6149.3191-.7824.1647-1.4026.0472-.7206-1.1839-2.4519.0481-.1316.0937-.5018.1372-.8831.1247-.2174.1503-.9448.2652-2.6588.1839a3.1972 3.1972 0 0 1-.2785-.0146c-1.1312-.0658-1.1165-.1548-.6544-.2428-.3953-.421.3327-1.2248.3763-1.3758.4099-1.4184.2756-2.8528.1637-4.2952a.879.879 0 0 1-.0017-.0265.0608.0608 0 0 1-.0052-.0294.0993.0993 0 0 1 .0029-.018l.0009-.0034c.0006-.3246.1967-.3281.4668-.1695.1393.0819.2985.207.4605.3533.0507-.0683.1955-.1674.4086-.2884 1.224-.6946 4.7005-2.1106 5.5597-2.5738.2384-.1285.4926-.2794.9189-.3755.3477-.0783.5547-.0358.6317.0891.5238-.0342 1.1441-.089 1.3805-.2296.7993-.4755.8897-1.0345.9873-1.5713a1.2973 1.2973 0 0 1-.0819.0834c-.3028.2832-1.7802.3676-2.5439.0285-.1878-.0834.2931.1974.123.2677-.87.3597-1.3263.7776-1.9325 1.1739-1.8886 1.2346-5.4687 1.3114-6.2961 1.7003-1.009.4743-.1152 1.4987-.0485 2.054.1416 1.1776-2.3783 6.0337-1.0798 6.7518 1.7411.9628 5.4565-1.017 6.6593-.6505 1.3571.4135-2.0114 4.2645-2.1796 4.6016a4.2275 4.2275 0 0 0-.3136.8338c.0892-.1215.1732-.2268.2331-.3062a.1614.1614 0 0 1 .0349-.033c.0546-.0426.1589-.0781.3187-.1016a2.211 2.211 0 0 1 .1842-.0194 3.1815 3.1815 0 0 1 .1555-.0069c1.2376-.0259 1.1383.4991.9672.8924.0127.086.0191.1736.0205.2607.0859-.2327.1485-.4198.1618-.531.199-1.6679-.2747-8.3395 8.2305-8.7651a3.81 3.81 0 0 1 .1117-.0053l.017-.0005c.3123-.0125.521-.0026.6458.0247.5058-.0261 1.0777.0562 1.3983.3766.3188.3185.0772.6908-.6094.9278-.1021.0352-.2397.0576-.393.0686-.0308.0992-.0866.1898-.1469.2468a.3651.3651 0 0 1-.0063.0067c-.091.5143-1.355 1.0698-1.8718 1.5445-.5033.4622-.9772.9278-1.4175 1.3964-.8447.899-1.2331 1.8255-1.4128 2.765.3494-1.2746 1.4998-2.5099 3.1082-3.6696a.3426.3426 0 0 1 .0642-.0353c.1049-.0492.2905-.0842.5375-.0942a1.6634 1.6634 0 0 1 .2022.0039c.4986.0079 1.0316.1064 1.0472.2614.0098.0975-.0007.2027-.0285.3147.0965.1253.178.2633.2473.4061-.5251-1.6768-.7888-4.3413 3.9114-4.0298 3.1322.2076 4.792 1.4063 6.1563 1.9981.9548.414 2.1665.6284 3.2717.8273.493.0009 1.064.0932 1.1517.221.4532.0983.8551.2078 1.1697.3467.4829.2132.7392.4164.816.6103ZM73.3984 37.4501c.1176-.0453.2591-.0837.4313-.1121.2311-.038.9072.0196 1.3074.0667-.4059-.1836-.4101-.8553-.2959-1.5712-.1017.0176-.2219.0292-.3514.0338-.078.4136-.5853 1.039-1.0914 1.5828ZM48.8865 24.4023c.0956-.3553.1744-.7139.2287-1.075-.1275.1132-.6238.1722-1.1397.1187-.2982-.0309-.4723-.0768-.5724-.1302-.2251-.0179-.431-.0552-.5631-.1152-.0012-.0006-.0015-.0019-.0015-.0019-.0517-.0215-.0907-.042-.1184-.0615a.694.694 0 0 1-.0932-.0446c-2.7525-1.6058-3.7758-3.5332-4.4168-5.1555-.1283-.3248-.0386-.4208.1702-.3793-.3821-.2519-.6882-.504-.7332-.6279l-.0035-.0099c-.0161-.0409-.0247-.0762-.0262-.1061-.029-.2366.2211-.2285.5721-.0991.26-.022.5856-.0106.9068.0543 1.8159.367 3.0403 1.2201 3.6659 1.6805 1.331.9797 2.0968 2.0186 2.3797 3.0355-.2043-1.4684-1.0144-2.9571-2.9346-4.4188-.5055-.3847-2.8496-2.1542-5.7263-2.1718-2.4645-.015.6045 1.821 1.1507 2.6254.533.7849.8694 1.5682 1.363 2.3528.3565.5667.7619 1.1336 1.2137 1.7003.974 1.2218 3.5193 2.7965 4.3278 3.4929l.0112.0099c.1389-.2778.2986-.5228.3391-.6735Z"/><path fill="#1A1A1F" d="M30.4425 42.8454c-.0425.7633-.0963 1.5265-.2272 2.2854-.026.1504-.0627.3002-.101.4499.2459-.1323.4884-.265.7329-.3974 1.3978-.7566 2.724-1.526 3.7282-2.3341 1.3949-1.1226 1.9925-2.3092 1.9975-3.5383.0026-.647-.1279-1.2995-.3108-1.9529-.0267-.0956-.0984-.2691-.1868-.4966.0928.3608.1299.662.1593.7573.6824 2.2059-.3763 3.9962-4.0038 5.8363a.4641.4641 0 0 1-.0432.0192c-.058.0248-.1387.0458-.244.0615l-.0268.0038-.0129.0016a2.6188 2.6188 0 0 1-.1931.0175 1.903 1.903 0 0 1-.1081.0029 3.5938 3.5938 0 0 1-.074.0012 2.7498 2.7498 0 0 0 .3752-.0216 1.3619 1.3619 0 0 1-.0872.0078 3.0644 3.0644 0 0 1-.214.0126 1.903 1.903 0 0 0 .1081-.0029 2.6053 2.6053 0 0 0 .206-.0191l-.0129.0016a2.7498 2.7498 0 0 1-.3752.0216c-.1993.001-.4127-.0143-.6105-.0482-.2798-.048-.3416-.1589-.264-.3056-.0928-.1053-.1617-.2289-.2117-.3635ZM39.2619 47.2383c.6452-.083 1.5879-.1171 1.9425-.1963 2.0026-.4475 3.1137-1.1442 4.0193-1.7795 1.1654-.8177 1.8396-1.6684 2.3265-2.5328-.6433.5505-1.394 1.0623-2.0645 1.479-.8386.5212-2.0317 1.2358-4.1948 1.4989-.2463.2713-.4586.2372-.6296.0584-.6423.0315-.5789-.1132-.209-.3232-.2174-.4603-.3121-1.1145-.2505-1.2324.614-1.1757 1.039-2.3782 2.4837-3.4807.9556-.7293 2.0211-1.0503 4.6949-1.3173.1906-.0191.3946-.0196.588-.0066.3513.0185.6893.0812.8201.1847.0256.0177.0429.0359.0504.0545.0317.0409.0604.0821.0862.1238.1764-.3395.3768-.6777.619-1.0134.1334-.185.4555-.8164 1.0697-1.4586-2.2604.721-6.0528 1.2936-6.8289 1.8073-1.6336 1.0814-2.3318 2.2784-2.9338 3.4569-.0528.1034-.1009.2071-.1514.3107-.4436.9107-.9081 1.8231-1.5815 2.7159-.1808.2397-1.141 1.454.1437 1.6507ZM24.7264 44.1244c.1475-.1586.2704-.2822.319-.3435.034-.0429.1099-.0803.2256-.1081-.1186-.4031.0455-1.0537.258-1.6797-.087.0211-.197.0368-.3287.0452a2.0343 2.0343 0 0 1-.2179.0028c-.3516.0034-.7393-.0421-.9714-.1464a1.2483 1.2483 0 0 1-.0732-.0357c.1058.7471.3891 1.5011.7886 2.2654ZM31.2336 40.5962c-.3414-.3523-.6385-.7611-.6907-.9568-.0421.4284-.0538.8588-.058 1.2898l.0047-.0198a3.7834 3.7834 0 0 1 .0142-.0611.0701.0701 0 0 1 .0035-.0116c.0113-.0326.0421-.0627.108-.0897.2356-.0968.4404-.1439.6183-.1508Z"/><path fill="#1A1A1F" stroke="#1A1A1F" stroke-linecap="round" stroke-linejoin="round" stroke-width=".5625" d="M93.9065 34.7505c.1862-.9217.0438-2.016-.2143-2.9023.0922-.0595.1782-.1359.2587-.2247.209-.2305.337-.5125.3403-.7962.1335-11.2408-7.4475-19.3273-17.975-24.2606-10.5281-4.9335-24.0611-6.748-35.9935-5.4339-6.5936.7262-14.2414 2.6697-21.0357 6.0718-6.7925 3.4012-12.7556 8.2725-15.9385 14.8669-3.3982 7.0404-3.2939 13.2173-.8052 18.4602 2.4826 5.23 7.3199 9.4938 13.3202 12.7625 11.9974 6.5357 28.7548 9.1535 41.0989 7.5083 10.6456-1.4188 23.2014-5.8241 31.1149-14.7605 3.1045-3.5057 5.0541-7.4531 5.8292-11.2915Zm-2.365-4.5447a.4515.4515 0 0 0-.0604.0429c-.0873.0734-.1421.1728-.1788.2685-.0732.1908-.1096.4619-.1175.8058-.1707 7.3908-4.4707 13.332-10.6938 17.7447-6.2243 4.4136-14.3449 7.2754-22.0722 8.4998-11.7896 1.8682-28.0757-.6457-39.6549-6.9792-5.7879-3.1658-10.3704-7.2698-12.6446-12.2266-2.2679-4.9429-2.2588-10.7733 1.2103-17.4484 3.7907-7.2943 12.437-11.54 20.4236-14.104C46.0368.9394 62.1103 4.0299 74.6142 11.033c5.6532 3.1661 10.8369 7.0684 14.0487 12.2483l.0039.0102.0377.101a129.9404 129.9404 0 0 0 .6375 1.6813c.4097 1.0578.9555 2.4227 1.5029 3.6535.2327.5229.4684 1.0284.6966 1.4785Z"/><path fill="#1A1A1F" d="M59.2694 49.2912c.0486-1.1068 2.4771.6872 1.1678 2.824-1.9394 3.1652-7.9998 3.0166-9.0055-1.8137-1.4223-6.8307 9.9575-7.6325 9.7035-.697-.0754 2.0578-2.6549-3.0129-4.3451-3.2388-2.1606-.2888-3.8625 1.6739-3.5611 3.7113.6218 4.2038 5.9096 2.1935 6.0404-.7858Z"/><path stroke="#1A1A1F" stroke-linecap="round" stroke-linejoin="round" stroke-width=".3656" d="M58.8217 50.9305c-1.1694 2.188-5.2613 1.7074-5.4989-1.41-.2858-3.7502 5.9922-3.8612 5.8272.084m1.2872 2.5107c1.3093-2.1368-1.1192-3.9308-1.1678-2.824-.1308 2.9793-5.4186 4.9896-6.0404.7858-.3014-2.0374 1.4005-4.0001 3.5611-3.7113 1.6902.2259 4.2697 5.2966 4.3451 3.2388.254-6.9355-11.1258-6.1337-9.7035.697 1.0057 4.8303 7.0661 4.9789 9.0055 1.8137Z"/><path fill="#1A1A1F" d="M84.7664 30.6273c-.7612-.4192 1.301-1.4485 2.3689.1891 1.5819 2.4257-.5248 6.504-4.2491 5.5047-5.2668-1.4132-2.0698-9.4482 2.7166-6.8561 1.4202.7691-2.9929.7585-3.71 1.8316-.9167 1.3717-.1008 3.2161 1.4295 3.7213 3.1575 1.0425 3.493-3.2623 1.4441-4.3906Z"/><path stroke="#1A1A1F" stroke-linecap="round" stroke-linejoin="round" stroke-width=".5625" d="M84.9469 30.8179c-2.716-1.4884-4.7123 2.8287-1.9843 3.942 2.2676.9254 3.9571-1.6956 2.807-3.2557-.7966-1.0806-2.7206-.1158-1.6591.476m3.0248-1.1638c-1.0679-1.6376-3.1301-.6083-2.3689-.1891 2.0489 1.1283 1.7134 5.4331-1.4441 4.3906-1.5303-.5052-2.3462-2.3496-1.4295-3.7213.7171-1.0731 5.1302-1.0625 3.71-1.8316-4.7864-2.5921-7.9834 5.4429-2.7166 6.8561 3.7243.9993 5.831-3.079 4.2491-5.5047Z"/><path fill="#1A1A1F" stroke="#1A1A1F" stroke-linecap="round" stroke-linejoin="round" stroke-width=".3375" d="M56.7188 11.1034a1.7363 1.7363 0 0 0-.1195-.3959.3808.3808 0 0 0 .0549-.0153c.115-.0414.1921-.1312.2388-.2421.0449-.1068.0657-.2411.0699-.3975.0201-.7393-.2618-1.5026-.7244-2.1471-.4631-.645-1.1156-1.1831-1.8543-1.4662-.7414-.284-1.5716-.3113-2.3739.0724-.8001.3825-1.5524 1.1638-2.1622 2.4583-.5465 1.1603-.6867 2.14-.5413 2.946.1457.808.5757 1.4246 1.1374 1.8604.5596.4342 1.249.6887 1.9222.7819.6719.093 1.3416.0272 1.8627-.195 1.0956-.467 1.7612-1.0461 2.1318-1.6317.3711-.5861.4402-1.1692.3579-1.6282Zm-1.4495-1.1381c.1507.1243.2963.2425.4334.3464a.5217.5217 0 0 0-.036.0445c-.1014.1406-.1539.3538-.1632.6263-.0204.6001-.3999 1.0324-.9718 1.2887-.5751.2579-1.3253.3252-2.0185.191-.6948-.1345-1.303-.4651-1.6247-.9712-.3152-.4958-.3796-1.1997.091-2.144.2267-.4548.4773-.7329.7333-.8899.2535-.1555.5261-.2006.8153-.1653.5926.0725 1.2408.4802 1.8647.9611.2442.1883.4791.383.702.568l.1745.1444Z"/><path fill="#1A1A1F" stroke="#1A1A1F" stroke-linecap="round" stroke-linejoin="round" stroke-width=".4219" d="M8.0522 30.3933c.0233.1297.0586.2507.1032.3601l-.0114.004c-.1288.0464-.2134.1466-.2634.2654-.0478.1137-.0689.2539-.0732.4128-.0204.7504.2656 1.5226.7324 2.1728.4672.6509 1.126 1.1946 1.8734 1.4809.7507.2877 1.593.3157 2.4072-.0736.8114-.388 1.5696-1.1781 2.1821-2.4785.5492-1.1659.6921-2.1546.5447-2.9714-.1478-.8194-.5841-1.4449-1.153-1.8863-.5664-.4394-1.263-.6963-1.9423-.7903-.6777-.0938-1.3554-.0279-1.885.1979-1.1015.4696-1.7747 1.0535-2.151 1.648-.3767.5952-.4479 1.189-.3637 1.6582Zm1.5179 1.0981a14.7268 14.7268 0 0 0-.3998-.3207.5907.5907 0 0 0 .0097-.013c.1087-.1506.1618-.3738.1712-.6495.0197-.5793.3849-.9998.9468-1.2517.5661-.2537 1.3072-.3208 1.9933-.188.6879.1332 1.2837.4594 1.5971.9523.3052.4803.3728 1.1678-.0932 2.1026-.2243.4501-.4702.7211-.7175.8728-.2443.1498-.507.1937-.7882.1593-.58-.0709-1.2201-.4717-1.844-.9526-.2436-.1877-.4778-.3819-.7005-.5667-.0591-.049-.1175-.0974-.175-.1448Z"/></svg>
