<svg xmlns="http://www.w3.org/2000/svg" width="394" height="256" fill="none" viewBox="0 0 394 256"><path fill="#000" fill-rule="evenodd" d="M148.999 5.472c7.425-1.353 17.775-2.852 23-3.33 60.9-5.577 127.873 9.021 169.98 37.048 22.585 15.033 40.038 36.584 46.816 57.81 3.992 12.499 6.061 29.566 4.034 33.262-.712 1.299-1.114 4.966-.958 8.738.592 14.277-9.606 36.207-24.888 53.518-28.817 32.644-80.04 56.217-135.926 62.554-13.384 1.517-54.839.642-68.558-1.447C84.8214 241.793 28.6974 211.145 8.4444 169.5c-11.986-24.644-10.77-50.859 3.714-80.089 20.13-40.624 71.255-71.984 136.8406-83.939ZM57.9124 56.118C84.1694 36.865 126.909 21.924 169.76 17.017c13.504-1.546 48.154-.472 61.739 1.913 38.723 6.8 75.701 22.586 104.625 44.666 18.158 13.862 28.757 26.631 34.867 42.006 2.381 5.994 5.13 12.513 6.107 14.487 1.564 3.158 1.663 4.798.827 13.682-2.026 21.536-10.416 38.657-27.001 55.098-23.214 23.012-60.009 40.524-101.925 48.509-42.945 8.181-100.482 1.837-146-16.097-45.8576-18.068-75.3046-45.031-82.4986-75.539-1.899-8.055-1.907-23.682-.016-32.669 1.906-9.062 6.463-20.831 11.246-29.046 4.575-7.859 17.221-21.339 26.182-27.909Zm145.8556-9.884c0-8.725 6.712-19.183 13.546-21.107 5.682-1.6 12.091.855 15.985 6.122 3.492 4.722 3.889 6.471 3.116 13.727-.61 5.722-1.142 6.972-4.33 10.166-10.638 10.66-28.317 5.098-28.317-8.908Zm9.533 2.228c-2.738-1.794-3.057-6.102-.776-10.512 1.216-2.353 2.178-2.945 4.75-2.925 3.717.028 12.724 6.081 12.724 8.55 0 6.618-9.716 9.462-16.698 4.887Zm-53.182 20.335c-6.788-6.102-6.662-7.416.846-8.863 4.42-.852 12.786-.179 20.269 1.63 16.044 3.88 26.822 14.608 29.632 29.495.942 4.993.809 5.879-1.618 10.76-2.233 4.489-2.419 5.461-1.197 6.234 3.261 2.063 16.629.075 19.261-2.865.832-.928 2.458-5.69 3.615-10.58 3.579-15.137 8.6-21.872 20.918-28.055 12.192-6.12 26.858-7.965 39.09-4.918 15.083 3.758 22.495 9.06 29.575 21.155 5.872 10.032 6.328 14.141 3.067 27.673-2.136 8.864-2.578 13.088-2.578 24.649 0 17.029-.974 20.21-6.594 21.539-3.402.805-4.213 1.666-7.744 8.232-7.439 13.829-14.087 18.104-29.401 18.905-8.809.461-9.572.333-15.525-2.597-4.252-2.093-8.503-5.42-13.248-10.366-3.844-4.006-9.975-10.308-13.625-14.005l-6.637-6.721-3.863 1.048c-9.111 2.471-13.161 7.212-17.387 20.353-5.205 16.184-10.769 21.625-25.638 25.074-14.386 3.336-28.163 1.703-29.826-3.536-.997-3.142 2.706-9.746 11.176-19.933 10.046-12.082 14.301-14.564 29.519-17.22 21.105-3.683 22.272-6.16 4.671-9.922-5.158-1.102-13.219-3.767-17.914-5.921-4.695-2.154-10.849-4.223-13.677-4.598-4.656-.618-5.382-.44-7.713 1.891-3.062 3.062-3.203 5.603-.952 17.06 1.484 7.554 1.487 8.716.039 13.68-2.472 8.47-10.739 15.789-25.981 23-12.143 5.744-15.666 3.586-13.832-8.475.594-3.905 1.303-9.805 1.575-13.11 1.028-12.458 6.435-22.653 15.272-28.796 2.527-1.757 5.542-3.974 6.7-4.928 3.641-2.998-8.628 1.61-13.848 5.202-8.578 5.901-10.898 10.955-11.954 26.033-.579 8.263-1.705 12.002-5.89 19.545-2.651 4.779-2.98 5.02-6.326 4.629-2.087-.243-3.7656-1.079-4.1056-2.043-.316-.898-1.254-2.423-2.084-3.389-7.317-8.517-7.702-15.356-1.551-27.57 2.125-4.22 3.987-7.93 4.138-8.245.151-.315-3.449-.378-8-.141-10.378.541-16.435-.948-18.022-4.431-1.008-2.214-.716-3.365 2.254-8.867l3.413-6.324-2.224-6.833c-2.786-8.559-2.765-9.448.291-12.319 2.012-1.89 4.065-2.471 10.75-3.044 9.816-.842 11.946-1.608 17.5926-6.326 4.546-3.798 9.46-5.628 15.135-5.637 3.288-.006 3.376-.094 1.729-1.741-1.335-1.335-4.095-1.859-11.964-2.27-10.0556-.526-15.4076-2.135-17.4156-5.238-.447-.691-1.265-3.275-1.817-5.742-.818-3.655-1.872-5.128-5.698-7.96-5.408-4.003-5.143-5.068 1.854-7.452 3.67-1.251 5.507-1.335 9.688-.448 8.4596 1.796 13.2176 4.62 19.1276 11.351 7.428 8.461 11.054 10.028 27.553 11.91 14.317 1.633 22.706 3.903 32.279 8.736 10.852 5.478 11.433 5.487 6.695.109-2.308-2.618-7.022-9.058-10.476-14.311-3.454-5.252-8.584-11.621-11.399-14.153Zm86.324 29.651c4.379-14.591 11.13-22.813 21.888-26.658 10.887-3.891 23.46-.708 32.082 8.122 2.916 2.986 3.833 4.921 4.72 9.96.673 3.821 2.005 7.328 3.422 9.012l2.32 2.758-2.817 1.664c-5.932 3.504-7.364 11.403-4.51 24.879 1.252 5.91 1.324 8.127.377 11.54-.645 2.324-.952 5.068-.683 6.098.37 1.413-.324 2.166-2.827 3.071-4.168 1.507-8.416 6.462-8.416 9.815 0 6.215-8.584 14.155-16.227 15.009-6.293.703-12.891-4.011-18.503-13.218-5.74-9.418-9.399-12.982-17.101-16.658-6.828-3.258-17.453-4.902-20.536-3.176-1.169.654-8.415-1.342-25.197-6.937-17.819-5.942-25.309-7.973-30.747-8.336-3.954-.264-9.664-.947-12.689-1.518-4.352-.822-6.932-.706-12.363.555-8.185 1.901-20.747 6.8-24.758 9.656-2.053 1.462-4.706 2.116-9.246 2.28-4.095.148-7.3376.866-9.0866 2.012-3.467 2.271-3.944 1.719-2.624-3.034 1.506-5.425 1.279-12.494-.475-14.815-1.436-1.899-1.213-2.017 6.162-3.263 8.1776-1.381 16.2896-4.888 20.4456-8.838 1.897-1.803 3.668-2.428 6.882-2.428 4.876 0 10.609-2.996 11.579-6.05.764-2.407 1.029-2.405 11.411.084 5.647 1.354 12.138 4 19.682 8.024 11.218 5.984 18.155 8.219 34.13 10.999 6.235 1.085 8.42 1.028 15.749-.412 11.085-2.178 19.339-5.318 22.629-8.608 1.721-1.721 3.577-5.759 5.327-11.589ZM184.249 78.48c-1.238-1.215-2.25-2.495-2.25-2.845 0-3.302 9.268 4.01 12.087 9.536 3.193 6.258 1.719 6.651-3.141.837-2.445-2.925-5.458-6.313-6.696-7.528ZM30.5864 126.937c.968-8.559 5.814-14.121 13.913-15.969 6.251-1.426 14.845 1.961 17.84 7.031 5.168 8.748-2.311 26.301-12.36 29.006-6.87 1.85-14.402-2.113-17.951-9.446-1.805-3.728-2.033-5.404-1.442-10.622Zm313.4206 24.947c-14.119-4.23-15.908-21.97-3.086-30.61 5.933-3.999 13.447-2.564 20.268 3.869 6.528 6.157 6.087 15.816-1.05 22.953-4.384 4.383-9.856 5.668-16.132 3.788ZM37.9994 128.312c0-2.417 2.009-5.373 4.315-6.35 2.93-1.242 9.708-.251 11.909 1.741 3.618 3.274.575 13.297-4.038 13.297-2.402 0-12.186-6.975-12.186-8.688ZM138.66 170.673c-6.28 6.853-7.239 1.036-1.306-7.921 1.73-2.612 3.482-4.749 3.895-4.75.413-.001.75 2.03.75 4.513 0 3.724-.585 5.152-3.339 8.158Zm43.5 1.654c1.836-1.746 4.914-3.58 6.839-4.077 2.669-.689 3.577-.586 3.825.433.456 1.872-3.345 7.735-7.014 10.823-3.529 2.969-10.777 6.862-11.475 6.163-.918-.917 4.536-10.217 7.825-13.342Zm31.804 24.245c2.566-5.301 8.929-9.641 15.479-10.556 10.287-1.438 19.324 2.703 23.479 10.758 2.495 4.837 1.023 17.12-2.647 22.084-5.808 7.856-19.095 10.013-27.956 4.539-9.002-5.563-12.778-17.687-8.355-26.825Zm15.935 19.516c-8.908-2.669-10.699-15.309-2.79-19.692 5.473-3.034 13.616-.76 16.373 4.571 2.133 4.125 1.894 6.849-.922 10.542-3.505 4.596-7.628 6.087-12.661 4.579ZM349.182 144c-7.367 0-10.906-8.368-5.728-13.545 2.757-2.758 7.046-1.666 8.546-.955 2.694 1.277 3.819 2.352 4.572 6.114.777 3.884-3.191 8.386-7.39 8.386Z" clip-rule="evenodd"/></svg>
