<svg xmlns="http://www.w3.org/2000/svg" width="16" height="16" fill="none" viewBox="0 0 16 16"><path fill="#292428" d="M5.71 12c-.38 0-.54-.1-.54-.2 0-.09.08-.15.23-.15.18 0 .2-.37.35-.77.36-.88.99-1.2 1.99-1.2.34 0 .76-.28.76-.52 0-.08-.08-.15-.18-.15-.1 0-.34.08-.48.08-.57 0-1.47-.84-2.15-.84-.47 0-.83.28-.83.64 0 .34.38.67.38 1.2 0 .85-1 1.25-1.61 1.44-.23.08-.27.31-.43.31-.05 0-.08-.04-.08-.11 0-.22.23-.36.23-.66 0-.31-.04-.6-.04-.84 0-.69.2-1.15 1.24-1.69.17-.08.25-.18.25-.25 0-.06-.06-.1-.16-.1-.83 0-1.96.63-1.96 1.41 0 .18.08.62.08.86 0 .37-.37.5-.46.86-.03.15-.02.29-.12.29-.1 0-.11-.16-.2-.32-.13-.22-.36-.45-.36-.79 0-.66.87-.92.87-1.42 0-.08-.03-.15-.1-.15-.18 0-.35.31-.64.31-.3 0-.33-.1-.58-.1A.17.17 0 0 1 1 8.97V6.98c0-.09.08-.16.17-.16.1 0 .26.05.43.05.84 0 1.05-.73 1.63-.73.1 0 .17.06.25.06.07 0 .13-.04.13-.12 0-.18-.3-.28-.52-.28-.2 0-.28.04-.63.04-.7 0-.76-.62-.83-.85-.07-.23-.2-.32-.3-.32-.12 0-.2-.06-.2-.11 0-.1.16-.2.52-.2.63 0 .95.45 1.17.76.22.31.5.6.84.6.26 0 .45-.03.8-.03 1.63 0 2.71 1.24 3.18 1.24.1 0 .16-.06.16-.15 0-.1-.06-.2-.23-.26-.78-.32-1.1-.83-1.34-1.45s-.5-.78-.63-.78c-.14 0-.22-.06-.22-.12 0-.08.13-.17.44-.17 1.93 0 2.44 1.4 2.44 1.9s-.19.64-.19.83c0 .2.1.26.25.26.36 0 .62-.17 1.08-.17h.17v2.32H9.4c-.39 0-.66.23-1 .58-.34.36-.16.72-.66 1.4-.57.82-1.5.88-2.03.88Z"/><path fill="#292428" d="M12.06 11.23c-.58 0-1.08-.5-1.47-1.1-.39-.6-.86-.99-1.1-.99h-.1V6.82h.18c.35 0-.07-2.76 2.77-2.76.89 0 1.52.3 2.12 1.07.31.4.54 1.18.54 1.56 0 .1-.12.14-.18.14s-.15-.06-.23-.15c-.04.26-.09.38-.09.71 0 .52.09 1.5.09 1.87 0 .27-.19.36-.34.36-.15 0-.28-.1-.37-.06-.03 0-.03.07-.03.16v.18c0 .13 0 .26-.07.31-.07.08-.12.1-.16.1l-.07-.02.03.15c0 .05-.02.1-.08.13-.1.05-.3.1-.36.18-.18.22-.29.48-1.08.48Zm-.27-4.14c.1.01.17.07.25.14.07.06.31.26.57.32a.47.47 0 0 1-.28-.44.5.5 0 0 1 .2-.4c-.23.02-.53.15-.74.38Zm1.03.47c.36.04.6-.1.84-.3-.16-.25-.46-.5-.74-.53.17.1.23.25.23.4 0 .2-.13.4-.33.43Z"/></svg>
