<svg xmlns="http://www.w3.org/2000/svg" width="16" height="16" fill="none" viewBox="0 0 16 16"><path fill="#1A1A1F" fill-rule="evenodd" d="M7.8975 3.0038c-.0554.0038-.076.015-.1357.074-.1044.1032-.1322.1083-.4829.0877-.163-.0095-.3472-.0202-.4094-.0237-.1232-.0069-.2955.0175-.3324.047-.0127.0103-.0545.032-.0929.0482-.062.0263-.0787.0277-.1503.0128-.1502-.0313-.3232-.0137-.4483.0457-.179.085-.5295.1186-.8167.0783-.0524-.0073-.097-.001-.1886.027-.114.0347-.2705.0947-.327.1254-.0144.0078-.033.0143-.0413.0143-.0083 0-.0573.0196-.109.0435-.0518.024-.118.05-.1474.0577a.3078.3078 0 0 0-.0909.043c-.1297.0995-.195.1443-.21.1443-.0094 0-.0514.026-.0934.0578-.042.0317-.0846.0577-.0947.0577-.01 0-.0413.0227-.0694.0505-.0282.0278-.0588.0505-.0682.0505-.0094 0-.033.0162-.0525.036-.0194.02-.044.0361-.0545.0361-.0106 0-.028.012-.0389.0268-.0108.0147-.0604.0485-.1102.0751a4.058 4.058 0 0 0-.1734.0993c-.1006.0618-.1898.1019-.2267.1019-.015 0-.0585.0227-.0965.0505-.038.0278-.0759.0505-.0841.0505-.0082 0-.015.009-.015.0199 0 .0186-.0388.0384-.1159.0591-.0181.005-.0724.0441-.1206.0872-.0483.043-.0956.0784-.1051.0786-.0172.0005-.1122.0694-.1867.1354a.4316.4316 0 0 1-.0754.0526c-.0205.0103-.0426.0275-.0493.0382-.0066.0108-.0191.0196-.0278.0196s-.0467.026-.0843.0577c-.0377.0317-.0771.0577-.0875.0577-.0104 0-.0384.0211-.062.047-.0493.0535-.2021.1662-.269.1983-.0249.012-.0826.0568-.1283.0998a6.4221 6.4221 0 0 1-.168.1515c-.0987.0852-.2846.2864-.2846.308 0 .0082-.0104.0187-.0233.0234-.0128.0047-.0332.0314-.0454.0592-.0122.028-.0284.0508-.036.0508-.0076 0-.0187.0146-.0245.0324-.0137.0415-.0927.197-.1523.2994a52.5959 52.5959 0 0 0-.0878.1516c-.0229.0396-.0475.0783-.0548.0858a.056.056 0 0 0-.0132.0338c0 .011-.0136.0366-.0302.0568-.0166.0202-.0301.049-.0301.064 0 .0151-.0235.0737-.0522.1303-.0287.0566-.0486.1084-.0442.1152.0044.0069-.006.0342-.0232.0607-.0172.0266-.0313.0607-.0313.0758 0 .015-.017.0513-.0377.0805-.0207.0292-.0377.0597-.0377.0677 0 .008-.0253.0652-.0563.127-.031.0619-.0573.1254-.0586.1413-.0012.0159-.0105.0516-.0205.0794-.0382.106-.0472.1388-.0533.1948-.0196.179-.0383.299-.0506.3236-.025.0503.003.3293.04.3979.0565.1046.0787.1556.0787.1808 0 .0137.0102.033.0226.0428.0125.0099.0226.0364.0226.059 0 .0253.0108.0465.0284.0555.0375.0192.0492.085.0236.1324-.0185.0342-.0176.0409.009.0639.0222.0192.0295.0444.0295.1019 0 .0419.0072.0805.016.0857.009.0052.014.0286.0115.052-.0026.0233.0028.047.012.0526.009.0057.0212.0348.027.0647.0057.03.0297.082.0533.1155a.8072.8072 0 0 1 .0669.1163.4517.4517 0 0 0 .062.0986c.0208.0237.0379.0498.0379.058 0 .0081.0203.0394.0452.0694.0249.0301.0453.0618.0453.0704 0 .0086.0166.0337.037.0557.069.0742.1094.1263.1347.1734.0138.0258.0317.0469.0398.0469.008 0 .0147.0129.0147.0288 0 .0159.005.029.0113.0292.0062.0002.0375.0229.0695.0505.032.0276.0643.0502.0716.0502.0074 0 .0135.0072.0135.0161s.0186.0376.0414.0638c.0228.0261.0647.0777.093.1145.0282.0368.0724.0773.098.0899.0256.0127.0546.0338.0643.0471.0098.0132.0454.0327.0792.0434.0474.015.0614.0267.0614.0516 0 .0214.0114.0349.034.0404.0186.0044.0468.0311.0626.0592.0159.0282.0338.0512.04.0512.0135 0 .064.0469.2064.1918.06.0612.1152.1112.1226.1112.0073 0 .0217.0193.0319.0428.0102.0235.0298.0462.0435.0504.0138.0042.0614.0389.1059.0772.0444.0383.112.0855.1504.1047.0382.0194.09.0575.115.0848.025.0273.064.0693.0869.0934.0228.024.0414.0488.0414.055 0 .0061.017.0112.0377.0112.0208 0 .0377.0065.0377.0144s.0104.0144.0231.0144.027.0098.0318.0217c.0048.0119.0177.0216.0287.0216s.0424.0195.0697.0433c.0272.0238.0584.0433.0693.0433.0314 0 .0941.0446.0941.067 0 .0111.0183.0269.0406.035.0223.0082.0498.0275.0611.043.0114.0155.0285.0282.038.0282.0095 0 .038.0186.0632.0415.0332.0299.0769.048.1568.0648.105.0221.1559.0489.2366.1246.0169.0158.0383.0288.0476.0288.0093 0 .0623.0195.1177.0433.109.0467.143.0522.1692.0272.0124-.0119.0305-.0061.0685.0216.0284.0208.0608.0378.072.0378.011 0 .0346.0129.0523.0288.0255.023.0544.0292.1405.0305.0798.0011.1083.0066.1083.0209 0 .021.096.0522.1263.0411.0103-.0038.0445.0035.0761.0162.0379.0151.0944.022.1651.02.0592-.0017.1144-.0013.1227.0008a.0766.0766 0 0 0 .0301.0004c.0083-.0018.0592-.002.1131-.0004.0755.0023.1058.0099.1318.0329.027.024.0587.0311.1584.0358.0685.0033.1483.0144.1773.0247.0313.0111.0651.014.083.0071.0493-.0188.1176-.0149.1659.0096.0249.0127.0753.0226.1121.0221.0368-.0006.0756.0059.0862.0142.0105.0084.0822.0208.1593.0275.077.0067.1782.0193.2248.028.0586.0108.0972.0111.1254.0009.0547-.0199.0689-.0187.0689.0059 0 .023.113.0454.1606.0319.0153-.0043.0652-.0093.1108-.0112.0457-.0018.0983-.0127.117-.0241a.117.117 0 0 1 .0767-.0127c.0234.0044.068-.0003.0994-.0106.0678-.0223.1802-.0052.2272.0346.0368.0311.1015.043.245.0451.06.0009.1056.0071.1013.0138-.0044.0067.0245.0091.0642.0053a6.873 6.873 0 0 1 .2531-.0149c.0995-.0043.2488-.011.3318-.0148.083-.0038.1712-.0061.196-.0051a1.378 1.378 0 0 0 .2002-.0045c.0437-.0036.083-.0011.0872.0055.0043.0066.0259.0054.048-.0026.0325-.0118.1986-.0101.3358.0036.062.0062.092-.0044.105-.0372.0198-.0496.057-.0659.1101-.0482.0578.0193.2032.0043.2363-.0242a.1036.1036 0 0 1 .0579-.0226c.0175 0 .0362-.0068.0416-.0151.0058-.0091.059-.0137.1328-.0115.0917.0027.1346-.0024.1683-.0202.093-.049.1213-.0553.2476-.0556.1877-.0005.2316-.0093.287-.0577.0317-.0277.0587-.04.0763-.0347.0233.0071.1087-.0279.1583-.0648.0083-.0062.0388-.0159.0678-.0216a.3924.3924 0 0 0 .0999-.0378c.029-.0168.0751-.0273.1206-.0274.0481 0 .0893-.01.1189-.0288.0249-.0157.056-.0287.0693-.0287.0132-.0001.0447-.01.07-.022.0253-.0121.0984-.0253.1624-.0293.1161-.0073.2163-.0456.2644-.101.01-.0115.0282-.021.0404-.021.0234 0 .0808-.0284.1686-.0835.0382-.0239.0646-.0305.096-.0239.0351.0074.0603-.0021.1315-.0499.0484-.0325.0983-.0591.1108-.0591.0388 0 .0704-.0167.0704-.0371 0-.0272.0606-.0784.0929-.0784.0147 0 .0491-.0178.0763-.0396a.674.674 0 0 1 .0797-.0557c.0165-.0087.03-.0282.0301-.0433.0001-.0319.0856-.0777.1452-.0778.0218 0 .0481-.0097.0584-.0216.0104-.0119.0348-.0217.0544-.0217.0253 0 .0383-.0103.045-.0361.0066-.0252.0198-.036.0437-.036.0188 0 .0427-.0098.053-.0217.0116-.0134.0447-.0216.0869-.0216.0593 0 .0792-.0089.1528-.0682.0465-.0375.09-.0765.0966-.0866.0066-.0101.042-.0255.0787-.0344.0509-.0123.0737-.0276.0971-.0655.0223-.0361.0572-.0609.1301-.0922.0548-.0235.1139-.0427.1313-.0427.0524 0 .1432-.0711.1775-.139.0177-.0349.0443-.0697.0592-.0773.0148-.0076.0312-.0302.0364-.0501.007-.0266.0184-.0353.0427-.0328.0245.0025.0411-.0106.0637-.0503.024-.0422.0437-.0567.0911-.0673a1.8627 1.8627 0 0 0 .1519-.0449c.0788-.0269.0963-.0398.1271-.0937.0312-.0546.0399-.0609.0696-.0501.0252.0092.044.0048.0728-.0169.0284-.0213.0508-.0267.0833-.0199.0351.0074.05.0025.0715-.0233a1.402 1.402 0 0 1 .0648-.0708 6.163 6.163 0 0 0 .0972-.1018c.0327-.035.0802-.0707.1056-.0794.0383-.013.0475-.0253.0542-.0721.0106-.0746.0204-.0874.0819-.1068.0309-.0098.056-.0292.0622-.048.0058-.0173.0265-.0517.0461-.0763.027-.034.0333-.0555.0263-.0892-.008-.0383-.0018-.0508.0452-.0902.0353-.0297.0544-.0585.0544-.0819 0-.0198.0162-.0545.0361-.0771.0358-.0408.075-.1462.0917-.2467.0048-.029.0181-.06.0294-.069.0114-.009.0251-.039.0305-.0665a.133.133 0 0 1 .0528-.0805c.0348-.0246.045-.0454.0533-.1092.0057-.0433.0199-.1008.0317-.1277.0118-.027.0213-.0671.0213-.0892-.0001-.0274.0145-.0517.0461-.0766.0441-.0346.0465-.0422.0512-.1587.0091-.2267.0598-.4835.1048-.5311.0383-.0406.0407-.1134.0109-.332-.0149-.1097-.0159-.1533-.0035-.1652.0092-.0088.0168-.034.0168-.0558s.0073-.055.0162-.0738c.0191-.04-.015-.15-.0792-.2559-.0217-.0357-.0439-.0812-.0495-.101a.6228.6228 0 0 0-.0224-.065c-.0068-.0158-.0197-.0826-.0287-.1484-.0095-.0696-.0261-.1289-.0395-.1417-.0127-.0122-.0231-.0305-.0231-.0408 0-.0103-.0136-.0352-.0302-.0553-.0166-.0202-.0301-.056-.0301-.0794a.143.143 0 0 0-.0281-.0771.7271.7271 0 0 1-.061-.0964c-.0181-.0342-.0423-.0655-.0538-.0697-.0235-.0086-.0532-.08-.0532-.1275 0-.0172-.0203-.0499-.0452-.0727s-.0453-.0563-.0453-.0744c0-.025-.0117-.0359-.0482-.045-.0365-.009-.0512-.0226-.0601-.0557-.0065-.024-.0255-.0555-.0423-.07-.0167-.0145-.0303-.0323-.0303-.0396 0-.0146-.0943-.1089-.4409-.441-.2527-.2422-.2576-.247-.3158-.3117-.0354-.0395-.1509-.1051-.2274-.1294-.0145-.0046-.0264-.0223-.0264-.0393 0-.0237-.007-.0293-.0296-.0236-.0163.004-.0377-.002-.0476-.0134-.01-.0114-.0274-.0174-.0389-.0132a.0235.0235 0 0 1-.0293-.0138c-.0048-.0117-.0167-.0214-.0267-.0214-.0099 0-.0411-.0162-.0692-.036-.0281-.0199-.0628-.0361-.0771-.0361-.0144 0-.0492-.0258-.0774-.0574-.041-.0458-.0679-.061-.1332-.0749-.045-.0096-.098-.0292-.1177-.0436-.0198-.0144-.044-.0261-.0538-.0261-.0098 0-.0574-.0194-.1058-.043-.0484-.0237-.1124-.0474-.1423-.0526-.0652-.0114-.1049-.0358-.1278-.0783-.0178-.0332-.0823-.0735-.2206-.1381-.133-.0622-.3598-.1922-.4901-.2812-.0664-.0452-.1492-.0896-.1841-.0985-.0349-.0089-.0675-.0225-.0725-.0302-.005-.0077-.0282-.014-.0514-.014-.0233 0-.0596-.013-.0807-.029-.0211-.0158-.0542-.0288-.0737-.0289a.1947.1947 0 0 1-.073-.0193c-.1508-.0772-.2179-.1149-.2364-.1325-.0117-.0113-.0499-.0276-.0847-.0364a.565.565 0 0 1-.1133-.0437c-.0275-.0152-.0621-.0277-.077-.0277-.0149 0-.0942-.0155-.1763-.0344a12.686 12.686 0 0 0-.2699-.0588 4.253 4.253 0 0 1-.1961-.0444c-.0415-.011-.1229-.0237-.181-.0281-.2206-.0169-.4228-.0414-.4366-.053-.0079-.0067-.0554-.0122-.1055-.0122-.0995 0-.2675-.029-.3627-.0625-.0567-.02-.1175-.03-.279-.0462-.1827-.0183-.3272-.0406-.3544-.0546-.0166-.0086-.0641-.0203-.1056-.0261a2.506 2.506 0 0 1-.1508-.0268c-.0695-.015-.7118-.0279-.8647-.0174Zm.1504.8113c-.0202.016-.058.0284-.0873.0284-.0285 0-.0781.0129-.1104.0286-.0741.0362-.1603.0384-.2945.0075-.1329-.0305-.2489-.022-.3408.0249-.0587.03-.0986.0368-.2608.0452-.1053.0053-.203.016-.2172.0237-.0478.026-.3223.0518-.4092.0384-.0644-.01-.0925-.0077-.1324.0105a.291.291 0 0 1-.1007.0232.266.266 0 0 0-.0961.022c-.0365.0174-.0682.0196-.1504.0102-.1103-.0126-.1914-.0005-.2326.0349-.0167.0143-.0282.0163-.0349.006-.0142-.0222-.1297-.018-.174.0063a.1996.1996 0 0 1-.0783.021c-.0227.0004-.0497.013-.0612.0288-.024.0326-.134.0602-.1941.0487-.0227-.0044-.1264.003-.2304.0164-.104.0134-.1957.0205-.2036.0158a.018.018 0 0 0-.024.0061c-.0052.008-.0244.0147-.0425.0148-.0768.0004-.4463.1364-.5422.1995-.0368.0242-.0866.0485-.1106.054-.0241.0055-.055.0193-.0688.0307-.0214.0177-.1796.0969-.5896.295-.0477.0231-.0867.0472-.0867.0537 0 .0064-.0166.019-.0369.0278-.0203.0088-.0635.039-.096.0672-.0326.0281-.066.0512-.074.0512-.0081 0-.0751.0363-.149.0807-.0738.0444-.1546.0907-.1795.1029a.442.442 0 0 0-.083.0556c-.0562.05-.1632.1335-.2851.2225-.2283.1666-.296.221-.3134.2519-.01.0175-.0458.0494-.0798.071-.034.0214-.074.0583-.089.0817-.0315.0496-.0985.1196-.2191.2286-.0521.0471-.0893.094-.0946.1193-.0048.023-.0146.0453-.0218.0495-.0072.0043-.0131.02-.0131.035 0 .015-.0238.0447-.0528.0659-.029.0211-.0528.0485-.0528.0607 0 .0122-.0166.043-.037.0684-.0202.0255-.0413.0635-.0468.0845-.0055.021-.016.0418-.0234.0461-.0074.0044-.0135.0202-.0135.0352 0 .015-.0084.0325-.0188.0389-.0289.0177-.0588.0758-.0478.0928.0054.0084-.0045.0338-.022.0566-.0176.0227-.032.0552-.032.0723 0 .017-.0176.0643-.0392.1052-.044.0834-.0452.0875-.0752.2474-.0119.0635-.0284.1284-.0366.1443-.0082.0158-.0182.0548-.0222.0865-.0088.0704-.0239.1402-.0337.1561-.004.0065-.0095.065-.0122.1299-.0092.2178-.0176.3052-.0375.3886-.0172.0726-.0167.086.004.1082.0131.014.0287.0513.0346.083.006.0318.0174.07.0255.0849.008.0148.0198.0603.0261.101.0064.0406.0206.1044.0316.1418.018.0607.0173.0708-.006.0953-.0201.0214-.0227.0358-.0114.0642.008.0202.022.0411.0311.0465.0092.0054.0159.0336.015.0627-.0025.0846.0482.2284.1229.3488a.584.584 0 0 1 .0286.0555c.0084.0186.0287.0372.045.0413.0165.0041.0439.0291.061.0556.017.0264.0443.0521.0605.057.0162.005.0294.0181.0294.0293 0 .0111.0204.0304.0452.0427.0369.0182.0453.0315.0453.0716 0 .0271.0074.0537.0165.059.009.0055.0385.0537.0654.1074.0268.0536.0805.1373.1192.186.0387.0487.0703.0947.0703.1023 0 .0076.0153.0214.034.0308.0186.0094.0848.0641.147.1217.1526.1412.2468.2222.259.2226.0055.0002.0145.0199.02.0437s.0181.0433.0282.0433c.0208 0 .2659.2325.2659.2522 0 .0174.1433.1518.1619.1518.011 0 .0723.0398.1363.0885.0641.0486.1369.0968.1618.1071.0249.0102.0686.0419.0972.0703s.0638.0516.0782.0516c.0145 0 .0488.0199.0762.0443a.5502.5502 0 0 0 .0947.0669.2669.2669 0 0 1 .0726.0565c.029.0354.2053.1208.2495.121.0139 0 .0457.0108.0705.024.025.0132.0928.0292.1509.0355.1671.0183.2546.0364.2607.054.0031.0089.0179.0163.0328.0163a.0683.0683 0 0 1 .045.0207c.01.0115.0273.0174.0385.0133.0113-.0041.043.0023.0706.0142a.57.57 0 0 0 .118.0319c.0372.0055.0812.019.0975.0299.0164.0109.042.0198.0571.0198.015 0 .0424.0092.0607.0205.0184.0112.068.0234.1102.027.0422.0036.0931.0162.1131.028.0528.0311.2023.0772.3154.0971.0544.0096.1119.0296.1291.045.0171.0153.0457.0277.0634.0277.0371 0 .1917.037.2169.0518a.1179.1179 0 0 0 .0413.0124.286.286 0 0 1 .062.0177c.0877.0358.2107.0657.2343.057.014-.0051.1088.0038.2106.0199.1019.016.1953.0254.2076.0209.0124-.0045.0623.0015.111.0134a.8284.8284 0 0 0 .1716.0206c.0456-.0006.1576.0096.2488.0227.1011.0144.2837.025.4675.0271.2572.003.3283-.0012.4826-.0285.2007-.0354.2826-.0556.3404-.0841.0234-.0115.122-.0226.2488-.0279.3359-.0141.378-.017.395-.027.0088-.0053.0964-.013.1946-.0172.0982-.0042.1955-.0117.2162-.0166a.2222.2222 0 0 1 .0641-.0058c.0146.0017.0519-.0099.083-.0259.0742-.0383.28-.0742.3657-.064.1154.0139.2119.0075.277-.0182.0506-.02.1206-.0253.3715-.0283.17-.002.3702-.0108.4449-.0194a2.535 2.535 0 0 1 .2262-.0161c.0498-.0001.121-.009.1583-.0198a1.2017 1.2017 0 0 1 .1559-.0299c.0554-.0065.0987-.0206.117-.0382.0161-.0153.0579-.0388.0931-.0521.0351-.0133.0978-.05.1393-.0814.078-.0591.2441-.1393.2886-.1393.014 0 .0548-.0165.0908-.0366.036-.0202.0655-.0337.0655-.03 0 .0037.0196-.0107.0435-.0319a1.1434 1.1434 0 0 1 .0641-.0532 7.1729 7.1729 0 0 0 .0623-.0456c.023-.017.0752-.0353.1161-.0407.0409-.0054.0823-.019.0921-.0302.0097-.0112.0268-.0204.0379-.0204.0112 0 .0445-.0231.074-.0514.0296-.0282.0739-.0581.0986-.0663.0246-.0082.0448-.0196.0448-.0253s.0593-.0391.1318-.0743c.1391-.0676.2542-.1673.4902-.4248.1083-.1182.4892-.4782.5701-.5388.0248-.0186.0534-.035.0636-.0365.0363-.0052.0563-.0256.0563-.0573 0-.0255.0138-.036.0678-.0512.0372-.0105.0966-.0444.1319-.0753.0353-.0309.0725-.0562.0826-.0562.01 0 .0255-.013.0344-.0288.0089-.0159.0253-.0289.0364-.0289.0224 0 .1597-.1471.1597-.171 0-.0083.0448-.0592.0995-.1132.0548-.054.1084-.1176.1193-.1415.0109-.0238.0406-.0683.066-.0989.0254-.0306.0505-.0777.0558-.1048.0053-.027.0178-.054.0277-.0598.0099-.0059.0329-.0415.0511-.0792.0183-.0377.0399-.0685.0482-.0685.0082 0 .015-.012.015-.0266 0-.0146.0136-.0646.0303-.111s.0338-.1106.038-.1427a.3913.3913 0 0 1 .0376-.1131c.0182-.0335.0298-.0831.0298-.1275 0-.04.0074-.0858.0163-.1018.009-.016.02-.0854.0243-.1542.0044-.0687.0153-.138.0242-.1538.0311-.0554.0477-.5451.0342-1.0101-.0019-.0637-.0319-.1417-.0972-.2525a3.3058 3.3058 0 0 1-.0535-.101 1.5761 1.5761 0 0 0-.0812-.1388c-.0927-.1358-.1293-.1863-.1482-.2044-.011-.0105-.0454-.0561-.0764-.1013-.0712-.1038-.2001-.2626-.2132-.2627-.0054 0-.0405-.0302-.0778-.0669-.1379-.1357-.2034-.1927-.221-.1927-.0099 0-.0305-.015-.0456-.0333-.0151-.0183-.0393-.0375-.0539-.0428-.0145-.0053-.0263-.0154-.0263-.0225 0-.007-.0426-.0392-.0946-.0713-.0519-.0322-.1073-.072-.1229-.0886-.0157-.0166-.0353-.0301-.0436-.0301-.0083 0-.0395-.0179-.0693-.0397-.0789-.0579-.152-.1046-.1642-.105-.0059-.0001-.0276-.0134-.0484-.0294-.0207-.016-.0886-.061-.1508-.1-.0622-.039-.1216-.0841-.1321-.1004-.0104-.0163-.028-.0296-.0391-.0296-.0111 0-.0327-.0133-.0481-.0295-.0154-.0162-.052-.0394-.0815-.0514a1.9536 1.9536 0 0 1-.0963-.0426c-.0235-.0115-.071-.025-.1056-.03-.0345-.005-.073-.0168-.0854-.0264-.0125-.0095-.0464-.026-.0755-.0365-.029-.0106-.0629-.0267-.0754-.036-.0375-.0278-.3277-.1805-.343-.1805-.0079 0-.0342-.0095-.0586-.0211-.0492-.0235-.0598-.024-.3059-.0154-.1533.0054-.1762.003-.2094-.022-.0205-.0154-.05-.028-.0657-.028-.037 0-.2779-.1085-.3397-.153-.0264-.019-.0522-.0346-.0572-.0346-.0051 0-.0527-.0195-.106-.0433-.0532-.0238-.1036-.0433-.1119-.0433-.0084 0-.0681-.0317-.1326-.0705-.1508-.0905-.2072-.1012-.2682-.0508-.0752.0622-.1238.0813-.1599.0628-.0172-.0088-.0613-.0147-.0979-.013-.1579.0071-.4487-.0177-.5114-.0436-.0165-.0069-.0564-.016-.0885-.0202-.0322-.0043-.0695-.017-.083-.0284-.0135-.0114-.055-.0275-.0924-.036-.0904-.0202-.2991-.0874-.3492-.1123-.022-.011-.054-.0199-.0713-.0199-.0172 0-.0569-.0097-.0882-.0216-.0786-.0299-.2981-.0527-.4837-.0503-.1108.0015-.1648-.0037-.1885-.0182-.0607-.0372-.261-.0748-.276-.0518-.0126.0196-.1016.0128-.1333-.01-.0366-.0266-.0384-.0264-.0817.008ZM14.8776 9.9c-.0466.008-.1056.0586-.1056.0904 0 .0306-.1001.1156-.1361.1156-.0332 0-.1353.0888-.1353.1177 0 .0263-.1296.146-.1886.1742-.0771.0368-.1481.0583-.2155.0652-.049.005-.0641.0124-.0618.0304.005.0399-.017.0715-.0709.102-.03.0169-.0514.0405-.0514.0566 0 .0152-.021.0473-.0467.0714-.0577.0539-.0785.1473-.033.1473.0358 0 .0646-.0269.0646-.0603 0-.014.0211-.036.047-.0488a.5288.5288 0 0 0 .0942-.0651c.1256-.1112.253-.201.2853-.201.0319 0 .1918-.1143.2044-.1461.0028-.0069.0277-.0126.0555-.0126.0467 0 .0978-.0298.0978-.057 0-.0179.1118-.1306.1297-.1306.0088 0 .0452-.0387.081-.0859.0357-.0473.0725-.0846.0818-.083.0196.0035.0133-.0466-.0092-.0728-.0158-.0184-.0216-.019-.0872-.0076Z" clip-rule="evenodd"/><path fill="#1A1A1F" fill-rule="evenodd" d="M7.0861 5.1795c-.0264.0245-.1941.0498-.3385.051-.1583.0013-.2293.0171-.3811.085-.0858.0383-.107.0552-.1327.1057-.0169.033-.0405.068-.0525.0775-.042.0334-.0258.0832.0422.129.0353.0239.0946.0716.132.1061.0373.0346.0865.0737.1093.087.0228.0134.0415.0342.0415.0464 0 .0121.0199.0287.0442.0368.0244.0081.0547.03.0674.0485.0126.0185.0473.0413.077.0507.0464.0146.0608.0312.1045.1203.0526.107.0547.1213.076.5024.003.0528.0153.1112.0274.1299.0362.0553.0402.1028.0133.1559-.0229.0452-.0345.0517-.1233.0693-.1015.0201-.2787.0128-.2948-.0122-.0047-.0073-.0248-.0133-.0445-.0133-.0198 0-.0397-.0058-.0443-.013-.011-.0168-.1775-.037-.2652-.032-.0497.0029-.0785-.0039-.1063-.0248-.021-.0159-.0631-.0333-.0936-.0387-.0664-.012-.1919-.0852-.1919-.112 0-.0106-.0373-.0536-.083-.0956-.0456-.042-.0829-.0848-.0829-.0949 0-.0101-.0237-.0358-.0528-.057-.029-.0211-.0528-.0495-.0528-.063 0-.0241-.0652-.1207-.1471-.2178-.0228-.0269-.078-.0723-.1227-.101-.2178-.1394-.2516-.1597-.267-.16-.009-.0001-.0288-.0132-.0438-.0291s-.0428-.0289-.0617-.0289c-.019 0-.0389-.0067-.0441-.0149-.0053-.0082-.0598-.038-.1212-.0662-.0875-.0403-.1286-.051-.191-.0497-.2488.005-.2702.0037-.2954-.0181-.0475-.0411-.1151-.055-.302-.0623-.1654-.0064-.1934-.004-.2515.0222-.066.0297-.1321.0432-.24.0488-.0324.0018-.0618.0113-.0653.0212-.0034.01-.0227.018-.0428.018-.0201 0-.0722.017-.1156.0378a11.5546 11.5546 0 0 1-.1463.0686.5364.5364 0 0 0-.1194.0795c-.0287.0269-.1002.0698-.159.0954-.0893.039-.11.0546-.1255.0955a.1589.1589 0 0 1-.0641.0735c-.0332.018-.0454.0352-.0454.0641 0 .0514.071.1494.1082.1494.0158 0 .0569.0137.0913.0305.0901.044.237.0578.277.026.0102-.008.048-.014.084-.0134.036.0008.0966-.003.1348-.008.0394-.0055.082-.003.0986.0054.0308.0158.0352.023.1115.1832.0265.0555.0553.1155.064.1332.0086.0178.04.0442.0698.0588.0298.0146.0604.0398.0682.056.0077.0162.0503.0546.0947.0855.0862.0598.2177.0924.332.0822.1008-.009.1157-.009.2153.0005.1518.0145.247.0332.2527.0496.003.0082.032.0514.0646.096.0808.1104.0846.135.0297.1921-.0247.0258-.0511.047-.0587.047-.0075 0-.0173.009-.0217.02-.0148.037-.1066.0693-.2092.0738-.0555.0024-.1098.0098-.1206.0165-.0488.0299-.158.0453-.2356.0332-.0441-.0069-.19-.0085-.3243-.0035-.1342.0049-.278.0064-.3195.0034-.0415-.003-.1976-.0058-.3469-.006-.2183-.0003-.285.0044-.341.024-.068.0238-.1495.0883-.1795.1419-.0192.0343-.0193.115 0 .115.008 0 .0277.0244.0436.0542.0158.0297.0431.0665.0606.0816.0175.0151.0318.039.0318.0529 0 .014.005.0276.0113.0302.0395.0168.1307.2932.1157.3505-.005.019.002.0537.016.0797.0376.0695.035.2383-.0061.3971a16.603 16.603 0 0 0-.025.0975c-.0147.0589.0134.0795.1238.0908.0911.0094.101.0075.1385-.026.0765-.0682.1628-.088.2313-.053.0243.0126.0414.0089.0857-.0183.092-.0566.1211-.0693.1585-.0693.0197 0 .0758-.0206.1247-.0457a37.99 37.99 0 0 1 .1265-.0649c.0512-.026.0808-.0242.1216.0074l.0344.0266-.055.0941c-.038.0648-.058.1206-.0647.179-.0053.0467-.02.1005-.0324.1195-.0182.0278-.021.0663-.0139.1948.0049.088.0164.1861.0257.2179.0093.0317.0261.1324.0375.2236.025.2004.0303.219.0874.3081.055.086.1455.2818.1457.3157.0002.0136.0223.0355.0493.0486a.4552.4552 0 0 1 .0744.0451c.0228.019.0343.0175.1056-.0141a4.9078 4.9078 0 0 1 .1698-.07c.0913-.0351.2112-.127.417-.3194.0784-.0733.1042-.1071.1044-.1371.0002-.0219.0138-.0682.0303-.103.0268-.0564.0281-.0729.013-.1566-.0198-.108-.0088-.2142.0259-.2509.0132-.014.0212-.0335.0178-.0434-.0034-.0099.0067-.0303.0225-.0455.0177-.017.0256-.0389.0206-.0573a.0852.0852 0 0 1 .0061-.0555c.0093-.0166.009-.0289-.0007-.0346-.0084-.005-.0152-.0208-.0152-.0352 0-.0144-.0106-.0347-.0236-.045-.013-.0103-.0338-.0376-.0462-.0606-.0202-.0373-.0201-.0455.0008-.076.0136-.0199.0175-.0378.0092-.0427-.0079-.0046-.0129-.0455-.0112-.091l.0032-.0824.083-.041c.0645-.032.1162-.044.2337-.0547.083-.0075.1906-.0275.2393-.0444.0878-.0304.0892-.0305.1734-.0037.2218.0704.2867.1359.2063.208-.0211.019-.0384.0412-.0384.0492s-.0124.028-.0276.0444c-.0282.0304-.078.145-.078.1798 0 .0105-.023.0785-.0513.151-.0467.1197-.0502.1392-.038.2112.0075.0437.0129.1227.012.1756-.0007.053.0041.1047.0108.115.0106.0165.0377.1527.0384.1928.0005.0368-.022.1341-.04.1732a2.0098 2.0098 0 0 0-.054.1422c-.0263.0764-.0448.1057-.0818.1289-.0284.0178-.064.0625-.0876.1103-.0695.14-.1195.2243-.14.2359-.0272.0154-.054.1166-.0426.1603.0072.0274.022.0375.0645.0439.1109.0167.1473.013.2287-.0232.11-.049.1496-.0571.3028-.0622.0973-.0033.1456-.0123.1947-.0362.0449-.0219.081-.0295.115-.0243.0564.0088.1116-.0242.2404-.1435.0971-.09.1498-.1228.1794-.1119.013.0047.039-.001.0578-.0128.0187-.0118.068-.0259.1092-.0313.0626-.0082.0802-.0052.1067.0184.0174.0155.0445.0306.0603.0336.0227.0043.029.0189.0307.07.001.0356.0029.0841.0039.1079.0012.0278.0202.0618.0531.095l.0512.0517.1032-.0134a2.1221 2.1221 0 0 1 .1494-.0149c.0475-.0015.1777.0493.195.0762.0193.0298.1277.072.208.0811.072.0081.0847.0056.1039-.0207.0416-.0568.1651-.0803.1908-.0364.01.017.0242.0209.0498.0137a.8269.8269 0 0 1 .1037-.0174c.0373-.0039.1018-.0219.1433-.0398.101-.0437.1755-.0673.1884-.0597.0057.0034.043-.0056.0828-.0201.0547-.0199.082-.0228.112-.012.033.0119.0576.0056.1489-.0384.1262-.0608.175-.0979.1994-.1512.0096-.0209.0538-.0672.0983-.1029.0484-.0388.0971-.0954.1212-.1407.0222-.0417.0492-.0758.06-.0758.0108 0 .0348-.0243.0534-.0541.0186-.0297.0449-.0638.0585-.0757.036-.0317.0876-.1692.0949-.2535.007-.0815.0415-.136.1432-.2268.0353-.0315.0642-.066.0642-.0765 0-.0106.027-.0433.0603-.0727.0331-.0293.0603-.0613.0603-.071 0-.044.2217-.1506.3143-.1511.0221-.0002.108.0109.1909.0245.1442.0237.1536.0275.2144.0868.0349.0341.0733.062.0854.062.012 0 .0614.0316.1099.0702.0484.0386.1034.0748.1222.0805.0189.0056.0638.0318.0999.0582.0916.0669.1204.0798.1783.0798.0277 0 .0672.0113.0877.0252.0206.014.0812.0295.1353.0348.0539.0053.1285.0179.1659.028.0373.0101.1357.0186.2186.019.1434.0005.1567-.0021.2699-.0533.0654-.0295.1308-.0537.1453-.0537.0335 0 .0858-.0405.1095-.0846.0101-.0187.0435-.0423.0744-.0523.0777-.0252.2025-.1192.2239-.1685.0142-.0328.0272-.041.0656-.041.052 0 .084-.0216.0844-.057.0002-.0122.0172-.0376.0377-.0563.0206-.0187.0375-.0463.0375-.0613s.0099-.0274.022-.0274c.0197 0 .0647-.039.1874-.1623.0217-.0218.0467-.0396.0557-.0397.0245 0 .0761-.0587.1014-.1154a.3456.3456 0 0 1 .0592-.087c.0328-.0325.036-.046.0299-.126-.0055-.0732-.0023-.0913.0177-.0986.0165-.006.0244-.0265.0244-.0633 0-.0912.0163-.1446.0443-.1446.014 0 .0405-.0195.0589-.0433.0184-.0238.0429-.0433.0546-.0433.0277 0 .0459-.0561.0246-.0765-.0091-.0087-.0165-.0624-.0165-.1194 0-.0745-.0064-.1086-.0227-.1215-.0124-.01-.0226-.0262-.0226-.0363 0-.0101-.0109-.0223-.0242-.0272-.0138-.0051-.0205-.0181-.0155-.0305.0048-.0119-.0081-.0517-.0286-.0886-.0205-.0369-.0372-.0825-.0372-.1014 0-.019-.0105-.0382-.0232-.0429-.0128-.0047-.0325-.0256-.0437-.0465-.0224-.0413-.0375-.2387-.0196-.2558.0154-.0147.0138-.0693-.0025-.0858-.022-.0224.0078-.1754.0424-.2174.0173-.021.0315-.0588.0315-.0838s.0138-.0713.0306-.1027c.0248-.0462.0287-.0724.0208-.1365-.0055-.0437-.0172-.088-.0261-.0987-.0089-.0107-.0147-.041-.0128-.0675.0018-.0264-.0036-.0522-.0121-.0572-.0085-.005-.0157-.03-.016-.0552-.0007-.0636-.0529-.2689-.0733-.2884a.0665.0665 0 0 1-.0167-.0421.132.132 0 0 0-.0131-.0513c-.0268-.0514-.0515-.1277-.0584-.1801-.0054-.0415-.0208-.0646-.0658-.0987-.0465-.0352-.0588-.0542-.0588-.091 0-.0538-.015-.074-.098-.1316-.0332-.023-.0671-.0492-.0754-.058-.0083-.009-.0456-.0382-.0829-.0652-.0374-.027-.0733-.0572-.0798-.0671-.017-.026-.1367-.0909-.1676-.0909-.027 0-.1918-.0697-.2051-.0866-.0198-.0255-.3139-.0719-.5203-.082-.3239-.016-.3284-.0155-.4226.0443-.0452.0287-.0921.0522-.1043.0522-.0378 0-.1052.0344-.134.0684-.0151.018-.0331.0326-.0399.0326-.0141 0-.3473.3124-.3473.3256 0 .0213-.1468.1842-.2706.3002-.0751.0704-.1366.1348-.1366.1432 0 .0083-.0119.0394-.0264.069-.0267.0546-.0614.071-.1498.071-.0206 0-.0326.0064-.0274.0145.0051.008.0259.0144.0461.0144.0449 0 .0473.0267.0067.076-.0166.0203-.0302.0449-.0302.0548 0 .017-.0594.0996-.1012.1408a.0739.0739 0 0 0-.0194.0458c0 .0147-.017.046-.0377.0696-.0208.0236-.0377.0495-.0377.0577 0 .0082-.0175.0347-.0389.059a.3018.3018 0 0 0-.054.0964c-.0082.0288-.042.0802-.0749.1144-.05.0519-.0722.0638-.1342.072-.0626.0082-.0808.0049-.1152-.021-.0545-.041-.1107-.1219-.1107-.1594 0-.036-.0239-.0823-.0942-.1822-.0389-.0553-.0543-.0952-.0611-.1587-.0066-.0609-.0179-.0916-.04-.1088-.017-.0132-.0309-.0356-.0309-.05 0-.0142-.0307-.0529-.0683-.0858-.0558-.049-.0676-.068-.0647-.1044.0021-.0265-.0074-.056-.0236-.073-.0165-.0175-.0235-.0396-.0179-.0566a.0428.0428 0 0 0-.0152-.0473c-.0135-.0107-.0475-.0538-.0756-.0958-.028-.042-.0596-.0765-.07-.0767-.0105-.0002-.0428-.0325-.0719-.0718-.029-.0394-.0593-.0717-.0673-.0719-.008-.0001-.0317-.0168-.0528-.037-.0837-.0801-.1246-.1042-.2189-.1286-.0763-.0198-.1025-.0337-.1172-.0624-.0146-.0287-.0492-.0471-.1546-.0824a2.199 2.199 0 0 1-.2488-.1033c-.0622-.0317-.1505-.07-.196-.0849-.0457-.0149-.0898-.0315-.0981-.037-.0083-.0054-.0542-.018-.102-.0282-.0478-.01-.0944-.027-.1036-.0377-.0092-.0106-.032-.0193-.0507-.0193s-.0628-.0097-.0981-.0216c-.0716-.0242-.1824-.0287-.2043-.0084Zm.6457.6895c-.0186.0035-.0567.0334-.0847.0666-.0577.0685-.108.251-.104.3778.0014.0397.0029.0908.0035.1136.0007.0228.0178.0686.0381.1017.0234.0382.0361.08.0348.1143a.1367.1367 0 0 0 .0296.093c.0174.0216.0504.0737.0733.1159.0345.0637.0385.0814.0235.1044-.0257.0394-.0229.0442.0197.034.0317-.0076.0377-.004.0377.023 0 .0397.0684.12.1112.1304.0793.0194.1928.3773.1407.4431-.0079.01-.0273.018-.0431.018-.0159 0-.0327.0098-.0375.0217-.0124.031-.0852.0268-.1261-.0072-.0244-.0202-.0564-.0289-.107-.0289-.0397 0-.0764-.0065-.0815-.0144-.0051-.008-.0637-.0144-.13-.0144-.0665 0-.1328-.0061-.1474-.0136-.0146-.0075-.1074-.0237-.2063-.0361-.099-.0124-.2104-.0322-.2477-.044-.0374-.0118-.1188-.0278-.181-.0356a6.873 6.873 0 0 1-.2112-.0301c-.0539-.0089-.1794-.0179-.279-.02-.154-.0034-.188 0-.228.0228-.0365.0208-.063.0246-.1193.0172-.0674-.0088-.075-.0066-.1075.0325l-.035.042h-.3797l-.0403.0462a3.3794 3.3794 0 0 0-.0758.0906l-.0354.0445-.169-.008c-.166-.0078-.1696-.0073-.2047.0284-.0196.02-.0433.0363-.0525.0363-.0206 0-.1493.1256-.1716.1674-.0153.0288-.1295.0733-.2155.084a.388.388 0 0 0-.0755.0199c-.0219.0085-.129.0222-.2379.0306-.109.0084-.2166.0241-.2392.035-.0883.0427-.4067.0353-.4693-.0108-.0237-.0175-.0816-.0143-.1374.0076-.0835.0328-.1692.2094-.179.3686-.0012.0188-.0223.0434-.053.0615-.0566.0335-.0718.0805-.0509.1577.016.0586.0424.0687.1037.0395.0265-.0127.0682-.023.0928-.023.0275 0 .0831-.0243.1447-.0633.055-.0348.1238-.068.1529-.0739a.4676.4676 0 0 0 .0935-.0305c.0224-.011.0533-.02.0688-.02.0154 0 .0572-.0134.0929-.0299.065-.03.2212-.0754.348-.101.0373-.0076.1206-.0244.185-.0376l.1171-.0238.0639.0441c.0848.0586.0903.1098.0259.2403-.026.0525-.0445.11-.0413.128.0045.025.0086.0197.0181-.0234.016-.0721.117-.174.1921-.1937.0305-.008.0787-.0366.107-.0637.042-.0403.0703-.0524.1556-.067.224-.0381.3543-.0495.388-.0338.018.0084.1041.0193.1913.0242.1251.0071.1701.0043.2143-.0134.0522-.0208.0616-.0203.1388.0073.062.0222.0902.026.1119.0149.025-.013.2083-.035.2512-.0305.0083.001.0811.0033.1618.0054.1286.0033.1512.0078.183.0365.023.0206.0336.0429.0288.0605-.0042.0153 0 .0278.0092.0278.0199 0 .0229.0525.0037.0638-.0073.0043-.0132.0253-.0132.0466 0 .028-.0202.056-.0736.1017-.0404.0346-.0894.0694-.109.0772-.0212.0085-.0322.0222-.0273.0343.0044.0111-.0043.0593-.0194.107-.0206.0651-.042.099-.0855.1348-.1018.084-.1282.1127-.1181.1283.0054.0084-.0002.0262-.0123.0396-.0125.0137-.0264.0705-.032.1308-.0077.084-.0177.1155-.0477.1495-.0208.0237-.0346.0537-.0306.0667.004.013.0114.0723.0165.1318s.0184.1342.0296.166c.0461.131.044.1592-.0157.2164-.0508.0486-.053.0542-.0306.0778.0178.0189.024.0555.024.1412 0 .0973-.0047.1198-.0301.1418-.0416.036-.0377.0884.0097.1305.0506.0449.077.0448.0985-.0004.0094-.0197.0284-.0392.0423-.0434.0138-.0043.0349-.0285.0467-.0538.0151-.0325.036-.0496.0705-.058.027-.0065.049-.017.049-.0233 0-.0251.1372-.1464.1656-.1464.0168 0 .0457-.0135.0644-.0301.1214-.1073.165-.1566.1797-.2036.0092-.0292.0396-.0743.0675-.1002.0278-.0258.0508-.0603.051-.0766.0003-.0163.0206-.0486.0453-.0717.0402-.0378.0747-.1134.0749-.1645 0-.0104.0205-.0354.0453-.0554.025-.02.0453-.0447.0453-.0548 0-.0102.0133-.0347.0297-.0546.0394-.048.066-.2822.0355-.3115a.081.081 0 0 1-.0203-.0505c-.0002-.0173-.0149-.0606-.0326-.0964-.0177-.0357-.031-.0725-.0294-.0818.0015-.0094-.0125-.0272-.0311-.0397-.0187-.0125-.0252-.0228-.0144-.0228.0142 0 .013-.0061-.0042-.0226-.013-.0125-.0237-.0286-.0237-.0357 0-.0072-.0191-.0225-.0425-.0341-.0525-.026-.1505-.121-.1627-.1576-.0063-.019.0081-.044.0484-.0833.0315-.031.0515-.0563.0444-.0563-.0071 0-.001-.0125.0134-.0278.0144-.0153.0545-.032.089-.037a.989.989 0 0 0 .1116-.0238c.0269-.008.1253-.0171.2187-.0203a6.649 6.649 0 0 0 .2528-.013l.1869-.016c.0751-.0065.1253-.0026.181.014.0589.0177.1355.0226.3258.0211.312-.0024.5275.0128.5594.0397.0156.0131.0553.0194.1131.018.081-.002.1736.0124.2324.0363.0124.005.0421.0448.066.0884.0238.0435.0486.0792.0551.0792.023 0 .09-.0892.0903-.1202.0004-.0536.0806-.1887.1238-.2085.031-.0142.063-.015.14-.0032.0549.0084.1295.0118.1659.0077.0363-.0042.0844-.001.107.0073.0225.0082.092.018.1547.0219.0637.0039.1289.0164.1482.0285.0206.013.0993.0267.1967.0345.2395.0191.3125.0455.323.1169.0037.0247.0152.0362.0378.0373.0179.0008.0671.0346.1093.075.0754.0722.0768.0751.0768.1608 0 .0508.0131.1233.0314.1738.0196.0544.0278.1022.0218.128-.0081.0356.0012.0523.0666.119.0518.053.0761.09.0762.1162.0001.0288.0115.0433.0453.0576.0249.0106.0453.0234.0453.0285 0 .005.0458.0174.1018.0273.056.0099.1276.0304.1592.0456.0316.0152.0703.0237.086.019.0157-.0048.0489.0013.0737.0137.0249.0123.0615.0223.0814.0223a.0986.0986 0 0 1 .0621.0275c.0365.0386.119.0506.1711.0249a.4629.4629 0 0 1 .1022-.0317c.0648-.0116.1428-.059.1428-.0865 0-.0095.0101-.0253.0226-.0352a.0655.0655 0 0 0 .0226-.0445c0-.0146.0121-.0328.027-.0404.0148-.0076.0363-.0306.0478-.051.0114-.0205.0269-.0372.0344-.0372s.0233-.0093.0352-.0206c.0166-.016.018-.0297.0059-.0601-.0108-.0273-.0108-.044 0-.0544.0086-.0083.0156-.0316.0157-.0518 0-.0455.0482-.1234.0892-.1444a.3468.3468 0 0 0 .0656-.0491c.0193-.0185.0629-.0377.0973-.043.0376-.0057.0732-.0224.0898-.042.0363-.0429.1334-.1117.1584-.1123.0395-.0009.0694-.0376.0957-.1173.0326-.0989.0245-.123-.045-.1356a.134.134 0 0 1-.0841-.0503c-.0325-.0436-.09-.2017-.09-.2472 0-.0152-.0178-.0424-.0397-.0604l-.0397-.0327.0473-.0515c.0259-.0283.0472-.0578.0472-.0654 0-.0077.0195-.0398.0434-.0713.0238-.0315.0487-.073.0552-.0923.0125-.0369.0243-.2631.0214-.4103-.0009-.0476.0104-.1438.0252-.2137l.0269-.1273-.0431-.1613c-.0468-.1757-.1639-.4105-.2333-.4679-.0214-.0177-.0917-.0622-.1562-.099-.1003-.057-.1247-.0652-.17-.0571-.0395.007-.0632.0025-.0939-.0182a.3418.3418 0 0 0-.0788-.0385.2127.2127 0 0 1-.0604-.0286c-.0124-.0098-.0565-.0281-.098-.0407-.0835-.0253-.2091-.0164-.3436.0245-.118.0358-.3014.1285-.309.1561-.0038.014-.0134.0256-.0214.0256-.0079 0-.0393.0266-.0698.0592-.0305.0326-.0812.0718-.1127.0872-.0314.0153-.0631.0423-.0704.0598-.0073.0175-.0292.0481-.0486.068a1.6326 1.6326 0 0 0-.0867.101c-.0629.0792-.1677.173-.1933.173-.0104 0-.0189.0159-.0189.0352 0 .02-.0221.0575-.052.0878-.0286.029-.0635.0815-.0775.1165-.0139.035-.0304.0636-.0366.0636-.0062 0-.0306.0366-.0542.0813-.0283.0535-.0624.093-.0998.1156-.0385.0233-.0569.045-.0569.067 0 .046-.0411.0969-.0782.0969-.0172 0-.0537.0227-.0811.0505-.0274.0278-.0588.0505-.0699.0505-.0111 0-.0464.017-.0786.038-.0542.0352-.0669.0374-.1766.0302l-.1182-.0077-.1222.117-.1541-.0104c-.0848-.0057-.161-.0097-.1692-.0088a24.1608 24.1608 0 0 1-.2558.015c-.2017.0111-.248.0099-.2851-.0078-.0244-.0117-.0615-.0212-.0825-.0212-.0437 0-.123-.0227-.1966-.0562-.08-.0365-.1538-.169-.109-.1955.0076-.0044.0102-.0333.0058-.0641-.007-.05-.0028-.0596.0392-.0893.0258-.0183.047-.039.047-.0461 0-.0071.0234-.0512.052-.098.0693-.113.0813-.163.0866-.3624.0041-.155.002-.1712-.0277-.202-.0176-.0185-.0371-.0498-.0434-.0697-.0156-.0498-.0836-.1731-.0955-.1731-.0054 0-.0403-.0264-.0776-.0586a1.5934 1.5934 0 0 0-.1472-.1097c-.0436-.0281-.0929-.0683-.1096-.0893-.0695-.0878-.0834-.1019-.101-.1025-.0101-.0004-.029-.0201-.0419-.044-.0189-.035-.033-.0432-.074-.0432a.3404.3404 0 0 1-.1046-.0217c-.0298-.0119-.056-.0207-.0584-.0197a.3964.3964 0 0 1-.038.0082Zm-3.0767.6476c-.027.0204-.049.0491-.049.064 0 .0148-.007.031-.0154.036-.0095.0056-.0037.0247.015.05.0168.0225.0305.0464.0305.0532 0 .0255.0995.1174.1357.1254.0393.0086.1049.0637.161.1353.0273.0349.0411.0407.085.0358.0352-.004.0572-.016.0673-.037.0154-.032.013-.0394-.0528-.1612a.7251.7251 0 0 1-.0494-.1227c-.0128-.0455-.0415-.0869-.0972-.1403-.0938-.0898-.1502-.0992-.2307-.0385Zm-.229 2.3045a.1603.1603 0 0 1-.0236.0732.2078.2078 0 0 0-.0284.0752.7242.7242 0 0 1-.0163.0804c-.0063.0226-.004.042.0057.0477.0111.0066.0092.0226-.0063.0513-.0157.029-.0184.052-.009.0757.0075.0188.0081.0625.0015.0974-.0067.035-.006.0786.0015.0976.0196.0494.0167.0953-.009.1425-.028.0513-.0289.106-.0024.1548.0143.0264.0168.0575.0084.1062-.0418.2435-.0305.2722.037.0941a6.518 6.518 0 0 1 .1279-.2994l.0854-.1876v-.1515c0-.1506-.0004-.1522-.0656-.2725-.036-.0666-.0746-.1445-.0856-.1732-.0193-.05-.0202-.0504-.0212-.012Zm4.6994.0699c-.0297.057-.0586.088-.1089.117-.04.0231-.0765.0578-.0878.0836-.0223.0505-.143.134-.2255.1557-.0306.0081-.0811.0339-.1122.0573-.031.0235-.0768.047-.1017.0523-.0597.0129-.088.0347-.1185.0911a.1966.1966 0 0 1-.074.0705c-.0268.0131-.0711.0457-.0985.0724-.0345.0337-.0635.0486-.0949.0486-.0422 0-.1006.0308-.1706.0902-.0164.0138-.0348.0252-.041.0252-.0062 0-.0264.0257-.0449.0571-.0184.0315-.0388.054-.0453.0502-.017-.01-.0739.0525-.0739.081 0 .0134-.0124.0397-.0276.0587-.0151.0189-.0316.0451-.0366.0583-.005.0131-.0304.0283-.0564.0338-.026.0055-.0512.0207-.056.0338-.0047.0132-.035.0504-.0673.0827l-.0588.0588-.0025.1376c-.002.1106.0027.1454.0243.1769.0148.0216.0232.0483.0187.0595-.0194.0484.0849.0627.1956.0268.0446-.0145.1311-.0237.238-.0253l.168-.0025.1066-.0614c.0586-.0337.1215-.0747.1398-.091.02-.0178.0442-.0263.0606-.0214.0176.0054.0522-.0098.0968-.0424.0382-.0279.0788-.0507.0903-.0507.0115 0 .0369-.0162.0563-.0361.0195-.0198.043-.0361.0522-.0361.0215 0 .1821-.1581.1941-.1912.0094-.0259.1252-.1797.1548-.2056.0356-.031.0815-.107.0815-.1346 0-.016.017-.0484.0377-.072.0208-.0236.0377-.0492.0377-.057 0-.0078.0102-.0223.0227-.0322.0124-.0099.0226-.0403.0226-.0676 0-.0274.0066-.0615.0147-.076.008-.0144.022-.074.0309-.1325.0089-.0584.0236-.1206.0328-.1382.0162-.0313.0098-.1855-.012-.2891-.008-.038-.017-.047-.0478-.047-.0208 0-.046-.0105-.0558-.0233-.0153-.02-.0235-.0124-.0582.0541Zm-1.4975.0018c-.083.0817-.1075.1486-.0832.2262.0134.043.014.0664.0018.088-.009.0162-.0162.0536-.0159.083a3.1472 3.1472 0 0 1-.0006.1565.1238.1238 0 0 0 .0317.0815c.0285.0313.0398.0347.0794.0238a.2303.2303 0 0 0 .0784-.0416c.0177-.0159.0556-.0366.0843-.046a.4364.4364 0 0 0 .0988-.0508c.0257-.0185.0605-.0337.0773-.0337.0897 0 .1343-.0227.2475-.1261.1074-.0982.1737-.1973.1625-.2427-.0019-.0074.002-.0255.0087-.0402.0202-.0444-.0578-.0922-.1694-.104-.0518-.0053-.1079-.0064-.1245-.0022-.0166.0041-.0659-.0015-.1093-.0126-.0435-.011-.13-.0202-.1922-.0202H7.69l-.0621.0611Z" clip-rule="evenodd"/></svg>
