<?xml version="1.0" standalone="no"?>
<!DOCTYPE svg PUBLIC "-//W3C//DTD SVG 20010904//EN"
 "http://www.w3.org/TR/2001/REC-SVG-20010904/DTD/svg10.dtd">
<svg version="1.0" xmlns="http://www.w3.org/2000/svg"
 width="1520.000000pt" height="1520.000000pt" viewBox="0 0 1520.000000 1520.000000"
 preserveAspectRatio="xMidYMid meet">
<metadata>
Created by potrace 1.14, written by Peter Selinger 2001-2017
</metadata>
<g transform="translate(0.000000,1520.000000) scale(0.100000,-0.100000)"
fill="#000000" stroke="none">
<path d="M7186 12482 c-3 -2 -44 -6 -93 -8 -98 -4 -203 -10 -308 -19 -38 -4
-92 -8 -120 -10 -84 -7 -217 -21 -295 -31 -19 -3 -55 -7 -80 -9 -25 -2 -45 -4
-45 -5 0 -1 -11 -3 -25 -5 -102 -11 -175 -22 -175 -25 0 -1 -16 -3 -35 -5 -19
-2 -46 -6 -60 -9 -14 -4 -43 -9 -65 -11 -49 -6 -95 -15 -115 -22 -8 -4 -20 -5
-27 -4 -10 1 -147 -26 -448 -89 -49 -11 -106 -24 -125 -30 -19 -6 -51 -13 -70
-16 -19 -3 -38 -8 -42 -11 -5 -2 -16 -6 -25 -8 -10 -1 -47 -11 -83 -20 -36 -9
-72 -19 -80 -20 -8 -2 -58 -16 -110 -31 -52 -14 -99 -27 -105 -29 -5 -1 -17
-5 -25 -8 -8 -3 -69 -22 -135 -42 -143 -43 -529 -176 -600 -206 -16 -7 -32
-13 -35 -13 -11 -3 -158 -60 -195 -76 -157 -69 -281 -120 -289 -119 -5 0 -12
-3 -15 -8 -8 -11 -128 -67 -137 -64 -4 2 -10 -1 -13 -6 -6 -8 -207 -108 -226
-112 -5 -2 -16 -8 -23 -13 -7 -6 -32 -21 -55 -33 -91 -46 -239 -129 -292 -163
-11 -6 -29 -17 -40 -22 -11 -6 -33 -19 -50 -30 -16 -11 -38 -23 -47 -26 -10
-4 -18 -10 -18 -15 0 -5 -5 -9 -10 -9 -6 0 -44 -22 -85 -50 -41 -27 -78 -50
-84 -50 -5 0 -11 -4 -13 -8 -2 -7 -152 -114 -205 -147 -21 -13 -51 -36 -68
-52 -8 -7 -16 -13 -19 -13 -6 0 -36 -24 -61 -47 -8 -7 -16 -13 -19 -13 -3 0
-14 -8 -24 -17 -10 -10 -31 -27 -46 -38 -16 -11 -36 -27 -45 -35 -9 -9 -41
-36 -71 -60 -173 -141 -456 -419 -600 -591 -19 -23 -49 -58 -66 -78 -16 -20
-52 -65 -80 -101 -27 -36 -52 -67 -55 -70 -12 -9 -239 -350 -234 -350 3 0 -7
-19 -23 -42 -62 -90 -272 -521 -272 -557 0 -6 -4 -11 -8 -11 -5 0 -9 -6 -10
-12 0 -7 -21 -69 -47 -138 -54 -143 -57 -151 -61 -165 -1 -5 -14 -48 -28 -95
-15 -47 -28 -94 -31 -105 -2 -11 -11 -44 -19 -73 -8 -29 -15 -55 -15 -57 -1
-3 -1 -6 -2 -7 0 -2 -2 -12 -4 -23 -1 -11 -5 -31 -8 -45 -14 -62 -22 -102 -31
-165 -2 -11 -6 -38 -10 -61 -4 -23 -9 -61 -11 -85 -3 -24 -8 -73 -12 -109 -13
-129 -6 -559 11 -645 4 -23 19 -121 22 -147 1 -10 2 -19 4 -20 3 -4 16 -74 27
-138 3 -19 9 -43 15 -53 5 -9 6 -22 3 -27 -3 -5 -1 -11 4 -14 5 -3 12 -22 15
-42 4 -19 21 -77 37 -127 31 -93 38 -112 57 -157 6 -14 23 -53 37 -87 35 -87
74 -168 112 -236 18 -33 33 -65 33 -72 0 -7 3 -15 8 -17 4 -1 34 -48 67 -103
33 -55 68 -109 77 -119 10 -11 20 -28 24 -38 3 -10 10 -18 15 -18 5 0 9 -5 9
-10 0 -6 5 -16 10 -23 6 -7 36 -46 67 -87 62 -83 154 -193 165 -198 5 -2 8 -7
8 -12 0 -24 299 -323 469 -469 46 -40 89 -77 97 -84 28 -25 46 -39 206 -159
90 -68 195 -143 233 -168 39 -24 72 -47 75 -50 10 -10 120 -80 127 -80 3 0 14
-7 24 -16 10 -9 31 -23 48 -32 17 -10 99 -56 182 -104 83 -49 154 -88 159 -88
5 0 10 -3 12 -7 3 -7 413 -217 427 -219 3 0 35 -14 71 -31 36 -17 115 -52 175
-78 61 -26 124 -53 140 -60 44 -19 208 -86 220 -89 6 -2 21 -7 35 -13 59 -24
282 -104 370 -133 52 -17 102 -34 110 -37 8 -4 17 -7 20 -8 3 0 50 -15 105
-32 217 -68 311 -96 327 -98 10 -1 21 -4 24 -8 4 -4 18 -7 30 -7 13 0 26 -5
29 -11 4 -6 13 -8 20 -5 7 2 16 2 19 -2 4 -3 12 -7 19 -8 7 -2 39 -10 72 -19
33 -9 69 -18 80 -20 11 -2 36 -8 55 -15 19 -6 49 -13 65 -16 17 -3 43 -9 59
-14 15 -6 32 -7 37 -4 5 3 9 0 9 -6 0 -6 4 -9 9 -6 4 3 21 1 37 -4 26 -9 228
-54 294 -66 49 -9 66 -13 135 -27 39 -9 86 -18 105 -21 19 -3 46 -8 60 -11 36
-7 142 -27 165 -30 28 -4 90 -14 155 -25 30 -6 73 -12 95 -15 22 -3 56 -8 75
-11 19 -3 51 -7 70 -9 19 -3 53 -7 75 -10 22 -3 57 -8 78 -11 20 -2 54 -6 75
-9 59 -7 132 -15 202 -21 36 -3 81 -8 100 -10 19 -2 71 -7 115 -10 44 -3 89
-7 100 -8 11 -1 25 -5 32 -9 6 -4 14 -3 18 3 4 6 10 8 15 5 10 -6 147 -17 243
-18 37 -1 67 -5 67 -10 0 -4 8 -3 18 2 10 5 24 6 31 2 16 -10 932 -8 949 2 7
5 12 4 12 -3 0 -6 5 -8 13 -3 6 4 30 8 52 9 79 4 221 14 270 18 28 3 79 7 115
11 35 3 76 7 90 10 14 2 52 7 85 9 33 3 69 7 80 10 11 2 45 7 76 10 31 4 65 8
75 10 11 2 42 7 69 11 28 5 57 9 65 11 8 1 33 5 55 8 22 3 51 7 65 10 14 3 52
10 85 15 33 6 71 13 85 16 14 3 36 8 50 10 14 2 36 6 50 9 25 6 54 12 100 22
14 3 36 7 49 10 13 3 54 12 90 20 36 8 77 17 91 20 14 3 79 19 145 35 66 17
129 33 141 35 12 2 40 10 63 18 22 9 41 13 41 11 0 -2 18 2 40 10 22 8 40 12
40 8 0 -3 6 -1 13 5 6 6 14 10 17 10 3 0 25 5 50 12 25 7 52 14 60 15 8 2 15
4 15 5 0 1 7 3 15 5 36 7 505 167 531 181 16 8 31 14 34 14 11 1 192 67 217
81 10 5 25 9 33 9 8 0 15 5 15 10 0 6 3 9 8 8 16 -3 62 15 62 25 0 6 3 8 6 4
8 -8 123 42 409 179 88 42 162 76 164 74 2 -1 7 2 10 7 3 4 45 28 94 52 48 24
87 49 87 54 0 6 3 8 6 5 3 -4 60 26 127 64 67 39 137 79 155 89 50 29 86 52
100 66 7 7 18 13 23 13 9 0 348 228 385 259 7 5 52 40 100 77 91 69 247 195
275 223 8 9 35 32 59 51 24 19 71 61 104 93 34 32 77 73 96 91 53 50 261 269
295 311 17 20 39 46 51 58 30 31 150 182 171 215 10 15 23 32 29 37 12 11 214
314 214 321 0 2 11 21 23 42 29 46 148 266 152 282 1 3 14 32 29 65 15 33 37
79 47 103 34 75 119 305 138 374 1 4 3 13 6 20 17 52 33 118 28 118 -3 0 -1 6
4 12 6 7 11 20 11 28 0 8 3 26 7 40 21 79 36 173 36 230 -1 36 -1 73 -1 83 0
9 0 23 0 30 0 22 -8 81 -20 137 -7 30 -12 60 -13 65 0 6 17 34 37 63 21 28 35
52 31 52 -4 0 -2 6 4 14 11 13 9 341 -3 461 -7 69 -16 144 -22 180 -3 17 -7
49 -9 72 -2 24 -6 47 -9 52 -3 5 -8 24 -10 42 -3 19 -10 57 -16 84 -6 28 -13
63 -15 78 -3 16 -7 33 -11 38 -3 5 -7 22 -10 37 -3 15 -7 34 -11 42 -3 8 -7
20 -7 25 -3 28 -74 235 -117 345 -57 141 -173 384 -231 478 -21 34 -38 65 -38
68 0 2 -5 10 -10 17 -21 25 -60 88 -60 97 0 6 -3 10 -8 10 -4 0 -16 16 -26 35
-11 19 -23 35 -28 35 -4 0 -8 6 -8 13 0 6 -9 23 -20 37 -11 14 -39 50 -62 81
-79 104 -92 121 -113 144 -11 12 -42 49 -70 81 -105 124 -306 329 -415 424
-29 25 -64 56 -79 70 -14 14 -60 52 -101 84 -41 33 -77 63 -80 66 -3 3 -21 17
-40 30 -38 27 -43 30 -80 61 -46 39 -285 203 -362 249 -32 19 -58 38 -58 42 0
5 -4 8 -9 8 -5 0 -56 28 -113 62 -188 112 -287 165 -483 261 -270 133 -469
220 -695 306 -47 18 -94 36 -105 41 -11 5 -36 14 -55 20 -19 7 -98 34 -175 61
-77 28 -147 52 -155 54 -8 2 -60 18 -115 35 -55 17 -107 33 -115 35 -8 1 -39
10 -67 19 -125 38 -159 47 -368 99 -227 55 -348 84 -400 93 -16 2 -38 7 -47
10 -18 5 -34 9 -94 19 -22 4 -48 9 -59 11 -44 7 -82 15 -125 24 -49 10 -198
36 -270 46 -25 3 -54 7 -65 9 -11 2 -40 6 -65 10 -25 3 -73 10 -108 16 -35 5
-67 7 -73 4 -5 -4 -9 -2 -9 2 0 5 -12 8 -27 8 -16 -1 -32 1 -37 3 -8 5 -84 12
-143 15 -13 1 -23 3 -23 7 0 3 -19 6 -43 6 -73 2 -143 10 -155 18 -7 4 -12 2
-12 -4 0 -6 -4 -8 -10 -5 -5 3 -31 8 -57 10 -176 15 -226 19 -438 32 -102 6
-1084 11 -1089 5z m829 -576 c33 -3 98 -8 145 -11 165 -13 348 -32 495 -51 22
-3 54 -6 70 -8 17 -2 50 -7 75 -11 25 -4 54 -9 65 -10 11 -2 40 -6 65 -10 25
-4 54 -9 65 -11 11 -1 20 -3 20 -4 0 -1 11 -4 25 -5 14 -2 39 -6 55 -9 17 -4
41 -8 55 -10 26 -4 49 -9 140 -28 59 -13 66 -14 78 -18 4 -1 10 -2 15 -1 8 1
273 -61 352 -84 28 -7 109 -30 180 -50 156 -43 322 -93 350 -105 11 -5 67 -24
125 -43 99 -33 282 -98 325 -117 11 -4 56 -22 100 -40 44 -17 99 -40 122 -51
24 -10 45 -19 47 -19 2 0 26 -10 53 -22 26 -12 50 -22 53 -23 3 -1 21 -8 41
-17 20 -9 45 -19 57 -22 12 -4 22 -11 22 -15 0 -4 6 -8 13 -8 6 0 89 -37 182
-83 94 -46 173 -83 178 -82 4 1 7 -3 7 -9 0 -5 4 -8 9 -5 5 4 11 3 13 -1 1 -5
26 -20 54 -34 133 -68 199 -104 204 -109 3 -3 21 -13 40 -22 19 -10 56 -30 82
-45 25 -15 77 -46 115 -67 37 -22 93 -55 123 -75 30 -19 57 -35 60 -36 3 0 30
-16 60 -36 30 -20 109 -71 175 -114 66 -43 122 -82 123 -87 2 -4 7 -8 12 -8 5
0 47 -28 95 -62 47 -35 94 -67 102 -73 19 -11 14 -8 188 -146 72 -57 135 -108
141 -114 6 -5 32 -28 59 -50 149 -125 418 -393 540 -540 22 -27 50 -60 62 -74
47 -54 163 -211 163 -221 0 -6 3 -10 8 -10 7 0 136 -195 138 -208 0 -4 3 -14
7 -22 3 -8 38 -98 76 -200 39 -102 87 -223 106 -270 20 -47 38 -89 39 -95 1
-5 12 -32 24 -59 12 -27 22 -52 22 -56 0 -5 7 -21 15 -37 8 -15 24 -50 36 -78
12 -27 41 -92 65 -143 40 -86 42 -96 30 -120 -20 -41 -26 -75 -32 -175 -9
-169 -12 -212 -18 -262 -10 -81 -16 -117 -26 -170 -5 -27 -12 -63 -15 -80 -12
-60 -16 -81 -32 -140 -8 -33 -16 -64 -17 -70 -2 -5 -11 -37 -21 -70 -10 -33
-20 -65 -21 -72 -1 -6 -27 -74 -59 -150 -31 -76 -57 -144 -57 -150 -1 -7 -5
-13 -10 -13 -4 0 -8 -4 -8 -10 0 -19 -112 -234 -152 -292 -10 -14 -18 -29 -18
-32 0 -22 -222 -330 -328 -455 -110 -131 -350 -376 -446 -456 -26 -22 -57 -50
-69 -61 -12 -12 -49 -43 -82 -69 -33 -26 -62 -51 -65 -54 -3 -4 -59 -46 -125
-95 -66 -48 -131 -96 -145 -106 -14 -11 -70 -48 -125 -84 -55 -36 -105 -69
-111 -73 -5 -4 -21 -14 -35 -22 -13 -8 -73 -45 -134 -81 -123 -75 -137 -83
-221 -125 -32 -16 -61 -33 -64 -36 -10 -12 -506 -252 -525 -254 -5 -1 -40 -16
-78 -33 -37 -18 -69 -32 -71 -32 -2 0 -21 -8 -42 -17 -22 -9 -42 -17 -46 -17
-3 -1 -10 -4 -14 -8 -4 -5 -14 -8 -21 -8 -8 0 -33 -9 -55 -20 -23 -11 -46 -20
-51 -20 -5 0 -23 -7 -40 -15 -33 -15 -310 -114 -337 -120 -8 -2 -16 -4 -17 -5
-2 -2 -7 -4 -13 -5 -5 -1 -12 -4 -15 -5 -3 -1 -9 -4 -15 -5 -5 -1 -13 -4 -17
-5 -5 -1 -11 -2 -15 -1 -5 0 -8 -4 -8 -10 0 -5 -4 -8 -8 -5 -4 2 -41 -7 -82
-21 -41 -14 -82 -26 -90 -28 -18 -4 -97 -26 -195 -55 -38 -11 -79 -22 -90 -25
-11 -2 -38 -9 -60 -15 -22 -6 -48 -13 -58 -15 -10 -2 -26 -6 -35 -9 -9 -3 -28
-8 -42 -10 -14 -3 -74 -17 -135 -31 -60 -14 -123 -27 -140 -30 -16 -2 -53 -11
-81 -18 -29 -7 -61 -13 -73 -12 -11 1 -21 -1 -21 -5 0 -3 -12 -7 -27 -7 -16
-1 -48 -7 -72 -13 -24 -6 -50 -9 -58 -6 -7 3 -13 2 -13 -3 0 -5 -10 -9 -22 -9
-13 0 -52 -5 -88 -12 -36 -7 -76 -14 -90 -15 -14 -2 -45 -6 -70 -10 -25 -4
-58 -8 -75 -10 -16 -2 -52 -6 -80 -9 -64 -8 -124 -14 -315 -32 -50 -4 -229
-14 -360 -19 -278 -12 -817 -2 -1070 19 -30 3 -93 8 -140 11 -47 4 -103 9
-125 11 -22 2 -62 6 -90 9 -27 2 -68 7 -90 9 -22 3 -67 8 -101 10 -33 3 -67 7
-75 10 -8 3 -39 7 -69 10 -30 3 -68 8 -85 11 -16 2 -48 7 -70 9 -22 3 -40 5
-40 6 0 1 -32 6 -95 14 -19 3 -46 7 -60 10 -14 2 -47 8 -75 12 -27 4 -57 9
-65 11 -8 1 -28 5 -45 8 -52 8 -89 15 -115 22 -14 3 -32 7 -40 8 -8 1 -33 5
-55 9 -22 5 -51 10 -65 13 -14 2 -45 9 -70 14 -25 6 -54 12 -65 15 -57 11
-264 59 -370 86 -66 16 -127 31 -135 33 -8 2 -30 8 -47 14 -18 5 -33 8 -33 6
0 -2 -16 3 -35 11 -19 8 -36 14 -37 13 -2 -1 -14 1 -28 5 -14 4 -43 12 -65 18
-22 5 -47 13 -55 16 -8 3 -18 6 -22 7 -5 2 -9 3 -10 4 -2 2 -14 4 -27 7 -14 2
-31 10 -40 17 -11 9 -13 9 -8 0 5 -8 -10 -5 -40 6 -26 10 -127 44 -223 75 -96
31 -184 61 -195 66 -24 11 -186 70 -200 74 -21 4 -110 40 -115 45 -3 4 -13 7
-23 9 -23 4 -349 142 -428 182 -32 15 -59 26 -62 24 -2 -3 -10 2 -17 11 -7 8
-18 15 -25 15 -14 0 -301 145 -322 162 -7 6 -13 7 -13 4 0 -4 -13 2 -29 13
-16 12 -32 21 -35 21 -3 0 -27 13 -54 29 -26 15 -68 39 -93 53 -109 62 -174
102 -177 110 -2 4 -8 6 -13 2 -5 -3 -9 0 -9 5 0 6 -4 11 -9 11 -5 0 -77 46
-161 102 -85 57 -160 108 -169 113 -8 6 -24 18 -35 28 -12 10 -37 28 -56 40
-19 12 -39 26 -45 32 -5 6 -53 45 -105 86 -52 41 -102 81 -111 89 -9 8 -49 44
-90 80 -89 78 -275 264 -344 344 -27 31 -69 78 -92 104 -24 26 -43 50 -43 53
0 4 -12 20 -27 37 -16 17 -60 77 -100 134 -214 309 -376 655 -448 954 -15 63
-44 206 -50 249 -4 28 -9 61 -11 75 -18 118 -23 431 -10 580 12 128 15 154 20
180 2 14 7 42 10 62 3 21 10 57 15 80 6 24 12 54 15 68 3 14 8 36 11 50 3 14
8 36 11 50 3 14 8 34 11 45 6 19 9 27 16 58 9 37 81 253 87 262 9 12 24 67 22
78 -1 4 2 7 6 7 5 0 17 27 28 60 10 33 22 60 25 60 4 0 10 12 14 28 11 44 174
370 229 457 69 110 138 209 148 213 4 2 8 8 8 14 0 9 61 91 85 113 6 6 26 30
45 55 37 47 43 54 156 171 107 111 290 278 348 319 12 8 27 20 35 28 8 8 39
32 70 55 31 23 62 48 69 55 7 6 17 12 21 12 5 0 21 11 37 25 43 38 53 45 59
45 7 0 62 38 89 63 11 9 25 17 32 17 6 0 17 6 23 13 6 8 31 24 56 37 25 13 45
27 45 32 0 4 4 8 9 8 8 0 114 60 136 77 6 4 40 24 78 43 37 19 67 38 67 42 0
5 3 7 8 6 4 -1 50 20 102 47 161 83 414 205 425 205 2 0 28 11 57 24 69 32
130 58 143 61 6 2 28 11 50 20 22 10 42 19 45 19 8 2 121 47 155 61 17 8 42
17 58 20 15 4 27 12 27 18 0 6 3 8 6 5 3 -4 49 9 102 29 103 36 240 83 257 86
6 2 15 5 20 9 13 8 127 41 143 41 6 0 12 5 12 10 0 5 7 7 15 3 8 -3 15 0 15 6
0 6 3 8 7 5 3 -4 12 -2 20 4 7 6 13 9 13 6 0 -4 18 0 40 8 22 8 40 12 40 8 0
-3 6 -1 13 5 6 5 26 13 42 16 17 2 53 12 80 21 58 18 334 93 367 99 13 2 43 9
68 16 25 7 56 14 70 16 14 3 39 9 55 14 17 5 44 11 60 14 17 3 95 19 175 36
80 17 162 32 183 33 20 1 37 4 37 8 0 4 8 6 18 6 16 -1 92 10 137 20 11 2 36
6 55 8 19 3 44 7 56 10 11 2 43 7 70 10 27 3 60 8 74 11 14 3 50 7 80 9 30 2
69 7 85 9 17 3 55 8 85 11 30 3 73 8 95 10 22 2 78 7 125 10 47 4 101 8 120
11 19 2 100 7 180 10 80 4 147 8 148 9 6 5 791 -3 857 -9z"/>
<path d="M8405 11576 c-67 -18 -115 -39 -115 -49 0 -4 -4 -6 -9 -2 -5 3 -15 0
-23 -7 -7 -7 -29 -25 -49 -40 -49 -36 -110 -102 -158 -169 -39 -55 -121 -206
-125 -231 -1 -7 -5 -18 -8 -24 -17 -26 -45 -129 -55 -199 -7 -45 -6 -175 1
-219 7 -41 56 -159 72 -172 8 -6 14 -16 14 -21 0 -6 29 -38 65 -72 64 -60 206
-140 259 -145 12 -2 27 -5 32 -8 37 -23 255 -25 306 -4 9 4 22 8 30 10 7 1 19
5 26 9 6 5 12 6 12 2 0 -9 171 86 215 119 80 63 185 196 185 236 0 9 3 20 7
24 15 15 22 128 11 194 -4 23 -1 35 8 39 42 16 43 197 1 296 -9 20 -15 39 -14
40 1 2 -16 34 -38 72 -48 83 -193 235 -224 235 -5 0 -11 4 -13 8 -5 12 -107
58 -163 75 -64 18 -186 20 -250 3z m70 -391 c71 -25 211 -118 305 -203 14 -12
42 -35 62 -51 21 -15 34 -31 31 -35 -8 -7 -12 -24 -19 -81 -3 -22 -6 -47 -7
-55 -4 -20 -37 -71 -62 -94 -26 -24 -111 -63 -155 -72 -60 -11 -206 -9 -251 5
-123 36 -215 111 -239 196 -14 50 -7 159 11 181 6 8 9 14 6 14 -3 0 7 26 23
58 29 60 88 132 108 132 7 0 12 4 12 9 0 23 105 21 175 -4z"/>
<path d="M6257 10244 c-2 -3 -17 -7 -33 -9 -53 -8 -87 -16 -103 -24 -9 -5 -18
-9 -21 -9 -45 -3 -120 -65 -120 -100 0 -25 44 -82 63 -82 17 0 140 -92 201
-149 32 -31 85 -90 117 -131 33 -41 69 -86 79 -98 11 -13 20 -26 20 -28 0 -7
41 -64 65 -92 11 -13 18 -24 16 -25 -5 -2 48 -85 66 -105 7 -7 13 -20 13 -28
0 -8 3 -14 8 -14 4 0 16 -17 27 -37 11 -21 22 -40 25 -43 3 -3 27 -39 54 -80
53 -80 143 -202 173 -235 11 -11 50 -60 87 -110 91 -120 162 -185 253 -232 42
-21 79 -38 82 -39 3 0 31 -8 61 -17 30 -9 67 -18 82 -20 15 -1 31 -6 35 -10
11 -11 13 -37 2 -37 -4 0 -6 -7 -3 -15 10 -26 -18 -17 -106 35 -91 53 -266
141 -287 144 -7 1 -16 5 -19 9 -4 4 -15 7 -25 7 -10 0 -35 10 -56 22 -50 28
-390 198 -397 198 -3 0 -29 11 -58 24 -29 13 -96 38 -148 56 -52 18 -102 35
-110 38 -8 3 -19 7 -25 8 -5 1 -13 3 -17 4 -5 1 -12 4 -18 5 -5 1 -12 4 -15 5
-3 1 -9 4 -15 5 -5 1 -11 3 -12 4 -2 2 -14 5 -27 7 -14 2 -52 12 -85 20 -34 9
-72 17 -86 19 -14 2 -25 4 -25 5 0 8 -214 34 -442 55 -198 18 -272 26 -296 31
-27 5 -129 17 -147 17 -8 0 -17 3 -20 8 -3 4 -18 9 -35 12 -45 8 -84 22 -150
52 -33 16 -64 29 -70 30 -31 7 -170 113 -221 168 -81 87 -104 115 -104 127 0
6 -4 10 -8 10 -4 0 -16 14 -26 32 -32 53 -203 218 -226 218 -6 0 -10 5 -10 10
0 6 -4 10 -10 10 -5 0 -32 13 -60 30 -28 16 -62 33 -75 36 -14 3 -25 10 -25
16 0 5 -3 7 -7 5 -5 -3 -19 0 -33 6 -14 5 -29 11 -35 12 -5 2 -30 10 -55 18
-75 26 -170 49 -265 63 -70 11 -175 5 -207 -11 -18 -9 -55 -23 -83 -31 -27 -8
-59 -19 -70 -24 -11 -5 -31 -14 -45 -19 -14 -5 -44 -23 -68 -41 -56 -41 -56
-74 3 -107 21 -12 42 -20 46 -17 4 2 10 0 14 -6 3 -5 -2 -10 -11 -10 -26 0 -8
-14 64 -50 35 -17 71 -37 80 -45 9 -7 32 -26 50 -40 18 -15 43 -46 57 -69 27
-46 33 -71 50 -196 12 -85 14 -95 29 -133 33 -76 149 -164 281 -213 77 -28
167 -40 287 -37 284 5 333 3 403 -12 17 -4 35 -8 42 -9 7 -1 16 -5 19 -9 4 -4
15 -7 25 -7 17 0 99 -40 127 -63 7 -6 17 -18 22 -27 8 -14 -1 -16 -78 -17 -77
0 -114 -4 -187 -18 -40 -8 -61 -13 -120 -31 -33 -10 -63 -18 -67 -18 -4 -1
-13 -7 -20 -13 -6 -7 -18 -13 -25 -13 -13 0 -53 -19 -63 -30 -3 -3 -21 -17
-40 -30 -28 -19 -191 -151 -210 -170 -18 -18 -180 -103 -180 -94 0 4 -6 2 -12
-3 -12 -9 -36 -16 -138 -39 -14 -3 -74 -7 -135 -9 -209 -7 -315 -14 -333 -24
-9 -5 -20 -9 -25 -10 -24 -2 -87 -25 -87 -33 0 -4 -6 -8 -14 -8 -8 0 -33 -16
-56 -35 -23 -19 -39 -35 -35 -35 3 0 -3 -13 -15 -30 -12 -16 -18 -30 -14 -30
3 0 1 -6 -5 -13 -6 -8 -8 -16 -6 -19 3 -3 1 -17 -4 -31 -5 -14 -7 -28 -3 -31
3 -4 7 -26 8 -49 2 -24 10 -63 19 -88 9 -24 18 -51 20 -59 2 -8 4 -16 5 -17 2
-2 3 -6 5 -10 1 -5 6 -19 12 -33 53 -123 82 -208 87 -251 4 -34 -29 -141 -45
-147 -5 -2 -9 -8 -9 -13 0 -6 -24 -51 -54 -102 -97 -166 -118 -218 -118 -300
1 -64 48 -157 81 -157 6 0 11 -4 11 -9 0 -9 48 -26 63 -23 4 1 7 -2 7 -7 0 -5
8 -8 18 -6 9 1 24 -1 32 -5 9 -5 31 -11 50 -13 19 -3 35 -6 35 -7 0 -8 396
-13 505 -6 72 4 194 16 220 21 28 5 32 -9 10 -33 -11 -12 -20 -23 -20 -25 0
-2 -22 -38 -50 -80 -27 -42 -50 -81 -50 -86 0 -6 -3 -11 -8 -11 -4 0 -20 -26
-35 -57 -15 -32 -32 -65 -37 -73 -9 -16 -57 -121 -71 -155 -13 -33 -23 -70
-21 -77 1 -5 -3 -8 -8 -8 -5 0 -9 -3 -8 -7 1 -5 -3 -30 -10 -58 -22 -93 -24
-110 -28 -190 -1 -48 3 -104 12 -140 8 -33 16 -64 17 -70 2 -5 6 -16 10 -22 5
-7 6 -13 2 -13 -3 0 1 -13 9 -29 14 -26 105 -111 120 -111 9 0 46 -34 46 -43
0 -4 -10 -2 -22 5 -34 18 -46 18 -51 -2 -6 -25 26 -68 82 -110 25 -19 55 -43
65 -52 11 -10 22 -18 26 -18 3 0 6 -21 5 -46 0 -71 37 -92 180 -98 33 -1 72
-6 88 -10 26 -6 34 4 28 37 -1 5 14 27 34 51 19 24 35 48 35 55 0 6 4 11 8 11
8 0 36 51 32 59 -1 2 3 7 10 11 12 8 18 29 19 71 1 17 8 28 19 31 16 4 88 134
97 173 1 5 5 17 8 25 30 78 53 240 61 430 3 63 6 115 6 115 0 0 3 36 6 80 5
77 10 124 14 135 1 3 2 8 1 13 -1 4 4 28 10 55 6 26 12 56 15 67 2 11 8 31 13
45 14 37 22 65 22 68 -3 8 74 138 86 145 7 4 13 13 13 19 0 12 138 150 194
193 62 48 186 124 256 157 91 43 91 43 225 89 65 23 148 55 183 70 35 16 76
29 90 29 23 0 20 -4 -23 -26 -56 -30 -106 -65 -135 -97 -11 -11 -27 -22 -35
-23 -13 -2 -97 -51 -130 -76 -5 -5 -44 -33 -85 -65 -98 -74 -152 -124 -263
-246 -38 -41 -152 -215 -161 -244 -4 -13 -12 -23 -17 -23 -5 0 -9 -6 -9 -13 0
-7 -13 -44 -29 -82 -28 -66 -66 -195 -76 -260 -3 -16 -8 -43 -12 -60 -6 -33
-9 -50 -18 -140 -10 -92 -13 -140 -20 -260 -8 -136 -19 -240 -25 -240 -4 0
-24 -115 -24 -147 -1 -16 -4 -28 -7 -28 -12 0 -3 -195 11 -220 8 -14 13 -28
12 -32 -1 -4 13 -19 32 -33 82 -63 259 -28 521 103 50 24 92 48 95 52 3 4 16
11 30 15 14 4 27 11 30 14 8 10 130 81 140 81 5 0 10 4 12 8 2 4 32 25 68 47
204 121 323 216 435 346 122 142 184 308 197 524 2 23 -12 192 -17 215 -3 14
-8 39 -10 55 -3 17 -7 41 -10 55 -13 57 -27 117 -35 150 -17 69 -20 85 -22
113 -1 15 -5 27 -8 27 -6 0 -4 93 3 155 7 61 28 135 38 135 5 0 9 5 9 12 0 37
84 102 158 123 40 11 163 6 242 -10 14 -3 36 -7 49 -10 39 -7 132 -35 191 -56
70 -26 264 -120 268 -131 2 -5 7 -6 12 -3 5 3 14 0 22 -7 52 -50 307 -134 491
-162 22 -4 69 -13 105 -21 37 -8 78 -17 92 -19 265 -48 363 -88 386 -158 7
-25 -27 -64 -76 -85 -36 -16 -191 -59 -245 -68 -16 -3 -41 -8 -55 -10 -65 -13
-78 -16 -115 -20 -22 -3 -51 -8 -65 -11 -14 -3 -38 -7 -55 -9 -16 -2 -42 -6
-56 -9 -14 -3 -42 -7 -62 -8 -20 -2 -37 -7 -37 -11 0 -5 -3 -6 -7 -4 -8 5
-123 -12 -188 -28 -119 -27 -285 -98 -366 -155 -15 -11 -30 -20 -34 -20 -3 0
-12 -6 -20 -12 -7 -7 -25 -22 -40 -32 -86 -63 -170 -150 -253 -261 -28 -38
-55 -74 -60 -80 -4 -5 -18 -26 -32 -45 -13 -19 -27 -37 -30 -40 -5 -5 -167
-195 -182 -215 -5 -5 -24 -28 -43 -49 -19 -22 -35 -44 -35 -48 0 -4 -8 -16
-18 -26 -30 -30 -100 -159 -117 -214 -8 -29 -15 -73 -15 -100 0 -47 24 -123
44 -143 32 -31 96 -75 108 -75 8 0 18 -4 24 -8 52 -44 290 -66 514 -48 85 7
96 8 200 21 30 4 69 9 85 10 17 2 30 4 30 5 0 1 11 3 25 6 14 2 39 7 55 10 17
3 39 7 50 9 11 1 27 5 35 8 8 3 35 11 60 17 154 38 387 143 478 215 55 44 171
163 204 210 29 40 108 184 113 205 2 5 21 53 32 80 3 8 7 17 8 20 1 6 46 152
88 285 17 55 31 102 32 105 8 45 91 230 108 241 5 3 8 9 7 13 -1 4 21 38 50
74 83 105 183 178 320 235 54 22 148 51 157 48 2 0 20 6 40 13 55 19 70 12
209 -109 7 -5 36 -30 65 -55 97 -82 187 -176 239 -250 13 -19 27 -37 30 -40 3
-3 24 -27 45 -55 22 -27 45 -55 50 -61 6 -6 37 -41 70 -78 137 -155 256 -266
420 -394 37 -29 105 -72 114 -72 6 0 11 -3 11 -7 0 -9 106 -66 127 -69 8 -1
21 -8 30 -15 8 -7 20 -14 27 -15 6 -1 25 -8 41 -15 17 -6 41 -14 55 -16 13 -2
30 -9 37 -15 7 -6 13 -8 13 -6 0 3 30 -1 68 -8 63 -12 346 -12 398 -1 11 3 45
8 75 11 30 3 65 8 79 11 14 3 37 7 52 10 15 2 32 6 38 10 5 3 19 8 30 11 11 2
28 6 38 8 27 6 122 44 182 73 129 62 283 194 368 313 26 36 51 68 57 72 5 4 6
8 1 8 -5 0 -2 8 6 18 14 15 37 59 162 297 45 85 98 159 128 179 21 13 52 20
138 31 14 2 25 4 25 5 0 1 13 4 29 6 16 3 38 10 49 15 28 15 76 127 108 249
26 100 27 116 26 318 -1 116 -4 212 -7 212 -3 0 -6 8 -7 18 0 9 -4 73 -8 142
-9 144 -9 200 -1 290 8 83 40 241 71 350 14 47 26 94 28 105 2 11 7 27 10 35
8 20 40 149 43 175 1 11 3 21 4 23 4 3 5 10 19 91 18 101 19 334 2 366 -2 5
-6 20 -7 33 -9 85 -70 217 -181 395 -41 65 -77 127 -81 136 -3 9 -10 21 -14
26 -5 6 -35 47 -68 91 -59 81 -181 206 -232 239 -8 6 -42 28 -74 49 -105 70
-294 159 -419 198 -142 45 -229 68 -270 71 -11 1 -22 5 -25 8 -3 4 -23 10 -45
13 -22 3 -53 8 -70 11 -16 3 -46 7 -65 11 -85 13 -321 19 -405 10 -16 -2 -61
-7 -99 -10 -39 -4 -79 -12 -89 -18 -15 -7 -18 -7 -12 2 5 9 1 9 -16 -1 -13 -7
-26 -12 -29 -11 -3 1 -21 -1 -40 -5 -46 -9 -50 -10 -52 -13 -2 -1 -15 -4 -30
-6 -65 -11 -280 -86 -388 -137 -36 -16 -71 -30 -77 -30 -7 0 -13 -4 -13 -9 0
-4 -6 -8 -14 -8 -28 0 -260 -141 -332 -202 -66 -55 -165 -158 -208 -216 -80
-106 -160 -271 -201 -417 -10 -33 -20 -67 -23 -75 -3 -8 -7 -26 -9 -40 -2 -14
-6 -32 -10 -40 -3 -8 -7 -21 -9 -29 -1 -7 -8 -34 -14 -60 -6 -25 -13 -57 -15
-71 -18 -97 -39 -189 -48 -210 -5 -14 -11 -31 -13 -38 -3 -14 -50 -88 -69
-108 -26 -27 -86 -48 -200 -69 -16 -4 -43 -9 -60 -12 -16 -3 -37 -6 -45 -7 -8
-2 -23 -5 -32 -9 -10 -4 -26 -10 -35 -13 -24 -9 -275 -14 -288 -6 -5 4 -16 7
-23 8 -40 6 -89 64 -74 89 3 5 7 19 8 30 1 12 16 43 33 70 17 28 34 58 37 68
4 9 10 17 15 17 5 0 9 6 9 14 0 8 3 16 8 18 14 6 45 72 50 107 7 53 -1 210
-12 256 -21 82 -28 112 -31 128 -15 69 -137 347 -157 355 -4 2 -8 10 -8 18 0
8 -4 14 -10 14 -5 0 -10 5 -10 11 0 20 -76 113 -165 203 -81 82 -111 108 -180
156 -27 19 -52 37 -55 40 -10 10 -108 63 -189 101 -99 47 -301 116 -391 133
-129 24 -142 27 -185 32 -22 3 -51 8 -65 11 -31 6 -436 13 -443 7z m4633 -408
c19 -3 53 -8 75 -12 54 -8 196 -58 229 -79 14 -10 26 -14 26 -10 0 5 8 1 18
-7 9 -8 38 -27 64 -41 26 -15 53 -33 60 -40 7 -8 18 -16 24 -18 49 -18 272
-241 301 -300 22 -45 33 -89 53 -214 27 -164 54 -248 106 -330 32 -51 95 -115
113 -115 31 0 13 -22 -46 -56 -178 -104 -272 -257 -287 -465 -2 -25 -6 -51
-10 -58 -4 -6 -2 -11 5 -11 8 0 9 -3 0 -13 -6 -8 -8 -16 -5 -19 3 -3 7 -39 10
-79 2 -41 6 -85 9 -99 3 -14 8 -43 11 -65 3 -22 12 -67 20 -100 8 -33 17 -72
19 -87 2 -15 9 -46 16 -70 6 -24 13 -52 14 -63 2 -11 6 -31 9 -45 16 -66 17
-156 3 -197 -9 -22 -13 -44 -10 -47 4 -3 2 -6 -4 -6 -10 0 -26 -54 -28 -90 0
-8 -5 -21 -9 -29 -16 -25 -10 -138 8 -166 13 -19 14 -26 4 -29 -7 -3 -40 -14
-73 -26 -33 -12 -68 -24 -77 -27 -10 -3 -18 -10 -18 -15 0 -5 -4 -7 -8 -4 -9
5 -76 -40 -131 -89 -82 -73 -147 -220 -125 -283 8 -21 5 -37 -14 -77 -65 -135
-170 -259 -297 -350 -56 -40 -163 -100 -175 -98 -3 1 -10 -3 -16 -8 -12 -10
-43 -16 -129 -24 -27 -3 -72 -7 -99 -10 -39 -4 -60 0 -105 22 -61 30 -177 98
-197 116 -7 7 -27 23 -45 37 -93 71 -198 203 -274 345 -20 39 -41 75 -46 81
-5 6 -6 14 -2 17 3 4 2 7 -4 7 -5 0 -15 12 -22 28 -19 43 -113 182 -122 182
-5 0 -9 4 -9 10 0 9 -63 74 -111 115 -51 43 -107 85 -114 85 -3 0 -25 13 -48
29 -86 58 -328 160 -467 196 -119 31 -144 36 -207 40 -28 1 -56 6 -61 9 -6 4
-13 3 -15 -1 -3 -5 -33 -8 -66 -8 -34 0 -61 -3 -61 -7 0 -4 -3 -7 -7 -6 -13 3
-86 -23 -120 -44 -32 -19 -32 -19 -79 2 -25 12 -54 23 -63 25 -33 7 -86 30
-93 40 -4 6 -8 7 -8 3 0 -4 -24 2 -52 13 -77 30 -624 219 -635 219 -2 0 -5 0
-8 0 -3 0 -19 7 -35 15 -16 8 -31 15 -32 14 -5 -2 -63 14 -73 20 -5 3 -14 6
-20 7 -5 1 -37 11 -70 22 -33 11 -127 41 -210 66 -82 25 -163 51 -180 57 -16
5 -37 12 -45 14 -8 2 -71 20 -139 39 -68 20 -144 38 -170 40 -25 3 -46 5 -46
6 0 17 -412 35 -463 21 -18 -5 -40 -2 -67 10 -70 31 -81 34 -155 45 -59 9
-305 4 -305 -6 0 -2 -26 -7 -72 -13 -21 -3 -51 -10 -66 -16 -15 -6 -27 -9 -27
-6 0 4 -90 -20 -120 -32 -8 -3 -19 -7 -25 -8 -5 -1 -13 -3 -17 -5 -5 -1 -12
-4 -18 -5 -5 -1 -11 -3 -12 -5 -2 -1 -11 -3 -20 -5 -17 -3 -142 -48 -183 -65
-306 -130 -347 -150 -492 -232 -58 -33 -75 -48 -84 -75 -8 -24 -15 -32 -27
-29 -95 29 -302 30 -412 2 -36 -9 -72 -18 -80 -20 -39 -10 -110 -46 -128 -66
-11 -12 -35 -23 -54 -25 -18 -2 -41 -6 -50 -10 -14 -5 -18 -2 -18 14 0 12 4
21 8 21 5 0 9 6 9 13 0 6 13 53 28 102 14 50 28 101 30 115 19 126 23 170 23
269 1 134 2 131 -120 266 l-28 31 43 2 c136 5 251 19 372 44 55 11 111 22 125
25 13 2 30 9 37 15 7 6 13 7 13 3 0 -4 7 -2 15 5 8 7 15 9 15 5 0 -4 7 -2 15
5 8 7 15 10 15 7 0 -16 223 92 314 152 76 50 191 160 201 192 5 14 12 15 48 7
53 -13 207 -17 207 -5 0 4 4 5 10 2 16 -10 128 23 189 55 52 28 161 119 161
134 0 6 10 19 37 50 7 8 15 26 19 41 7 27 8 27 63 21 67 -7 168 -23 251 -41
14 -3 34 -7 45 -9 50 -10 123 -28 150 -36 17 -5 55 -17 85 -27 30 -9 58 -18
63 -19 4 -1 8 -2 10 -4 1 -1 9 -3 17 -5 52 -10 279 -117 411 -192 20 -12 47
-27 60 -35 13 -7 26 -15 29 -18 11 -11 111 -64 245 -130 117 -57 307 -131 373
-144 9 -1 24 -6 32 -9 21 -7 71 -20 93 -22 9 -2 19 -4 22 -5 6 -3 9 -4 55 -13
19 -4 46 -9 60 -12 26 -6 74 -13 125 -20 17 -2 30 -4 30 -5 0 -1 35 -3 77 -4
42 -1 83 -7 90 -13 7 -6 53 -21 101 -33 119 -29 361 -32 510 -5 15 3 39 7 55
10 54 9 89 17 172 37 47 11 96 22 109 24 13 3 32 9 43 15 10 5 18 7 18 3 0 -3
6 -2 13 3 6 6 35 16 62 23 28 7 55 16 60 19 6 3 12 6 15 7 32 6 264 107 313
136 26 15 50 28 53 28 15 0 86 78 96 107 7 18 15 33 19 33 4 0 11 15 14 33 4
17 11 37 15 42 7 10 50 130 54 150 1 6 4 15 8 20 3 6 9 26 14 45 11 50 11 50
14 53 1 1 3 10 6 20 2 9 6 23 7 30 2 6 7 26 12 42 4 17 10 35 14 40 3 6 6 15
6 20 1 15 39 129 45 135 3 3 6 12 8 19 10 47 129 253 178 307 10 12 37 43 59
69 59 70 153 159 215 204 30 22 60 44 65 49 6 4 13 9 17 11 4 1 45 20 91 41
91 43 248 87 334 94 30 3 57 6 58 8 6 5 238 1 275 -6z m-3782 -182 c7 -8 17
-14 22 -14 13 0 138 -97 199 -154 65 -62 160 -187 183 -241 32 -78 35 -86 39
-122 0 -5 4 -12 8 -18 4 -5 7 -17 6 -25 -1 -8 2 -25 7 -37 14 -42 -13 -24
-101 66 -90 92 -171 193 -257 316 -30 44 -76 95 -115 125 -35 28 -71 57 -81
65 -9 7 -19 11 -22 8 -3 -4 -6 -1 -6 6 0 8 8 11 20 8 25 -6 56 16 45 33 -10
16 33 3 53 -16z m-1613 -3191 c4 -21 10 -49 12 -63 7 -38 8 -171 1 -205 -20
-100 -130 -241 -239 -303 -57 -32 -76 -40 -78 -32 -1 3 -8 27 -16 53 -9 30
-11 56 -6 65 4 10 13 39 20 65 6 27 21 70 33 95 26 58 139 232 150 232 4 0 8
4 8 10 0 9 19 35 48 65 6 8 12 16 12 19 0 10 35 43 41 40 4 -2 10 -21 14 -41z
m1970 -367 c-24 -120 -118 -279 -225 -381 -22 -22 -54 -52 -70 -67 -16 -16
-33 -28 -38 -28 -5 0 -15 -7 -22 -15 -25 -30 -196 -129 -280 -162 -47 -18 -93
-38 -102 -43 -12 -7 -18 -7 -18 0 0 5 32 76 71 157 106 218 190 334 314 433
56 44 135 87 174 95 9 1 34 8 56 13 22 6 55 13 73 16 19 2 36 6 38 9 2 2 11 4
19 4 12 0 14 -7 10 -31z m-3640 -606 c39 -19 73 -33 78 -32 11 3 8 -16 -4 -23
-5 -4 -18 0 -27 8 -9 8 -43 29 -74 47 -32 17 -58 34 -58 37 0 2 3 3 8 1 4 -2
39 -19 77 -38z"/>
<path d="M1766 8285 c-64 -14 -228 -91 -274 -130 -17 -14 -33 -25 -36 -25 -3
0 -33 -28 -66 -62 -104 -107 -149 -226 -135 -360 4 -42 3 -68 -4 -68 -12 0
-29 -52 -34 -103 -6 -52 19 -177 47 -240 82 -185 253 -344 426 -395 57 -17
149 -29 170 -23 3 1 28 4 55 6 108 7 237 78 338 184 31 34 54 61 51 61 -4 0 3
9 16 20 13 11 20 20 16 20 -4 0 4 15 18 33 24 31 107 194 119 232 19 63 39
134 45 160 8 40 8 221 -1 264 -22 101 -108 235 -192 297 -54 41 -163 98 -210
110 -125 31 -254 38 -349 19z m189 -410 c60 -9 159 -54 197 -89 87 -79 96
-198 28 -342 -69 -144 -166 -186 -295 -129 -22 10 -43 17 -47 17 -5 -1 -8 2
-8 8 0 6 -4 10 -10 10 -14 0 -154 100 -204 145 -6 6 -32 28 -58 49 -26 21 -45
42 -42 48 3 5 8 28 10 51 8 66 12 84 25 108 55 103 218 153 404 124z"/>
<path d="M13367 7974 c-1 -1 -20 -5 -42 -8 -56 -8 -65 -10 -110 -25 -44 -15
-128 -61 -133 -73 -2 -4 -8 -8 -12 -8 -32 0 -181 -178 -210 -250 -7 -19 -17
-40 -22 -46 -5 -7 -11 -20 -13 -30 -2 -11 -11 -43 -19 -71 -8 -29 -12 -53 -9
-53 3 0 1 -6 -4 -12 -16 -20 -7 -227 11 -276 8 -23 16 -46 16 -50 6 -38 79
-152 130 -202 46 -46 188 -137 215 -139 3 0 29 -8 58 -16 83 -26 115 -30 237
-29 104 1 123 4 194 32 281 110 445 389 412 702 -2 19 -5 37 -6 40 -1 3 -3 10
-5 15 -1 6 -3 12 -4 15 -2 3 -4 13 -6 23 -17 91 -131 237 -212 271 -25 11 -47
30 -58 50 -25 47 -179 116 -290 131 -50 7 -115 12 -118 9z m93 -349 c0 -2 -15
-12 -34 -23 -38 -23 -67 -68 -61 -98 2 -10 4 -24 4 -30 1 -15 52 -65 75 -74
24 -8 56 16 56 44 0 10 -10 27 -22 38 -17 15 -20 23 -12 36 19 29 111 42 156
21 47 -21 95 -144 101 -254 3 -57 -45 -148 -105 -201 -112 -97 -311 -88 -422
19 -54 53 -79 107 -82 179 -7 173 108 322 271 350 20 4 75 -2 75 -7z"/>
<path d="M8885 5417 c-89 -13 -86 -12 -135 -26 -74 -20 -209 -75 -220 -90 -3
-3 -17 -12 -32 -20 -42 -22 -161 -134 -192 -182 -16 -24 -37 -56 -48 -71 -10
-15 -19 -35 -21 -45 -1 -10 -5 -22 -8 -28 -11 -18 -32 -89 -35 -115 -1 -14 -3
-25 -4 -25 -2 0 -4 -22 -5 -50 -2 -27 -4 -52 -5 -55 -1 -3 -2 -9 -1 -14 1 -5
4 -41 7 -80 5 -83 7 -97 17 -112 3 -6 8 -25 9 -43 1 -17 5 -31 8 -31 3 0 6 -9
7 -19 2 -28 65 -161 103 -218 37 -56 186 -203 205 -203 7 0 15 -3 17 -8 9 -21
150 -81 253 -108 129 -34 346 -25 480 20 152 50 317 169 390 281 35 55 64 113
58 119 -4 3 0 6 7 6 7 0 11 3 7 6 -3 3 0 26 8 50 7 24 9 41 4 38 -5 -3 -5 5 0
19 6 14 8 27 5 30 -3 2 -6 21 -8 40 -3 28 0 38 15 42 24 8 38 56 39 135 3 211
-70 400 -209 537 -66 64 -101 92 -128 99 -13 3 -23 10 -23 14 0 18 -205 91
-295 104 -68 11 -207 12 -270 3z m171 -362 c48 -5 87 -11 92 -15 1 -2 5 -3 10
-4 4 -1 32 -13 62 -28 48 -24 100 -66 136 -111 16 -19 45 -76 42 -80 -2 -2 3
-11 11 -20 7 -10 10 -17 7 -17 -4 0 -2 -9 4 -21 6 -11 13 -58 15 -105 3 -77 1
-90 -26 -142 -54 -109 -137 -190 -257 -253 -55 -29 -73 -33 -136 -32 -177 1
-337 95 -406 237 -32 67 -47 124 -46 174 1 18 -2 32 -6 32 -4 0 -5 6 -3 13 2
6 7 30 10 52 11 69 34 135 47 135 4 0 8 5 8 12 0 34 147 141 212 153 10 2 23
7 28 10 11 7 132 23 141 19 3 -2 28 -6 55 -9z m-317 -812 c2 -2 2 -5 0 -8 -3
-2 -25 14 -49 36 l-45 40 45 -33 c25 -18 47 -34 49 -35z"/>
</g>
</svg>
