<?xml version="1.0" standalone="no"?>
<!DOCTYPE svg PUBLIC "-//W3C//DTD SVG 20010904//EN"
 "http://www.w3.org/TR/2001/REC-SVG-20010904/DTD/svg10.dtd">
<svg version="1.0" xmlns="http://www.w3.org/2000/svg"
 width="700.000000pt" height="700.000000pt" viewBox="0 0 700.000000 700.000000"
 preserveAspectRatio="xMidYMid meet">
<metadata>
Created by potrace 1.14, written by Peter Selinger 2001-2017
</metadata>
<g transform="translate(0.000000,700.000000) scale(0.100000,-0.100000)"
fill="#000000" stroke="none">
<path d="M3440 5682 c-9 -4 -33 -20 -55 -37 -43 -33 -23 -32 -375 -24 -94 2
-112 -1 -165 -23 -48 -21 -68 -25 -100 -19 -59 11 -117 4 -195 -23 -101 -36
-205 -45 -355 -32 -16 1 -49 -3 -72 -10 -88 -26 -300 -117 -348 -148 -27 -18
-72 -46 -98 -62 -27 -16 -60 -38 -75 -50 -93 -73 -279 -184 -306 -184 -8 0
-41 -18 -74 -40 -33 -22 -63 -40 -67 -40 -5 0 -31 -17 -59 -38 -92 -69 -200
-148 -248 -180 -25 -18 -52 -38 -60 -44 -28 -27 -87 -68 -97 -68 -6 0 -11 -4
-11 -9 0 -5 -8 -12 -17 -15 -19 -6 -187 -167 -237 -227 -16 -19 -56 -83 -89
-144 -33 -60 -70 -126 -82 -145 -11 -19 -29 -53 -39 -75 -9 -22 -21 -49 -26
-60 -5 -11 -19 -45 -31 -75 -11 -30 -36 -87 -55 -126 -65 -136 -100 -290 -98
-431 1 -59 8 -87 39 -158 20 -47 43 -97 50 -112 9 -17 11 -32 5 -43 -6 -11 -5
-21 1 -27 6 -6 13 -26 15 -44 11 -70 27 -116 65 -184 78 -137 173 -271 243
-340 23 -23 64 -65 91 -95 28 -30 63 -62 79 -70 16 -8 94 -79 174 -157 79 -78
174 -162 211 -187 37 -24 79 -60 94 -80 16 -20 33 -36 40 -36 7 0 36 -16 64
-35 29 -19 55 -35 58 -35 3 0 31 -21 62 -46 57 -46 97 -68 144 -78 14 -3 43
-18 65 -32 49 -34 132 -67 162 -66 13 1 45 -9 72 -23 28 -14 67 -25 89 -25 22
0 41 -4 43 -10 5 -15 113 -32 218 -34 52 -2 104 -7 115 -13 24 -13 97 -24 180
-28 56 -3 182 -22 194 -29 8 -5 135 -19 181 -21 19 0 48 -5 63 -9 16 -5 60 -3
105 3 154 23 177 24 212 6 35 -18 123 -30 205 -28 28 1 185 5 350 9 253 5 302
9 312 22 9 10 32 16 75 16 35 1 70 6 78 11 20 13 35 16 106 20 33 3 74 11 90
20 18 9 56 15 99 15 52 0 78 5 103 20 18 11 40 20 50 20 10 0 26 6 37 13 24
17 109 47 150 53 17 3 53 13 80 23 28 10 74 21 103 25 55 7 122 33 122 48 0 4
6 8 13 8 6 0 34 11 60 25 26 14 52 23 57 20 10 -6 113 45 144 73 12 10 33 24
48 31 15 8 45 31 67 52 22 22 49 39 59 39 23 0 72 22 72 33 0 9 45 27 85 34
17 2 46 18 65 34 19 16 54 38 78 49 23 11 42 24 42 29 0 13 60 44 115 61 31 9
51 26 84 71 25 32 50 59 57 59 6 0 18 10 27 23 9 14 34 27 68 36 30 8 64 25
78 40 26 26 81 51 115 51 10 0 42 24 70 54 28 29 61 59 74 65 12 6 22 20 22
31 0 11 14 30 31 42 35 26 73 83 65 97 -4 5 4 22 16 38 30 37 52 82 84 173 14
41 35 85 46 96 11 12 26 53 35 90 8 38 23 78 33 89 12 13 21 44 25 85 10 104
25 177 44 219 15 34 16 52 9 122 -6 49 -5 92 0 109 15 42 6 101 -22 150 -14
25 -33 79 -42 120 -9 41 -24 89 -33 105 -10 17 -21 42 -24 56 -4 14 -25 52
-47 85 -22 32 -40 66 -40 75 0 9 -7 23 -16 30 -9 7 -20 23 -25 36 -5 13 -15
23 -23 23 -7 0 -19 13 -25 28 -17 40 -373 388 -424 414 -23 11 -47 28 -54 37
-7 9 -13 13 -13 9 0 -11 -127 58 -162 87 -16 14 -36 25 -43 25 -7 0 -42 13
-77 28 -34 16 -81 35 -103 42 -22 7 -53 25 -70 40 -16 15 -68 47 -114 70 -46
23 -120 64 -164 92 -43 27 -116 63 -161 79 -44 16 -121 50 -171 74 -101 50
-139 65 -175 71 -14 2 -56 11 -95 20 -38 9 -81 18 -95 20 -14 3 -42 9 -63 15
-20 5 -56 12 -80 14 -147 13 -182 17 -189 21 -4 2 -35 7 -68 9 -34 3 -87 11
-118 19 -32 8 -109 22 -172 31 -63 8 -144 22 -180 31 -68 15 -431 28 -460 16z
m185 -352 c28 0 66 -6 85 -13 20 -8 88 -17 155 -20 132 -7 135 -7 350 -77 166
-54 200 -60 328 -65 49 -2 91 -6 94 -9 3 -3 28 6 54 21 l49 26 84 -41 c47 -23
88 -42 92 -42 4 0 46 -20 95 -45 148 -75 182 -85 289 -84 l95 1 130 -66 c71
-37 153 -73 180 -81 28 -8 68 -27 91 -42 23 -15 95 -63 160 -107 224 -148 274
-184 382 -280 83 -74 242 -283 301 -396 l45 -85 0 -165 c0 -157 -8 -299 -18
-331 -3 -7 -7 -32 -10 -54 -13 -101 -18 -132 -31 -165 -7 -19 -19 -57 -26 -85
-6 -27 -27 -75 -45 -106 -19 -31 -34 -61 -34 -66 0 -11 -85 -129 -119 -165
-14 -15 -34 -38 -44 -52 -22 -31 -122 -109 -170 -132 -20 -10 -39 -25 -42 -33
-3 -9 -19 -22 -35 -30 -17 -7 -111 -92 -208 -188 -169 -167 -255 -243 -274
-243 -4 0 -45 -24 -91 -53 -45 -29 -101 -58 -124 -65 -23 -7 -55 -23 -70 -35
-37 -31 -101 -67 -117 -67 -15 0 -88 -37 -185 -93 -34 -20 -77 -39 -95 -42
-17 -3 -38 -8 -46 -10 -42 -11 -203 -22 -432 -30 -59 -1 -112 -6 -118 -10 -6
-4 -57 -8 -113 -10 -65 -2 -118 -9 -147 -20 -25 -9 -63 -18 -85 -20 -113 -11
-178 -16 -255 -20 -151 -10 -185 -13 -212 -24 -14 -5 -52 -15 -85 -20 -32 -6
-69 -14 -83 -17 -28 -6 -314 -6 -345 0 -11 2 -56 7 -100 10 -44 4 -98 9 -120
13 -22 3 -56 7 -75 8 -38 3 -134 13 -189 21 -18 2 -67 15 -107 29 -41 14 -85
25 -97 25 -13 0 -27 4 -33 9 -5 5 -43 19 -84 29 -41 11 -88 26 -105 32 -16 7
-43 14 -58 17 -16 2 -47 11 -70 20 -23 8 -73 23 -112 33 -38 10 -83 25 -100
33 -16 8 -55 18 -84 21 -126 15 -148 26 -393 190 -115 77 -189 135 -251 198
-49 48 -93 88 -98 88 -5 0 -9 6 -9 14 0 7 -44 51 -98 97 -75 64 -112 104 -154
169 -30 47 -59 96 -63 110 -4 14 -36 52 -70 85 -68 64 -97 113 -115 191 -7 27
-17 59 -23 72 -8 16 -8 28 -1 40 8 12 4 42 -13 112 -14 52 -29 100 -35 107 -6
7 -7 24 -4 38 4 14 9 56 12 93 7 104 12 145 18 172 29 134 50 213 68 255 11
28 24 59 28 70 19 52 78 164 108 203 18 24 38 56 45 70 35 81 374 374 561 486
44 27 107 66 138 87 74 50 455 241 555 278 43 16 96 31 118 35 58 9 164 18
208 17 20 0 61 11 90 24 50 23 117 34 242 40 33 2 83 8 110 14 28 7 94 14 147
16 53 1 101 5 106 8 8 6 43 11 154 22 32 3 75 13 95 22 36 15 114 14 193 -2
23 -5 106 14 155 35 11 5 29 7 40 4 11 -3 43 -5 70 -4z m2928 -2673 c6 -17
-145 -176 -171 -180 -10 -1 -33 -14 -52 -29 -19 -14 -51 -34 -70 -43 -42 -21
-172 -121 -183 -141 -10 -18 -37 -18 -37 -1 0 14 28 52 73 100 15 17 27 36 27
43 0 8 6 14 13 14 48 0 123 35 163 76 24 24 44 48 44 52 0 5 20 19 45 32 25
13 45 27 45 32 0 5 11 20 25 33 26 27 70 33 78 12z"/>
<path d="M3097 4734 c-10 -11 -27 -13 -122 -19 -146 -10 -235 -49 -274 -123
-12 -23 -9 -27 69 -91 36 -30 72 -60 80 -68 36 -33 67 -56 87 -63 31 -13 60
-99 68 -210 4 -52 11 -105 16 -118 12 -32 11 -55 -4 -76 -19 -25 -132 -33
-182 -12 -21 9 -71 19 -112 21 -41 3 -82 10 -91 15 -9 5 -37 18 -62 30 -43 20
-85 65 -213 229 -50 65 -117 113 -254 180 -93 47 -107 51 -173 51 -41 0 -86 6
-108 16 -49 20 -194 26 -242 9 -20 -7 -52 -15 -71 -18 -136 -18 -408 -184
-409 -248 0 -26 31 -55 77 -72 49 -19 82 -21 181 -9 40 4 79 4 88 -1 8 -5 29
-37 45 -71 33 -68 110 -145 174 -171 21 -9 69 -15 122 -15 129 -1 173 -12 206
-52 46 -54 46 -77 2 -115 -22 -19 -53 -35 -74 -38 -20 -3 -58 -10 -85 -16 -30
-7 -160 -11 -343 -10 -172 1 -311 -3 -333 -9 -41 -11 -85 -49 -93 -80 -3 -12
7 -36 26 -62 55 -74 98 -174 96 -223 -1 -11 3 -33 8 -50 12 -35 9 -90 -8 -163
-8 -34 -9 -56 -3 -62 21 -21 78 -17 121 8 34 19 51 22 82 17 22 -4 42 -2 45 4
3 5 30 17 59 27 28 9 74 28 100 41 41 20 51 22 65 11 9 -7 18 -13 20 -14 2 -1
-6 -17 -17 -35 -28 -48 -54 -156 -53 -213 1 -27 11 -103 23 -170 17 -102 28
-137 70 -222 33 -67 59 -105 77 -116 25 -15 31 -14 93 11 121 48 249 162 279
248 10 28 16 53 14 56 -2 2 -5 26 -6 53 -2 34 5 64 21 99 24 52 24 111 -1 126
-8 5 -13 33 -14 79 -1 67 0 72 26 85 23 12 127 34 241 52 24 3 51 -2 87 -17
74 -32 77 -38 41 -95 -17 -27 -44 -87 -61 -134 -27 -77 -29 -92 -24 -170 3
-47 10 -101 16 -120 18 -62 -19 -182 -75 -247 -19 -21 -35 -43 -35 -47 0 -4
-16 -33 -36 -65 -41 -63 -53 -109 -31 -118 34 -12 75 -10 122 7 28 10 77 21
110 24 33 3 78 10 100 15 22 5 52 11 68 15 15 3 44 20 65 38 40 36 102 81 102
74 0 -2 21 2 48 8 61 16 112 -4 113 -44 1 -41 6 -60 24 -87 15 -24 19 -24 85
-18 53 5 75 3 99 -10 17 -9 44 -23 60 -31 35 -19 111 -30 111 -17 0 19 56 35
79 22 24 -13 73 -6 146 21 57 21 92 29 153 34 50 5 135 48 155 79 8 12 32 39
53 62 107 112 150 176 160 241 6 44 8 46 97 149 97 112 137 130 251 113 39 -5
80 -16 91 -24 217 -159 306 -195 511 -211 80 -6 170 11 198 37 6 5 18 9 28 9
10 0 24 10 33 23 8 13 33 31 54 41 22 9 51 31 65 47 14 16 39 35 56 40 16 6
30 17 30 24 0 14 105 121 147 150 40 28 83 103 83 145 0 21 5 42 10 45 6 3 10
21 10 40 0 28 7 38 40 62 37 26 40 31 36 63 -3 19 -6 49 -6 66 0 17 -9 40 -21
53 -12 12 -18 25 -15 28 3 3 -1 15 -9 27 -8 11 -15 26 -15 34 0 7 -10 26 -22
43 -20 26 -22 42 -22 129 0 54 5 105 11 112 21 27 46 128 40 165 -22 141 -99
391 -123 400 -7 3 -18 20 -24 38 -16 47 -148 150 -247 194 -94 40 -194 60
-328 66 -91 3 -104 2 -147 -21 -26 -13 -53 -24 -59 -24 -18 0 -88 -58 -159
-130 -169 -173 -229 -238 -244 -268 -11 -21 -27 -35 -49 -40 -25 -8 -28 -11
-15 -17 16 -6 16 -9 1 -38 -9 -18 -27 -46 -39 -63 -13 -17 -24 -34 -24 -38 0
-3 -15 -28 -34 -54 -18 -27 -36 -58 -40 -69 -4 -12 -21 -35 -38 -52 -53 -52
-124 -30 -149 47 -6 20 -25 56 -40 81 -16 25 -29 53 -29 63 0 25 -36 91 -65
118 -14 13 -25 32 -25 42 0 10 -4 26 -9 36 -5 9 -14 29 -21 43 -14 31 -112
135 -161 170 -19 14 -55 34 -81 43 -27 10 -48 21 -48 26 0 5 -24 17 -52 28
-29 11 -84 34 -123 52 -151 68 -357 125 -378 104z m366 -314 c14 0 44 -22 79
-57 31 -32 83 -77 115 -101 33 -24 67 -59 78 -80 11 -20 27 -48 36 -62 12 -19
15 -43 12 -103 -3 -85 -24 -143 -69 -196 -54 -65 -36 -148 38 -174 76 -26 132
-35 188 -32 85 5 211 6 251 1 29 -3 42 2 64 22 22 20 37 25 75 23 30 -1 64 6
91 19 61 28 129 79 129 95 0 7 10 22 23 32 19 15 137 185 137 198 0 2 28 32
63 67 35 35 72 74 83 88 10 14 28 32 40 40 12 8 43 34 69 58 49 44 85 63 165
88 72 22 132 18 199 -15 32 -15 77 -30 99 -33 22 -3 65 -22 95 -42 58 -39 94
-97 137 -227 19 -56 20 -70 11 -120 -6 -30 -13 -104 -16 -163 -4 -94 -8 -114
-31 -154 -15 -26 -33 -54 -40 -63 -12 -13 -11 -21 6 -54 11 -22 20 -45 20 -53
0 -29 33 -74 61 -84 19 -6 29 -17 29 -29 0 -25 -27 -79 -39 -79 -5 0 -30 -16
-55 -35 -26 -19 -52 -35 -60 -35 -19 0 -93 -56 -107 -81 -6 -12 -12 -38 -12
-57 -1 -26 -10 -44 -32 -66 -17 -17 -37 -44 -45 -59 -17 -33 -36 -45 -104 -63
-40 -11 -54 -11 -75 0 -28 13 -66 25 -171 51 -93 23 -119 35 -126 57 -3 11
-18 34 -34 51 -15 18 -30 48 -33 67 -20 138 -28 166 -57 193 -16 15 -34 27
-39 27 -6 0 -15 9 -21 20 -14 26 -40 39 -92 45 -104 12 -130 16 -152 24 -12 5
-61 12 -107 16 -46 3 -107 8 -136 11 -49 5 -53 3 -76 -28 -14 -18 -28 -45 -32
-60 -4 -14 -15 -34 -24 -42 -17 -15 -20 -14 -45 24 -14 22 -30 40 -34 40 -30
1 -122 12 -142 17 -14 3 -32 8 -40 10 -58 13 -528 19 -644 8 -123 -12 -152
-23 -182 -67 l-29 -41 55 -49 c30 -27 55 -52 55 -56 1 -4 8 -20 17 -37 56
-107 52 -208 -12 -280 -10 -11 -21 -30 -25 -43 -7 -26 -106 -175 -138 -211
-12 -13 -46 -38 -75 -57 -29 -19 -55 -41 -58 -49 -4 -8 -12 -15 -18 -15 -7 0
-32 -20 -55 -45 -26 -28 -47 -42 -56 -39 -21 8 -30 51 -15 69 8 10 11 36 8 77
-4 50 -1 68 14 88 15 21 16 31 8 60 -23 77 -30 164 -15 186 7 12 17 39 20 60
11 66 28 104 53 120 31 20 62 73 62 105 0 17 8 30 26 40 32 17 76 68 69 79 -3
5 -1 11 4 14 14 9 -10 63 -33 74 -12 4 -68 7 -126 5 -121 -5 -142 -5 -190 -2
-19 1 -46 1 -60 -1 -14 -1 -74 0 -135 3 -130 7 -204 -5 -265 -41 -25 -15 -54
-32 -65 -38 -11 -6 -30 -26 -42 -44 -28 -40 -28 -39 -3 27 l20 53 -29 32 -29
33 -88 -19 c-111 -23 -326 -91 -379 -121 -22 -12 -62 -28 -88 -35 -41 -11 -50
-11 -58 1 -16 25 -10 55 16 79 14 13 25 32 25 42 0 29 31 101 54 126 26 27 58
34 93 21 36 -13 149 -14 198 -1 22 6 72 13 110 17 80 8 172 27 202 43 12 7 32
25 45 40 14 16 42 41 64 55 35 22 47 25 112 21 39 -2 72 0 72 4 0 4 13 22 29
40 28 31 30 32 114 32 68 0 88 3 95 16 17 31 268 38 417 11 220 -41 263 -48
315 -53 81 -8 159 -22 177 -33 11 -6 28 -4 51 7 32 16 34 18 29 62 -7 60 -42
134 -71 150 -13 7 -29 23 -35 36 -6 13 -17 24 -24 24 -9 0 -13 8 -10 23 3 13
-6 37 -20 58 -14 20 -28 52 -32 70 -4 19 -14 46 -21 61 -8 15 -14 51 -14 81 0
120 58 219 116 197 14 -6 35 -10 47 -10z m-1360 -261 c33 -19 55 -48 92 -128
27 -57 33 -77 24 -87 -18 -22 -43 -16 -75 17 -16 17 -41 37 -56 45 -15 8 -39
30 -54 49 -32 42 -27 77 14 99 33 19 29 18 55 5z m-117 -1107 c40 -88 34 -155
-26 -293 -27 -62 -50 -120 -50 -126 0 -7 -5 -13 -10 -13 -6 0 -8 13 -4 33 3
17 5 48 4 67 -3 39 -3 46 3 215 2 66 10 140 17 164 13 40 15 42 28 25 8 -11
25 -43 38 -72z m1559 73 c44 -4 92 -13 106 -20 22 -12 25 -19 21 -47 -6 -42
-118 -158 -154 -158 -12 0 -58 -18 -101 -40 -42 -22 -83 -40 -91 -40 -19 0
-33 39 -30 90 2 25 3 69 4 99 0 43 5 60 29 90 33 41 31 41 216 26z m505 -5
c11 -7 15 -28 14 -87 0 -43 -4 -94 -8 -113 -18 -84 -29 -117 -50 -150 -12 -19
-28 -50 -35 -67 -8 -18 -17 -33 -21 -33 -4 0 -26 -27 -49 -59 -49 -71 -127
-138 -196 -171 -58 -27 -63 -30 -130 -68 -41 -24 -63 -29 -120 -31 -38 0 -84
-5 -102 -10 -18 -5 -40 -8 -50 -6 -10 2 -21 4 -25 4 -14 2 -31 78 -29 125 3
54 36 107 82 131 15 8 33 29 42 47 23 48 120 135 166 149 21 6 65 35 97 63 57
50 164 116 190 116 15 0 144 115 164 147 15 24 35 29 60 13z"/>
</g>
</svg>
