<?xml version="1.0" standalone="no"?>
<!DOCTYPE svg PUBLIC "-//W3C//DTD SVG 20010904//EN"
 "http://www.w3.org/TR/2001/REC-SVG-20010904/DTD/svg10.dtd">
<svg version="1.0" xmlns="http://www.w3.org/2000/svg"
 width="700.000000pt" height="700.000000pt" viewBox="0 0 700.000000 700.000000"
 preserveAspectRatio="xMidYMid meet">
<metadata>
Created by potrace 1.14, written by Peter Selinger 2001-2017
</metadata>
<g transform="translate(0.000000,700.000000) scale(0.100000,-0.100000)"
fill="#000000" stroke="none">
<path d="M3337 5855 c-1 -1 -56 -5 -122 -9 -66 -4 -133 -8 -150 -10 -16 -2
-61 -6 -100 -10 -63 -6 -121 -14 -225 -31 -19 -3 -46 -8 -60 -10 -34 -5 -82
-15 -100 -20 -8 -3 -32 -7 -53 -11 -68 -10 -279 -64 -417 -106 -417 -127 -807
-310 -1118 -525 -84 -59 -224 -166 -262 -203 -9 -8 -41 -38 -71 -66 -264 -246
-468 -561 -579 -893 -77 -233 -80 -252 -79 -577 1 -277 2 -295 26 -385 27
-102 78 -235 122 -314 52 -94 82 -147 96 -163 7 -9 41 -54 75 -99 168 -226
455 -465 790 -656 140 -80 399 -202 536 -252 38 -14 78 -30 89 -35 80 -37 525
-169 655 -194 14 -2 69 -14 124 -25 54 -12 110 -23 125 -26 44 -10 353 -55
411 -61 30 -3 73 -7 95 -9 254 -26 707 -26 940 0 104 11 133 15 170 20 22 4
54 9 70 11 27 4 175 31 215 39 8 2 47 11 85 20 39 9 77 18 85 20 171 38 477
142 690 233 726 312 1280 822 1500 1382 81 205 112 371 91 484 -7 40 -8 63 -1
71 18 22 11 402 -10 492 -58 261 -183 518 -358 738 -119 149 -387 396 -517
475 -22 13 -42 26 -45 29 -3 4 -14 11 -25 18 -11 7 -60 37 -110 67 -240 145
-550 278 -900 385 -85 26 -335 87 -390 96 -22 3 -56 10 -75 15 -19 5 -71 14
-115 20 -44 7 -89 14 -100 16 -36 7 -248 33 -310 39 -33 2 -94 7 -135 11 -69
6 -557 13 -563 9z m453 -249 c79 -8 289 -34 335 -42 64 -11 362 -76 405 -89
166 -51 287 -89 300 -96 8 -4 86 -35 174 -69 150 -59 354 -158 531 -258 84
-47 348 -218 400 -259 39 -30 43 -33 90 -68 22 -17 42 -33 45 -36 3 -4 25 -23
50 -44 203 -167 450 -465 490 -590 22 -69 171 -439 186 -463 12 -18 12 -27 3
-44 -7 -12 -14 -54 -15 -93 -3 -53 -20 -201 -29 -245 -51 -257 -176 -508 -368
-737 -81 -96 -246 -255 -332 -319 -27 -21 -52 -40 -55 -44 -32 -36 -327 -214
-487 -294 -225 -113 -632 -263 -813 -301 -8 -2 -55 -13 -105 -24 -88 -21 -326
-64 -415 -75 -222 -29 -729 -29 -985 0 -97 11 -132 15 -155 19 -14 2 -45 7
-70 10 -53 7 -137 21 -245 41 -191 34 -660 161 -717 194 -10 6 -26 10 -36 10
-10 0 -22 4 -28 8 -5 5 -38 19 -74 32 -65 23 -91 34 -248 104 -445 199 -817
479 -1059 796 -116 153 -230 395 -259 550 -2 14 -7 39 -11 55 -3 17 -8 41 -11
55 -12 60 -9 339 4 415 52 300 176 595 343 814 97 127 243 268 381 366 30 22
57 43 58 47 2 5 8 8 13 8 7 0 31 15 132 83 34 23 309 163 392 200 206 91 617
230 780 263 11 2 49 11 84 20 77 19 95 23 141 30 19 2 55 9 80 14 40 8 183 29
308 44 24 3 92 9 150 12 59 4 109 8 111 10 5 4 481 -5 531 -10z"/>
<path d="M3841 5415 c-148 -69 -256 -311 -209 -467 16 -55 87 -131 146 -156
120 -52 255 -24 354 72 52 51 71 91 73 156 1 30 6 66 12 79 13 32 0 108 -27
161 -74 144 -226 212 -349 155z m118 -197 c24 -16 65 -47 91 -70 44 -38 48
-44 43 -77 -11 -77 -66 -121 -149 -121 -81 0 -114 10 -155 50 -34 33 -39 42
-39 84 0 48 29 123 58 149 37 32 87 27 151 -15z"/>
<path d="M2947 4814 c-1 -1 -33 -4 -70 -7 -79 -7 -135 -32 -157 -70 -18 -32
-9 -51 41 -85 88 -59 151 -136 267 -324 40 -64 97 -148 128 -187 30 -39 53
-71 51 -71 -2 0 -53 24 -113 54 -147 72 -325 126 -469 141 -270 28 -292 31
-352 51 -100 33 -150 74 -250 206 -23 31 -67 72 -98 93 -72 48 -204 93 -292
101 -60 5 -78 3 -138 -21 -73 -29 -100 -47 -117 -78 -12 -24 27 -69 87 -99 22
-12 50 -33 62 -47 22 -25 26 -39 37 -122 10 -71 44 -112 129 -155 56 -29 94
-35 254 -37 69 -1 127 -7 132 -12 8 -8 0 -12 -25 -13 -57 -4 -140 -40 -195
-85 -143 -117 -183 -133 -349 -140 -81 -3 -116 -9 -152 -27 -95 -44 -115 -133
-62 -266 49 -123 49 -125 -6 -233 -27 -53 -52 -108 -56 -124 -10 -41 4 -94 32
-122 39 -39 94 -49 271 -49 l162 -1 -20 -32 c-67 -109 -129 -278 -129 -353 0
-59 26 -150 49 -171 11 -11 21 -30 21 -43 0 -15 14 -36 38 -57 20 -18 39 -44
42 -58 6 -33 57 -58 125 -63 41 -2 51 0 60 17 6 11 23 40 38 63 16 24 29 52
30 63 1 10 4 19 7 19 9 0 48 88 59 135 13 52 19 99 26 215 12 196 39 281 112
355 43 44 90 85 98 85 2 0 26 14 52 30 59 37 80 39 33 2 -61 -48 -122 -115
-165 -182 -78 -122 -106 -222 -120 -440 -6 -86 -11 -130 -20 -185 -21 -117
-11 -181 32 -215 60 -47 184 -6 408 135 135 85 171 113 224 172 123 138 145
273 85 528 -25 107 -12 201 31 229 59 39 189 13 343 -66 107 -55 177 -79 317
-109 33 -7 62 -13 65 -14 3 -1 25 -5 50 -9 50 -9 100 -32 100 -45 0 -18 -119
-48 -324 -81 -137 -22 -227 -55 -310 -114 -37 -25 -122 -111 -144 -146 -19
-29 -114 -152 -122 -160 -25 -21 -96 -130 -115 -176 -73 -180 73 -266 386
-228 185 22 331 68 415 129 50 37 132 124 140 150 4 11 10 22 14 25 9 7 49
118 95 261 43 138 81 200 154 251 45 31 135 68 168 68 8 0 72 -54 138 -115 12
-11 39 -42 59 -70 151 -198 304 -339 431 -395 28 -12 61 -27 74 -33 26 -13
220 -16 291 -5 115 18 237 73 308 142 57 54 88 100 151 221 62 119 74 133 126
140 56 9 83 30 105 80 30 70 39 141 33 275 -9 248 -7 334 13 402 3 9 7 25 9
35 3 10 16 63 30 118 30 120 37 218 19 300 -15 73 -32 111 -108 240 -84 143
-166 220 -298 284 -221 106 -431 137 -638 96 -14 -3 -36 -7 -49 -10 -70 -13
-136 -38 -261 -99 -212 -103 -312 -228 -374 -466 -14 -52 -28 -111 -31 -130
-12 -71 -26 -109 -49 -131 -12 -12 -26 -22 -29 -22 -4 0 -32 -6 -64 -14 -112
-29 -223 -29 -223 -1 0 7 17 40 37 73 32 51 38 69 39 120 1 33 -7 95 -17 137
-69 289 -285 485 -604 549 -53 10 -213 27 -218 23z m2133 -258 c47 -9 131 -48
177 -83 55 -40 143 -133 148 -157 3 -12 12 -55 21 -96 20 -101 19 -98 27 -106
4 -4 7 -14 7 -22 0 -8 11 -28 25 -44 l26 -31 -44 -41 c-110 -102 -124 -212
-66 -494 23 -112 23 -113 5 -180 -10 -37 -18 -83 -17 -103 1 -32 -2 -38 -26
-47 -85 -30 -162 -120 -168 -196 -5 -64 -31 -111 -93 -173 -63 -61 -125 -92
-200 -99 -48 -4 -59 -1 -114 33 -78 48 -133 112 -198 231 -29 53 -69 116 -88
140 -100 122 -345 234 -500 227 -65 -2 -120 -14 -128 -26 -3 -5 -13 -4 -22 1
-37 22 -490 181 -687 242 -144 44 -226 59 -345 62 -58 2 -118 9 -135 16 -89
35 -301 -4 -505 -94 -118 -52 -230 -113 -230 -126 0 -5 -24 -8 -52 -5 -61 5
-170 -11 -210 -31 -37 -19 -52 -18 -43 4 15 34 31 148 29 203 -1 34 -8 66 -19
83 -10 14 -16 28 -14 30 2 2 29 6 59 10 90 10 105 13 172 36 88 31 185 86 232
133 39 39 42 40 116 41 57 1 86 7 119 25 43 22 121 96 121 114 0 18 142 -9
278 -52 66 -21 178 -76 247 -121 56 -36 131 -75 195 -100 49 -20 202 -66 223
-68 4 0 24 -3 45 -7 20 -3 53 -8 72 -10 19 -2 51 -9 70 -15 45 -15 170 -20
240 -10 114 17 138 23 251 60 64 21 145 55 180 77 80 48 102 87 154 266 57
196 99 273 213 384 110 107 280 151 452 119z m-1648 -261 c19 -37 19 -38 2
-20 -33 35 -81 99 -93 125 -20 42 69 -60 91 -105z m-939 -1447 c-5 -52 -22
-85 -64 -126 -42 -41 -51 -40 -43 5 6 34 33 87 80 158 22 33 32 18 27 -37z
m907 -112 c0 -25 -80 -135 -123 -168 -23 -18 -44 -35 -47 -39 -8 -11 -92 -51
-96 -46 -2 2 10 32 28 67 44 84 130 172 183 187 55 15 55 15 55 -1z"/>
<path d="M717 3811 c-124 -50 -207 -156 -195 -249 4 -24 0 -45 -8 -57 -29 -39
1 -155 59 -229 84 -105 206 -144 310 -98 150 67 260 319 207 476 -18 55 -81
120 -143 146 -71 32 -167 36 -230 11z m179 -187 c80 -34 102 -110 59 -202 -53
-114 -131 -106 -288 31 -36 31 -38 36 -33 72 9 54 31 84 78 105 49 22 126 19
184 -6z"/>
<path d="M6174 3675 c-91 -20 -151 -71 -198 -164 -79 -156 -42 -323 89 -406
57 -36 78 -43 158 -51 208 -22 370 195 308 414 -11 41 -55 93 -125 150 -68 55
-151 75 -232 57z m91 -170 c-50 -36 -55 -48 -32 -80 8 -10 19 -15 26 -11 9 6
8 12 -4 26 -18 20 -7 34 35 45 32 8 52 -13 73 -75 35 -108 -5 -186 -108 -204
-74 -14 -160 67 -170 159 -2 21 27 94 44 109 23 21 89 44 126 45 29 0 29 0 10
-14z"/>
<path d="M4040 2436 c-185 -53 -284 -189 -275 -375 11 -231 172 -391 395 -391
189 0 353 126 365 279 1 21 8 48 15 61 19 36 7 158 -24 225 -35 78 -116 156
-191 185 -73 28 -216 36 -285 16z m169 -178 c47 -10 59 -18 102 -70 53 -63 59
-88 38 -162 -21 -75 -133 -166 -205 -166 -38 1 -105 31 -134 61 -118 123 -40
333 130 347 8 1 39 -4 69 -10z"/>
</g>
</svg>
